%TF.GenerationSoftware,KiCad,Pcbnew,9.0.0*%
%TF.CreationDate,2025-04-04T15:17:04-04:00*%
%TF.ProjectId,right,72696768-742e-46b6-9963-61645f706362,rev?*%
%TF.SameCoordinates,Original*%
%TF.FileFunction,Copper,L1,Top*%
%TF.FilePolarity,Positive*%
%FSLAX46Y46*%
G04 Gerber Fmt 4.6, Leading zero omitted, Abs format (unit mm)*
G04 Created by KiCad (PCBNEW 9.0.0) date 2025-04-04 15:17:04*
%MOMM*%
%LPD*%
G01*
G04 APERTURE LIST*
%TA.AperFunction,ComponentPad*%
%ADD10C,2.000000*%
%TD*%
%TA.AperFunction,ComponentPad*%
%ADD11C,1.600000*%
%TD*%
%TA.AperFunction,ComponentPad*%
%ADD12R,1.500000X1.500000*%
%TD*%
%TA.AperFunction,ComponentPad*%
%ADD13C,4.400000*%
%TD*%
%TA.AperFunction,ComponentPad*%
%ADD14R,1.600000X1.600000*%
%TD*%
%TA.AperFunction,ComponentPad*%
%ADD15R,1.700000X1.700000*%
%TD*%
%TA.AperFunction,ComponentPad*%
%ADD16O,1.700000X1.700000*%
%TD*%
%TA.AperFunction,ComponentPad*%
%ADD17C,2.286000*%
%TD*%
%TA.AperFunction,ComponentPad*%
%ADD18C,1.778000*%
%TD*%
%TA.AperFunction,ViaPad*%
%ADD19C,0.600000*%
%TD*%
%TA.AperFunction,Conductor*%
%ADD20C,0.200000*%
%TD*%
G04 APERTURE END LIST*
D10*
%TO.P,SW2,1,1*%
%TO.N,Net-(U1-B1)*%
X123650000Y-67330000D03*
X131650000Y-67330000D03*
%TO.P,SW2,2,2*%
%TO.N,GND*%
X123650000Y-71830000D03*
X131650000Y-71830000D03*
%TD*%
D11*
%TO.P,SW5,1,A*%
%TO.N,Net-(SW5-A)*%
X137110000Y-47580000D03*
D12*
%TO.P,SW5,2,B*%
%TO.N,GND*%
X139650000Y-47580000D03*
D11*
%TO.P,SW5,3,C*%
%TO.N,unconnected-(SW5-C-Pad3)*%
X142190000Y-47580000D03*
%TD*%
D13*
%TO.P,REF\u002A\u002A,*%
%TO.N,*%
X146650000Y-134580000D03*
%TD*%
D10*
%TO.P,SW3,1,1*%
%TO.N,Net-(U1-B6)*%
X139650000Y-67330000D03*
X147650000Y-67330000D03*
%TO.P,SW3,2,2*%
%TO.N,GND*%
X139650000Y-71830000D03*
X147650000Y-71830000D03*
%TD*%
D13*
%TO.P,REF\u002A\u002A,*%
%TO.N,*%
X145650000Y-88580000D03*
%TD*%
D14*
%TO.P,U1,1,TX*%
%TO.N,unconnected-(U1-TX-Pad1)*%
X113110000Y-142580000D03*
D11*
%TO.P,U1,2,RX*%
%TO.N,unconnected-(U1-RX-Pad2)*%
X115650000Y-142580000D03*
%TO.P,U1,3,GND*%
%TO.N,GND*%
X118190000Y-142580000D03*
%TO.P,U1,4,GND*%
%TO.N,unconnected-(U1-GND-Pad4)*%
X120730000Y-142580000D03*
%TO.P,U1,5,SDA*%
%TO.N,Net-(U1-SDA)*%
X123270000Y-142580000D03*
%TO.P,U1,6,SCL*%
%TO.N,unconnected-(U1-SCL-Pad6)*%
X125810000Y-142580000D03*
%TO.P,U1,7,D4*%
%TO.N,Vertical*%
X128350000Y-142580000D03*
%TO.P,U1,8,C6*%
%TO.N,unconnected-(U1-C6-Pad8)*%
X130890000Y-142580000D03*
%TO.P,U1,9,D7*%
%TO.N,Horizontal*%
X133430000Y-142580000D03*
%TO.P,U1,10,E6*%
%TO.N,Button*%
X135970000Y-142580000D03*
%TO.P,U1,11,B4*%
%TO.N,unconnected-(U1-B4-Pad11)*%
X138510000Y-142580000D03*
%TO.P,U1,12,B5*%
%TO.N,Net-(SW5-A)*%
X141050000Y-142580000D03*
%TO.P,U1,13,B6*%
%TO.N,Net-(U1-B6)*%
X141050000Y-127340000D03*
%TO.P,U1,14,B2*%
%TO.N,Net-(U1-B2)*%
X138510000Y-127340000D03*
%TO.P,U1,15,B3*%
%TO.N,Net-(U1-B3)*%
X135970000Y-127340000D03*
%TO.P,U1,16,B1*%
%TO.N,Net-(U1-B1)*%
X133430000Y-127340000D03*
%TO.P,U1,17,F7*%
%TO.N,Net-(U1-F7)*%
X130890000Y-127340000D03*
%TO.P,U1,18,F6*%
%TO.N,unconnected-(U1-F6-Pad18)*%
X128350000Y-127340000D03*
%TO.P,U1,19,F5*%
%TO.N,Net-(U1-F5)*%
X125810000Y-127340000D03*
%TO.P,U1,20,F4*%
%TO.N,unconnected-(U1-F4-Pad20)*%
X123270000Y-127340000D03*
%TO.P,U1,21,VCC*%
%TO.N,VCC*%
X120730000Y-127340000D03*
%TO.P,U1,22,RST*%
%TO.N,unconnected-(U1-RST-Pad22)*%
X118190000Y-127340000D03*
%TO.P,U1,23,GND*%
%TO.N,unconnected-(U1-GND-Pad23)*%
X115650000Y-127340000D03*
%TO.P,U1,24,RAW*%
%TO.N,unconnected-(U1-RAW-Pad24)*%
X113110000Y-127340000D03*
%TD*%
D13*
%TO.P,REF\u002A\u002A,*%
%TO.N,*%
X123150000Y-119580000D03*
%TD*%
D10*
%TO.P,SW4,1,1*%
%TO.N,Net-(U1-B2)*%
X131650000Y-59330000D03*
X139650000Y-59330000D03*
%TO.P,SW4,2,2*%
%TO.N,GND*%
X131650000Y-63830000D03*
X139650000Y-63830000D03*
%TD*%
D15*
%TO.P,J1,1,Pin_1*%
%TO.N,VCC*%
X123650000Y-52500000D03*
D16*
%TO.P,J1,2,Pin_2*%
%TO.N,Button*%
X123650000Y-55040000D03*
%TO.P,J1,3,Pin_3*%
%TO.N,Horizontal*%
X123650000Y-57580000D03*
%TO.P,J1,4,Pin_4*%
%TO.N,Vertical*%
X123650000Y-60120000D03*
%TO.P,J1,5,Pin_5*%
%TO.N,GND*%
X123650000Y-62660000D03*
%TD*%
D13*
%TO.P,REF\u002A\u002A,*%
%TO.N,*%
X146650000Y-57580000D03*
%TD*%
D10*
%TO.P,SW1,1,1*%
%TO.N,Net-(U1-B3)*%
X131650000Y-75330000D03*
X139650000Y-75330000D03*
%TO.P,SW1,2,2*%
%TO.N,GND*%
X131650000Y-79830000D03*
X139650000Y-79830000D03*
%TD*%
D17*
%TO.P,U3,*%
%TO.N,*%
X129300000Y-102515200D03*
X129300000Y-112645200D03*
X142000000Y-102500000D03*
X142000000Y-112660000D03*
D18*
%TO.P,U3,1,GND*%
%TO.N,GND*%
X133125000Y-116455200D03*
%TO.P,U3,2,OUT2*%
%TO.N,Net-(U1-F7)*%
X135665000Y-116475200D03*
%TO.P,U3,3,VCC*%
%TO.N,VCC*%
X138205000Y-116455200D03*
%TO.P,U3,4,VCC*%
X126760000Y-105040000D03*
%TO.P,U3,5,OUT1*%
%TO.N,Net-(U1-F5)*%
X126745000Y-107565200D03*
%TO.P,U3,6,GND*%
%TO.N,GND*%
X126745000Y-110105200D03*
%TO.P,U3,7,B1*%
%TO.N,Net-(U1-SDA)*%
X132475000Y-101705200D03*
X138835000Y-101725200D03*
%TO.P,U3,8,B2*%
%TO.N,GND*%
X132475000Y-96765200D03*
X138825000Y-96785000D03*
%TD*%
D13*
%TO.P,REF\u002A\u002A,*%
%TO.N,*%
X125650000Y-46580000D03*
%TD*%
%TO.P,REF\u002A\u002A,*%
%TO.N,*%
X125650000Y-88580000D03*
%TD*%
D19*
%TO.N,GND*%
X131650000Y-132580000D03*
X145650000Y-143580000D03*
X116650000Y-132580000D03*
X109650000Y-142580000D03*
%TO.N,Vertical*%
X109150000Y-115580000D03*
X122650000Y-74580000D03*
X122650000Y-115580000D03*
X128150000Y-134580000D03*
X109150000Y-134580000D03*
X125650000Y-74580000D03*
%TO.N,Button*%
X128650000Y-82580000D03*
X140650000Y-94580000D03*
X128650000Y-55580000D03*
X145650000Y-94580000D03*
X140650000Y-82580000D03*
%TO.N,VCC*%
X129650000Y-84580000D03*
X129650000Y-92580000D03*
X127650000Y-84580000D03*
X127650000Y-52580000D03*
X138150000Y-105080000D03*
X127650000Y-92580000D03*
X121150000Y-122580000D03*
X138150000Y-122580000D03*
%TO.N,Horizontal*%
X136650000Y-106580000D03*
X144650000Y-106580000D03*
X129650000Y-81580000D03*
X129650000Y-57580000D03*
X136650000Y-81580000D03*
%TO.N,Net-(U1-B3)*%
X140650000Y-123330000D03*
X147650000Y-115580000D03*
X142650000Y-75580000D03*
X140650000Y-115830000D03*
X142650000Y-92580000D03*
X135900000Y-123330000D03*
X147650000Y-92580000D03*
%TO.N,Net-(U1-B1)*%
X133150000Y-123580000D03*
X119650000Y-123580000D03*
%TO.N,Net-(U1-B6)*%
X149650000Y-117080000D03*
X142400000Y-117330000D03*
%TO.N,Net-(U1-B2)*%
X138650000Y-124080000D03*
X141400000Y-124080000D03*
X145650000Y-74580000D03*
X148650000Y-74580000D03*
X145650000Y-61580000D03*
X148650000Y-116330000D03*
X141400000Y-116580000D03*
%TO.N,Net-(SW5-A)*%
X141650000Y-93580000D03*
X146650000Y-93580000D03*
%TO.N,Net-(U1-F7)*%
X131150000Y-118580000D03*
%TO.N,Net-(U1-SDA)*%
X109900000Y-116330000D03*
X123150000Y-135580000D03*
X109900000Y-135580000D03*
X129900000Y-116330000D03*
%TD*%
D20*
%TO.N,Vertical*%
X109150000Y-115580000D02*
X109150000Y-134580000D01*
X125650000Y-74580000D02*
X125650000Y-62120000D01*
X128150000Y-134580000D02*
X128350000Y-134780000D01*
X122650000Y-115580000D02*
X122650000Y-74580000D01*
X128350000Y-134780000D02*
X128350000Y-142580000D01*
X125650000Y-62120000D02*
X123650000Y-60120000D01*
%TO.N,Button*%
X145650000Y-94580000D02*
X145650000Y-117080000D01*
X144150000Y-118580000D02*
X144150000Y-127830000D01*
X135970000Y-136010000D02*
X135970000Y-142580000D01*
X140650000Y-82580000D02*
X140650000Y-94580000D01*
X144150000Y-127830000D02*
X135970000Y-136010000D01*
X128650000Y-82580000D02*
X128650000Y-55580000D01*
X145650000Y-117080000D02*
X144150000Y-118580000D01*
%TO.N,VCC*%
X127650000Y-84580000D02*
X127650000Y-53580000D01*
X120730000Y-123000000D02*
X121150000Y-122580000D01*
X127650000Y-52580000D02*
X127650000Y-53580000D01*
X138205000Y-122525000D02*
X138205000Y-116455200D01*
X126760000Y-105040000D02*
X126760000Y-93470000D01*
X138205000Y-105135000D02*
X138205000Y-116455200D01*
X126760000Y-93470000D02*
X127650000Y-92580000D01*
X129650000Y-92580000D02*
X129650000Y-84580000D01*
X138150000Y-105080000D02*
X138205000Y-105135000D01*
X138150000Y-122580000D02*
X138205000Y-122525000D01*
X120730000Y-127340000D02*
X120730000Y-123000000D01*
%TO.N,Horizontal*%
X129650000Y-81580000D02*
X129650000Y-57580000D01*
X143400000Y-118080000D02*
X143400000Y-127330000D01*
X136650000Y-106580000D02*
X136650000Y-81580000D01*
X143400000Y-127330000D02*
X133430000Y-137300000D01*
X144650000Y-106580000D02*
X144650000Y-116830000D01*
X144650000Y-116830000D02*
X143400000Y-118080000D01*
X133430000Y-137300000D02*
X133430000Y-142580000D01*
%TO.N,Net-(U1-B3)*%
X140650000Y-115830000D02*
X140650000Y-123330000D01*
X135900000Y-123330000D02*
X135970000Y-123400000D01*
X147650000Y-115660000D02*
X147650000Y-114580000D01*
X147650000Y-114580000D02*
X147650000Y-92580000D01*
X135970000Y-123400000D02*
X135970000Y-127340000D01*
X142650000Y-92580000D02*
X142650000Y-75580000D01*
X147650000Y-115580000D02*
X147650000Y-114580000D01*
%TO.N,Net-(U1-B1)*%
X119650000Y-123580000D02*
X119650000Y-117580000D01*
X121650000Y-69330000D02*
X123650000Y-67330000D01*
X119650000Y-117580000D02*
X121650000Y-115580000D01*
X133430000Y-127340000D02*
X133430000Y-123860000D01*
X121650000Y-115580000D02*
X121650000Y-69330000D01*
X133430000Y-123860000D02*
X133150000Y-123580000D01*
%TO.N,Net-(U1-B6)*%
X142400000Y-125990000D02*
X141050000Y-127340000D01*
X149650000Y-116580000D02*
X149650000Y-117080000D01*
X142400000Y-117330000D02*
X142400000Y-125990000D01*
X147650000Y-67330000D02*
X149650000Y-69330000D01*
X149650000Y-69330000D02*
X149650000Y-116580000D01*
%TO.N,Net-(U1-B2)*%
X145650000Y-74580000D02*
X145650000Y-61580000D01*
X141400000Y-116580000D02*
X141400000Y-124080000D01*
X148650000Y-116080000D02*
X148650000Y-116330000D01*
X138650000Y-124080000D02*
X138510000Y-124220000D01*
X138510000Y-124220000D02*
X138510000Y-127340000D01*
X148650000Y-116080000D02*
X148650000Y-74580000D01*
%TO.N,Net-(SW5-A)*%
X146650000Y-117580000D02*
X145150000Y-119080000D01*
X141650000Y-52120000D02*
X141650000Y-52580000D01*
X145150000Y-119080000D02*
X145150000Y-128330000D01*
X145150000Y-128330000D02*
X141050000Y-132430000D01*
X146650000Y-93580000D02*
X146650000Y-117580000D01*
X141650000Y-93580000D02*
X141650000Y-52580000D01*
X141050000Y-132430000D02*
X141050000Y-142580000D01*
X137110000Y-47580000D02*
X141650000Y-52120000D01*
%TO.N,Net-(U1-F5)*%
X125810000Y-122420000D02*
X125810000Y-127340000D01*
X126650000Y-121580000D02*
X125810000Y-122420000D01*
X124650000Y-115580000D02*
X124650000Y-109660200D01*
X124650000Y-109660200D02*
X126745000Y-107565200D01*
X124650000Y-115580000D02*
X126650000Y-117580000D01*
X126650000Y-117580000D02*
X126650000Y-121580000D01*
%TO.N,Net-(U1-F7)*%
X130890000Y-118840000D02*
X131150000Y-118580000D01*
X130890000Y-127340000D02*
X130890000Y-118840000D01*
%TO.N,Net-(U1-SDA)*%
X131650000Y-114580000D02*
X130650000Y-115580000D01*
X123270000Y-135700000D02*
X123270000Y-142580000D01*
X132475000Y-101705200D02*
X132475000Y-101755000D01*
X131650000Y-102580000D02*
X131650000Y-114580000D01*
X109900000Y-116330000D02*
X109900000Y-135580000D01*
X132475000Y-101755000D02*
X131650000Y-102580000D01*
X130650000Y-115580000D02*
X129900000Y-116330000D01*
X123150000Y-135580000D02*
X123270000Y-135700000D01*
%TD*%
%TA.AperFunction,Conductor*%
%TO.N,GND*%
G36*
X121019212Y-114300370D02*
G01*
X121048238Y-114363925D01*
X121049500Y-114381573D01*
X121049500Y-115279902D01*
X121029815Y-115346941D01*
X121013181Y-115367583D01*
X119169481Y-117211282D01*
X119169479Y-117211285D01*
X119124385Y-117289392D01*
X119124384Y-117289393D01*
X119090423Y-117348214D01*
X119090423Y-117348215D01*
X119049499Y-117500943D01*
X119049499Y-117500945D01*
X119049499Y-117669046D01*
X119049500Y-117669059D01*
X119049500Y-123000234D01*
X119029815Y-123067273D01*
X119028602Y-123069125D01*
X118940609Y-123200814D01*
X118940602Y-123200827D01*
X118880264Y-123346498D01*
X118880261Y-123346510D01*
X118849500Y-123501153D01*
X118849500Y-123658846D01*
X118880261Y-123813489D01*
X118880264Y-123813501D01*
X118940602Y-123959172D01*
X118940609Y-123959185D01*
X119028210Y-124090288D01*
X119028213Y-124090292D01*
X119139707Y-124201786D01*
X119139711Y-124201789D01*
X119270814Y-124289390D01*
X119270827Y-124289397D01*
X119416498Y-124349735D01*
X119416503Y-124349737D01*
X119571153Y-124380499D01*
X119571156Y-124380500D01*
X119571158Y-124380500D01*
X119728844Y-124380500D01*
X119728845Y-124380499D01*
X119883497Y-124349737D01*
X119958049Y-124318856D01*
X120027516Y-124311388D01*
X120089996Y-124342663D01*
X120125648Y-124402752D01*
X120129500Y-124433418D01*
X120129500Y-126110397D01*
X120109815Y-126177436D01*
X120061800Y-126220879D01*
X120048389Y-126227712D01*
X119882786Y-126348028D01*
X119738028Y-126492786D01*
X119617715Y-126658386D01*
X119570485Y-126751080D01*
X119522510Y-126801876D01*
X119454689Y-126818671D01*
X119388554Y-126796134D01*
X119349515Y-126751080D01*
X119340752Y-126733882D01*
X119302287Y-126658390D01*
X119294556Y-126647749D01*
X119181971Y-126492786D01*
X119037213Y-126348028D01*
X118871613Y-126227715D01*
X118871612Y-126227714D01*
X118871610Y-126227713D01*
X118814653Y-126198691D01*
X118689223Y-126134781D01*
X118494534Y-126071522D01*
X118319995Y-126043878D01*
X118292352Y-126039500D01*
X118087648Y-126039500D01*
X118063329Y-126043351D01*
X117885465Y-126071522D01*
X117690776Y-126134781D01*
X117508386Y-126227715D01*
X117342786Y-126348028D01*
X117198028Y-126492786D01*
X117077715Y-126658386D01*
X117030485Y-126751080D01*
X116982510Y-126801876D01*
X116914689Y-126818671D01*
X116848554Y-126796134D01*
X116809515Y-126751080D01*
X116800752Y-126733882D01*
X116762287Y-126658390D01*
X116754556Y-126647749D01*
X116641971Y-126492786D01*
X116497213Y-126348028D01*
X116331613Y-126227715D01*
X116331612Y-126227714D01*
X116331610Y-126227713D01*
X116274653Y-126198691D01*
X116149223Y-126134781D01*
X115954534Y-126071522D01*
X115779995Y-126043878D01*
X115752352Y-126039500D01*
X115547648Y-126039500D01*
X115523329Y-126043351D01*
X115345465Y-126071522D01*
X115150776Y-126134781D01*
X114968386Y-126227715D01*
X114802786Y-126348028D01*
X114658028Y-126492786D01*
X114537715Y-126658386D01*
X114490485Y-126751080D01*
X114442510Y-126801876D01*
X114374689Y-126818671D01*
X114308554Y-126796134D01*
X114269515Y-126751080D01*
X114260752Y-126733882D01*
X114222287Y-126658390D01*
X114214556Y-126647749D01*
X114101971Y-126492786D01*
X113957213Y-126348028D01*
X113791613Y-126227715D01*
X113791612Y-126227714D01*
X113791610Y-126227713D01*
X113734653Y-126198691D01*
X113609223Y-126134781D01*
X113414534Y-126071522D01*
X113239995Y-126043878D01*
X113212352Y-126039500D01*
X113007648Y-126039500D01*
X112983329Y-126043351D01*
X112805465Y-126071522D01*
X112610776Y-126134781D01*
X112428386Y-126227715D01*
X112262786Y-126348028D01*
X112118028Y-126492786D01*
X111997715Y-126658386D01*
X111904781Y-126840776D01*
X111841522Y-127035465D01*
X111809500Y-127237648D01*
X111809500Y-127442351D01*
X111841522Y-127644534D01*
X111904781Y-127839223D01*
X111968691Y-127964653D01*
X111991606Y-128009625D01*
X111997715Y-128021613D01*
X112118028Y-128187213D01*
X112262786Y-128331971D01*
X112417749Y-128444556D01*
X112428390Y-128452287D01*
X112544607Y-128511503D01*
X112610776Y-128545218D01*
X112610778Y-128545218D01*
X112610781Y-128545220D01*
X112676182Y-128566470D01*
X112805465Y-128608477D01*
X112903189Y-128623955D01*
X113007648Y-128640500D01*
X113007649Y-128640500D01*
X113212351Y-128640500D01*
X113212352Y-128640500D01*
X113414534Y-128608477D01*
X113609219Y-128545220D01*
X113791610Y-128452287D01*
X113884590Y-128384732D01*
X113957213Y-128331971D01*
X113957215Y-128331968D01*
X113957219Y-128331966D01*
X114101966Y-128187219D01*
X114101968Y-128187215D01*
X114101971Y-128187213D01*
X114222284Y-128021614D01*
X114222285Y-128021613D01*
X114222287Y-128021610D01*
X114269516Y-127928917D01*
X114317489Y-127878123D01*
X114385310Y-127861328D01*
X114451445Y-127883865D01*
X114490485Y-127928919D01*
X114537715Y-128021614D01*
X114658028Y-128187213D01*
X114802786Y-128331971D01*
X114957749Y-128444556D01*
X114968390Y-128452287D01*
X115084607Y-128511503D01*
X115150776Y-128545218D01*
X115150778Y-128545218D01*
X115150781Y-128545220D01*
X115216182Y-128566470D01*
X115345465Y-128608477D01*
X115443189Y-128623955D01*
X115547648Y-128640500D01*
X115547649Y-128640500D01*
X115752351Y-128640500D01*
X115752352Y-128640500D01*
X115954534Y-128608477D01*
X116149219Y-128545220D01*
X116331610Y-128452287D01*
X116424590Y-128384732D01*
X116497213Y-128331971D01*
X116497215Y-128331968D01*
X116497219Y-128331966D01*
X116641966Y-128187219D01*
X116641968Y-128187215D01*
X116641971Y-128187213D01*
X116762284Y-128021614D01*
X116762285Y-128021613D01*
X116762287Y-128021610D01*
X116809516Y-127928917D01*
X116857489Y-127878123D01*
X116925310Y-127861328D01*
X116991445Y-127883865D01*
X117030485Y-127928919D01*
X117077715Y-128021614D01*
X117198028Y-128187213D01*
X117342786Y-128331971D01*
X117497749Y-128444556D01*
X117508390Y-128452287D01*
X117624607Y-128511503D01*
X117690776Y-128545218D01*
X117690778Y-128545218D01*
X117690781Y-128545220D01*
X117756182Y-128566470D01*
X117885465Y-128608477D01*
X117983189Y-128623955D01*
X118087648Y-128640500D01*
X118087649Y-128640500D01*
X118292351Y-128640500D01*
X118292352Y-128640500D01*
X118494534Y-128608477D01*
X118689219Y-128545220D01*
X118871610Y-128452287D01*
X118964590Y-128384732D01*
X119037213Y-128331971D01*
X119037215Y-128331968D01*
X119037219Y-128331966D01*
X119181966Y-128187219D01*
X119181968Y-128187215D01*
X119181971Y-128187213D01*
X119302284Y-128021614D01*
X119302285Y-128021613D01*
X119302287Y-128021610D01*
X119349516Y-127928917D01*
X119397489Y-127878123D01*
X119465310Y-127861328D01*
X119531445Y-127883865D01*
X119570485Y-127928919D01*
X119617715Y-128021614D01*
X119738028Y-128187213D01*
X119882786Y-128331971D01*
X120037749Y-128444556D01*
X120048390Y-128452287D01*
X120164607Y-128511503D01*
X120230776Y-128545218D01*
X120230778Y-128545218D01*
X120230781Y-128545220D01*
X120296182Y-128566470D01*
X120425465Y-128608477D01*
X120523189Y-128623955D01*
X120627648Y-128640500D01*
X120627649Y-128640500D01*
X120832351Y-128640500D01*
X120832352Y-128640500D01*
X121034534Y-128608477D01*
X121229219Y-128545220D01*
X121411610Y-128452287D01*
X121504590Y-128384732D01*
X121577213Y-128331971D01*
X121577215Y-128331968D01*
X121577219Y-128331966D01*
X121721966Y-128187219D01*
X121721968Y-128187215D01*
X121721971Y-128187213D01*
X121842284Y-128021614D01*
X121842285Y-128021613D01*
X121842287Y-128021610D01*
X121889516Y-127928917D01*
X121937489Y-127878123D01*
X122005310Y-127861328D01*
X122071445Y-127883865D01*
X122110485Y-127928919D01*
X122157715Y-128021614D01*
X122278028Y-128187213D01*
X122422786Y-128331971D01*
X122577749Y-128444556D01*
X122588390Y-128452287D01*
X122704607Y-128511503D01*
X122770776Y-128545218D01*
X122770778Y-128545218D01*
X122770781Y-128545220D01*
X122836182Y-128566470D01*
X122965465Y-128608477D01*
X123063189Y-128623955D01*
X123167648Y-128640500D01*
X123167649Y-128640500D01*
X123372351Y-128640500D01*
X123372352Y-128640500D01*
X123574534Y-128608477D01*
X123769219Y-128545220D01*
X123951610Y-128452287D01*
X124044590Y-128384732D01*
X124117213Y-128331971D01*
X124117215Y-128331968D01*
X124117219Y-128331966D01*
X124261966Y-128187219D01*
X124261968Y-128187215D01*
X124261971Y-128187213D01*
X124382284Y-128021614D01*
X124382285Y-128021613D01*
X124382287Y-128021610D01*
X124429516Y-127928917D01*
X124477489Y-127878123D01*
X124545310Y-127861328D01*
X124611445Y-127883865D01*
X124650485Y-127928919D01*
X124697715Y-128021614D01*
X124818028Y-128187213D01*
X124962786Y-128331971D01*
X125117749Y-128444556D01*
X125128390Y-128452287D01*
X125244607Y-128511503D01*
X125310776Y-128545218D01*
X125310778Y-128545218D01*
X125310781Y-128545220D01*
X125376182Y-128566470D01*
X125505465Y-128608477D01*
X125603189Y-128623955D01*
X125707648Y-128640500D01*
X125707649Y-128640500D01*
X125912351Y-128640500D01*
X125912352Y-128640500D01*
X126114534Y-128608477D01*
X126309219Y-128545220D01*
X126491610Y-128452287D01*
X126584590Y-128384732D01*
X126657213Y-128331971D01*
X126657215Y-128331968D01*
X126657219Y-128331966D01*
X126801966Y-128187219D01*
X126801968Y-128187215D01*
X126801971Y-128187213D01*
X126922284Y-128021614D01*
X126922285Y-128021613D01*
X126922287Y-128021610D01*
X126969516Y-127928917D01*
X127017489Y-127878123D01*
X127085310Y-127861328D01*
X127151445Y-127883865D01*
X127190485Y-127928919D01*
X127237715Y-128021614D01*
X127358028Y-128187213D01*
X127502786Y-128331971D01*
X127657749Y-128444556D01*
X127668390Y-128452287D01*
X127784607Y-128511503D01*
X127850776Y-128545218D01*
X127850778Y-128545218D01*
X127850781Y-128545220D01*
X127916182Y-128566470D01*
X128045465Y-128608477D01*
X128143189Y-128623955D01*
X128247648Y-128640500D01*
X128247649Y-128640500D01*
X128452351Y-128640500D01*
X128452352Y-128640500D01*
X128654534Y-128608477D01*
X128849219Y-128545220D01*
X129031610Y-128452287D01*
X129124590Y-128384732D01*
X129197213Y-128331971D01*
X129197215Y-128331968D01*
X129197219Y-128331966D01*
X129341966Y-128187219D01*
X129341968Y-128187215D01*
X129341971Y-128187213D01*
X129462284Y-128021614D01*
X129462285Y-128021613D01*
X129462287Y-128021610D01*
X129509516Y-127928917D01*
X129557489Y-127878123D01*
X129625310Y-127861328D01*
X129691445Y-127883865D01*
X129730485Y-127928919D01*
X129777715Y-128021614D01*
X129898028Y-128187213D01*
X130042786Y-128331971D01*
X130197749Y-128444556D01*
X130208390Y-128452287D01*
X130324607Y-128511503D01*
X130390776Y-128545218D01*
X130390778Y-128545218D01*
X130390781Y-128545220D01*
X130456182Y-128566470D01*
X130585465Y-128608477D01*
X130683189Y-128623955D01*
X130787648Y-128640500D01*
X130787649Y-128640500D01*
X130992351Y-128640500D01*
X130992352Y-128640500D01*
X131194534Y-128608477D01*
X131389219Y-128545220D01*
X131571610Y-128452287D01*
X131664590Y-128384732D01*
X131737213Y-128331971D01*
X131737215Y-128331968D01*
X131737219Y-128331966D01*
X131881966Y-128187219D01*
X131881968Y-128187215D01*
X131881971Y-128187213D01*
X132002284Y-128021614D01*
X132002285Y-128021613D01*
X132002287Y-128021610D01*
X132049516Y-127928917D01*
X132097489Y-127878123D01*
X132165310Y-127861328D01*
X132231445Y-127883865D01*
X132270485Y-127928919D01*
X132317715Y-128021614D01*
X132438028Y-128187213D01*
X132582786Y-128331971D01*
X132737749Y-128444556D01*
X132748390Y-128452287D01*
X132864607Y-128511503D01*
X132930776Y-128545218D01*
X132930778Y-128545218D01*
X132930781Y-128545220D01*
X132996182Y-128566470D01*
X133125465Y-128608477D01*
X133223189Y-128623955D01*
X133327648Y-128640500D01*
X133327649Y-128640500D01*
X133532351Y-128640500D01*
X133532352Y-128640500D01*
X133734534Y-128608477D01*
X133929219Y-128545220D01*
X134111610Y-128452287D01*
X134204590Y-128384732D01*
X134277213Y-128331971D01*
X134277215Y-128331968D01*
X134277219Y-128331966D01*
X134421966Y-128187219D01*
X134421968Y-128187215D01*
X134421971Y-128187213D01*
X134542284Y-128021614D01*
X134542285Y-128021613D01*
X134542287Y-128021610D01*
X134589516Y-127928917D01*
X134637489Y-127878123D01*
X134705310Y-127861328D01*
X134771445Y-127883865D01*
X134810485Y-127928919D01*
X134857715Y-128021614D01*
X134978028Y-128187213D01*
X135122786Y-128331971D01*
X135277749Y-128444556D01*
X135288390Y-128452287D01*
X135404607Y-128511503D01*
X135470776Y-128545218D01*
X135470778Y-128545218D01*
X135470781Y-128545220D01*
X135536182Y-128566470D01*
X135665465Y-128608477D01*
X135763189Y-128623955D01*
X135867648Y-128640500D01*
X135867649Y-128640500D01*
X136072351Y-128640500D01*
X136072352Y-128640500D01*
X136274534Y-128608477D01*
X136469219Y-128545220D01*
X136651610Y-128452287D01*
X136744590Y-128384732D01*
X136817213Y-128331971D01*
X136817215Y-128331968D01*
X136817219Y-128331966D01*
X136961966Y-128187219D01*
X136961968Y-128187215D01*
X136961971Y-128187213D01*
X137082284Y-128021614D01*
X137082285Y-128021613D01*
X137082287Y-128021610D01*
X137129516Y-127928917D01*
X137177489Y-127878123D01*
X137245310Y-127861328D01*
X137311445Y-127883865D01*
X137350485Y-127928919D01*
X137397715Y-128021614D01*
X137518028Y-128187213D01*
X137662786Y-128331971D01*
X137817749Y-128444556D01*
X137828390Y-128452287D01*
X137944607Y-128511503D01*
X138010776Y-128545218D01*
X138010778Y-128545218D01*
X138010781Y-128545220D01*
X138076182Y-128566470D01*
X138205465Y-128608477D01*
X138303189Y-128623955D01*
X138407648Y-128640500D01*
X138407649Y-128640500D01*
X138612351Y-128640500D01*
X138612352Y-128640500D01*
X138814534Y-128608477D01*
X139009219Y-128545220D01*
X139191610Y-128452287D01*
X139284590Y-128384732D01*
X139357213Y-128331971D01*
X139357215Y-128331968D01*
X139357219Y-128331966D01*
X139501966Y-128187219D01*
X139501968Y-128187215D01*
X139501971Y-128187213D01*
X139622284Y-128021614D01*
X139622285Y-128021613D01*
X139622287Y-128021610D01*
X139669516Y-127928917D01*
X139717489Y-127878123D01*
X139785310Y-127861328D01*
X139851445Y-127883865D01*
X139890485Y-127928919D01*
X139937715Y-128021614D01*
X140058028Y-128187213D01*
X140202786Y-128331971D01*
X140357749Y-128444556D01*
X140368390Y-128452287D01*
X140484607Y-128511503D01*
X140550776Y-128545218D01*
X140550778Y-128545218D01*
X140550781Y-128545220D01*
X140616182Y-128566470D01*
X140745465Y-128608477D01*
X140796011Y-128616482D01*
X140947648Y-128640500D01*
X140947651Y-128640500D01*
X140950771Y-128640746D01*
X140951886Y-128641171D01*
X140952460Y-128641262D01*
X140952440Y-128641382D01*
X141016059Y-128665632D01*
X141057528Y-128721864D01*
X141062012Y-128791590D01*
X141028719Y-128852044D01*
X133061286Y-136819478D01*
X132949481Y-136931282D01*
X132949479Y-136931285D01*
X132899361Y-137018094D01*
X132899359Y-137018096D01*
X132870425Y-137068209D01*
X132870424Y-137068210D01*
X132870423Y-137068215D01*
X132829499Y-137220943D01*
X132829499Y-137220945D01*
X132829499Y-137389046D01*
X132829500Y-137389059D01*
X132829500Y-141350397D01*
X132809815Y-141417436D01*
X132761800Y-141460879D01*
X132748389Y-141467712D01*
X132582786Y-141588028D01*
X132438028Y-141732786D01*
X132317715Y-141898386D01*
X132270485Y-141991080D01*
X132222510Y-142041876D01*
X132154689Y-142058671D01*
X132088554Y-142036134D01*
X132049515Y-141991080D01*
X132002420Y-141898652D01*
X132002287Y-141898390D01*
X131970092Y-141854077D01*
X131881971Y-141732786D01*
X131737213Y-141588028D01*
X131571613Y-141467715D01*
X131571612Y-141467714D01*
X131571610Y-141467713D01*
X131514653Y-141438691D01*
X131389223Y-141374781D01*
X131194534Y-141311522D01*
X131019995Y-141283878D01*
X130992352Y-141279500D01*
X130787648Y-141279500D01*
X130763329Y-141283351D01*
X130585465Y-141311522D01*
X130390776Y-141374781D01*
X130208386Y-141467715D01*
X130042786Y-141588028D01*
X129898028Y-141732786D01*
X129777715Y-141898386D01*
X129730485Y-141991080D01*
X129682510Y-142041876D01*
X129614689Y-142058671D01*
X129548554Y-142036134D01*
X129509515Y-141991080D01*
X129462420Y-141898652D01*
X129462287Y-141898390D01*
X129430092Y-141854077D01*
X129341971Y-141732786D01*
X129197213Y-141588028D01*
X129031610Y-141467712D01*
X129018200Y-141460879D01*
X128967406Y-141412903D01*
X128950500Y-141350397D01*
X128950500Y-134869639D01*
X128950500Y-134859061D01*
X128950501Y-134859058D01*
X128950501Y-134700943D01*
X128948909Y-134695006D01*
X128948781Y-134680848D01*
X128950534Y-134674667D01*
X128950851Y-134664995D01*
X128949903Y-134664902D01*
X128950500Y-134658843D01*
X128950500Y-134501155D01*
X128950499Y-134501153D01*
X128936016Y-134428343D01*
X128919737Y-134346503D01*
X128910938Y-134325261D01*
X128859397Y-134200827D01*
X128859390Y-134200814D01*
X128771789Y-134069711D01*
X128771786Y-134069707D01*
X128660292Y-133958213D01*
X128660288Y-133958210D01*
X128529185Y-133870609D01*
X128529172Y-133870602D01*
X128383501Y-133810264D01*
X128383489Y-133810261D01*
X128228845Y-133779500D01*
X128228842Y-133779500D01*
X128071158Y-133779500D01*
X128071155Y-133779500D01*
X127916510Y-133810261D01*
X127916498Y-133810264D01*
X127770827Y-133870602D01*
X127770814Y-133870609D01*
X127639711Y-133958210D01*
X127639707Y-133958213D01*
X127528213Y-134069707D01*
X127528210Y-134069711D01*
X127440609Y-134200814D01*
X127440602Y-134200827D01*
X127380264Y-134346498D01*
X127380261Y-134346510D01*
X127349500Y-134501153D01*
X127349500Y-134658846D01*
X127380261Y-134813489D01*
X127380264Y-134813501D01*
X127440602Y-134959172D01*
X127440609Y-134959185D01*
X127528210Y-135090288D01*
X127528213Y-135090292D01*
X127639706Y-135201785D01*
X127639709Y-135201787D01*
X127639711Y-135201789D01*
X127694391Y-135238325D01*
X127739195Y-135291935D01*
X127749500Y-135341426D01*
X127749500Y-141350397D01*
X127729815Y-141417436D01*
X127681800Y-141460879D01*
X127668389Y-141467712D01*
X127502786Y-141588028D01*
X127358028Y-141732786D01*
X127237715Y-141898386D01*
X127190485Y-141991080D01*
X127142510Y-142041876D01*
X127074689Y-142058671D01*
X127008554Y-142036134D01*
X126969515Y-141991080D01*
X126922420Y-141898652D01*
X126922287Y-141898390D01*
X126890092Y-141854077D01*
X126801971Y-141732786D01*
X126657213Y-141588028D01*
X126491613Y-141467715D01*
X126491612Y-141467714D01*
X126491610Y-141467713D01*
X126434653Y-141438691D01*
X126309223Y-141374781D01*
X126114534Y-141311522D01*
X125939995Y-141283878D01*
X125912352Y-141279500D01*
X125707648Y-141279500D01*
X125683329Y-141283351D01*
X125505465Y-141311522D01*
X125310776Y-141374781D01*
X125128386Y-141467715D01*
X124962786Y-141588028D01*
X124818028Y-141732786D01*
X124697715Y-141898386D01*
X124650485Y-141991080D01*
X124602510Y-142041876D01*
X124534689Y-142058671D01*
X124468554Y-142036134D01*
X124429515Y-141991080D01*
X124382420Y-141898652D01*
X124382287Y-141898390D01*
X124350092Y-141854077D01*
X124261971Y-141732786D01*
X124117213Y-141588028D01*
X123951610Y-141467712D01*
X123938200Y-141460879D01*
X123887406Y-141412903D01*
X123870500Y-141350397D01*
X123870500Y-135957031D01*
X123879939Y-135909578D01*
X123919737Y-135813497D01*
X123950500Y-135658842D01*
X123950500Y-135501158D01*
X123950500Y-135501155D01*
X123950499Y-135501153D01*
X123919738Y-135346510D01*
X123919737Y-135346503D01*
X123912392Y-135328771D01*
X123859397Y-135200827D01*
X123859390Y-135200814D01*
X123771789Y-135069711D01*
X123771786Y-135069707D01*
X123660292Y-134958213D01*
X123660288Y-134958210D01*
X123529185Y-134870609D01*
X123529172Y-134870602D01*
X123383501Y-134810264D01*
X123383489Y-134810261D01*
X123228845Y-134779500D01*
X123228842Y-134779500D01*
X123071158Y-134779500D01*
X123071155Y-134779500D01*
X122916510Y-134810261D01*
X122916498Y-134810264D01*
X122770827Y-134870602D01*
X122770814Y-134870609D01*
X122639711Y-134958210D01*
X122639707Y-134958213D01*
X122528213Y-135069707D01*
X122528210Y-135069711D01*
X122440609Y-135200814D01*
X122440602Y-135200827D01*
X122380264Y-135346498D01*
X122380261Y-135346510D01*
X122349500Y-135501153D01*
X122349500Y-135658846D01*
X122380261Y-135813489D01*
X122380264Y-135813501D01*
X122440602Y-135959172D01*
X122440609Y-135959185D01*
X122528210Y-136090288D01*
X122528213Y-136090292D01*
X122633181Y-136195260D01*
X122666666Y-136256583D01*
X122669500Y-136282941D01*
X122669500Y-141350397D01*
X122649815Y-141417436D01*
X122601800Y-141460879D01*
X122588389Y-141467712D01*
X122422786Y-141588028D01*
X122278028Y-141732786D01*
X122157715Y-141898386D01*
X122110485Y-141991080D01*
X122062510Y-142041876D01*
X121994689Y-142058671D01*
X121928554Y-142036134D01*
X121889515Y-141991080D01*
X121842420Y-141898652D01*
X121842287Y-141898390D01*
X121810092Y-141854077D01*
X121721971Y-141732786D01*
X121577213Y-141588028D01*
X121411613Y-141467715D01*
X121411612Y-141467714D01*
X121411610Y-141467713D01*
X121354653Y-141438691D01*
X121229223Y-141374781D01*
X121034534Y-141311522D01*
X120859995Y-141283878D01*
X120832352Y-141279500D01*
X120627648Y-141279500D01*
X120603329Y-141283351D01*
X120425465Y-141311522D01*
X120230776Y-141374781D01*
X120048386Y-141467715D01*
X119882786Y-141588028D01*
X119738028Y-141732786D01*
X119617713Y-141898388D01*
X119570203Y-141991630D01*
X119522228Y-142042426D01*
X119454407Y-142059220D01*
X119388272Y-142036682D01*
X119349234Y-141991628D01*
X119301861Y-141898652D01*
X119269474Y-141854077D01*
X119269474Y-141854076D01*
X118713787Y-142409764D01*
X118702518Y-142367708D01*
X118630110Y-142242292D01*
X118527708Y-142139890D01*
X118402292Y-142067482D01*
X118360233Y-142056212D01*
X118915922Y-141500524D01*
X118915921Y-141500523D01*
X118871359Y-141468147D01*
X118871350Y-141468141D01*
X118689031Y-141375244D01*
X118494417Y-141312009D01*
X118292317Y-141280000D01*
X118087683Y-141280000D01*
X117885582Y-141312009D01*
X117690968Y-141375244D01*
X117508644Y-141468143D01*
X117464077Y-141500523D01*
X117464077Y-141500524D01*
X118019766Y-142056212D01*
X117977708Y-142067482D01*
X117852292Y-142139890D01*
X117749890Y-142242292D01*
X117677482Y-142367708D01*
X117666212Y-142409765D01*
X117110524Y-141854077D01*
X117110523Y-141854077D01*
X117078143Y-141898644D01*
X117030765Y-141991630D01*
X116982790Y-142042426D01*
X116914969Y-142059221D01*
X116848834Y-142036683D01*
X116809795Y-141991630D01*
X116762284Y-141898385D01*
X116641971Y-141732786D01*
X116497213Y-141588028D01*
X116331613Y-141467715D01*
X116331612Y-141467714D01*
X116331610Y-141467713D01*
X116274653Y-141438691D01*
X116149223Y-141374781D01*
X115954534Y-141311522D01*
X115779995Y-141283878D01*
X115752352Y-141279500D01*
X115547648Y-141279500D01*
X115523329Y-141283351D01*
X115345465Y-141311522D01*
X115150776Y-141374781D01*
X114968386Y-141467715D01*
X114802786Y-141588028D01*
X114658032Y-141732782D01*
X114631668Y-141769070D01*
X114576338Y-141811735D01*
X114506724Y-141817714D01*
X114444929Y-141785108D01*
X114410572Y-141724269D01*
X114408060Y-141709438D01*
X114407640Y-141705533D01*
X114404091Y-141672517D01*
X114353796Y-141537669D01*
X114353795Y-141537668D01*
X114353793Y-141537664D01*
X114267547Y-141422455D01*
X114267544Y-141422452D01*
X114152335Y-141336206D01*
X114152328Y-141336202D01*
X114017482Y-141285908D01*
X114017483Y-141285908D01*
X113957883Y-141279501D01*
X113957881Y-141279500D01*
X113957873Y-141279500D01*
X113957864Y-141279500D01*
X112262129Y-141279500D01*
X112262123Y-141279501D01*
X112202516Y-141285908D01*
X112067671Y-141336202D01*
X112067664Y-141336206D01*
X111952455Y-141422452D01*
X111952452Y-141422455D01*
X111866206Y-141537664D01*
X111866202Y-141537671D01*
X111815908Y-141672517D01*
X111809501Y-141732116D01*
X111809500Y-141732135D01*
X111809500Y-143427870D01*
X111809501Y-143427876D01*
X111815908Y-143487483D01*
X111866202Y-143622328D01*
X111866206Y-143622335D01*
X111952452Y-143737544D01*
X111952455Y-143737547D01*
X112067664Y-143823793D01*
X112067671Y-143823797D01*
X112202517Y-143874091D01*
X112202516Y-143874091D01*
X112209444Y-143874835D01*
X112262127Y-143880500D01*
X113957872Y-143880499D01*
X114017483Y-143874091D01*
X114152331Y-143823796D01*
X114267546Y-143737546D01*
X114353796Y-143622331D01*
X114404091Y-143487483D01*
X114408061Y-143450556D01*
X114434796Y-143386011D01*
X114492188Y-143346161D01*
X114562013Y-143343666D01*
X114622102Y-143379317D01*
X114631667Y-143390929D01*
X114658032Y-143427217D01*
X114802786Y-143571971D01*
X114923226Y-143659474D01*
X114968390Y-143692287D01*
X115057212Y-143737544D01*
X115150776Y-143785218D01*
X115150778Y-143785218D01*
X115150781Y-143785220D01*
X115255137Y-143819127D01*
X115345465Y-143848477D01*
X115446557Y-143864488D01*
X115547648Y-143880500D01*
X115547649Y-143880500D01*
X115752351Y-143880500D01*
X115752352Y-143880500D01*
X115954534Y-143848477D01*
X116149219Y-143785220D01*
X116331610Y-143692287D01*
X116427901Y-143622328D01*
X116497213Y-143571971D01*
X116497215Y-143571968D01*
X116497219Y-143571966D01*
X116641966Y-143427219D01*
X116641968Y-143427215D01*
X116641971Y-143427213D01*
X116762286Y-143261611D01*
X116762415Y-143261359D01*
X116809795Y-143168369D01*
X116857769Y-143117573D01*
X116925590Y-143100778D01*
X116991725Y-143123315D01*
X117030765Y-143168369D01*
X117078141Y-143261350D01*
X117078147Y-143261359D01*
X117110523Y-143305921D01*
X117110524Y-143305922D01*
X117666212Y-142750234D01*
X117677482Y-142792292D01*
X117749890Y-142917708D01*
X117852292Y-143020110D01*
X117977708Y-143092518D01*
X118019765Y-143103787D01*
X117464076Y-143659474D01*
X117508650Y-143691859D01*
X117690968Y-143784755D01*
X117885582Y-143847990D01*
X118087683Y-143880000D01*
X118292317Y-143880000D01*
X118494417Y-143847990D01*
X118689031Y-143784755D01*
X118871349Y-143691859D01*
X118915921Y-143659474D01*
X118360234Y-143103787D01*
X118402292Y-143092518D01*
X118527708Y-143020110D01*
X118630110Y-142917708D01*
X118702518Y-142792292D01*
X118713787Y-142750235D01*
X119269474Y-143305922D01*
X119269474Y-143305921D01*
X119301861Y-143261347D01*
X119301861Y-143261346D01*
X119349234Y-143168371D01*
X119397208Y-143117575D01*
X119465028Y-143100779D01*
X119531164Y-143123316D01*
X119570203Y-143168369D01*
X119617713Y-143261611D01*
X119738028Y-143427213D01*
X119882786Y-143571971D01*
X120003226Y-143659474D01*
X120048390Y-143692287D01*
X120137212Y-143737544D01*
X120230776Y-143785218D01*
X120230778Y-143785218D01*
X120230781Y-143785220D01*
X120335137Y-143819127D01*
X120425465Y-143848477D01*
X120526557Y-143864488D01*
X120627648Y-143880500D01*
X120627649Y-143880500D01*
X120832351Y-143880500D01*
X120832352Y-143880500D01*
X121034534Y-143848477D01*
X121229219Y-143785220D01*
X121411610Y-143692287D01*
X121507901Y-143622328D01*
X121577213Y-143571971D01*
X121577215Y-143571968D01*
X121577219Y-143571966D01*
X121721966Y-143427219D01*
X121721968Y-143427215D01*
X121721971Y-143427213D01*
X121842284Y-143261614D01*
X121842286Y-143261611D01*
X121842287Y-143261610D01*
X121889516Y-143168917D01*
X121937489Y-143118123D01*
X122005310Y-143101328D01*
X122071445Y-143123865D01*
X122110485Y-143168919D01*
X122157715Y-143261614D01*
X122278028Y-143427213D01*
X122422786Y-143571971D01*
X122543226Y-143659474D01*
X122588390Y-143692287D01*
X122677212Y-143737544D01*
X122770776Y-143785218D01*
X122770778Y-143785218D01*
X122770781Y-143785220D01*
X122875137Y-143819127D01*
X122965465Y-143848477D01*
X123066557Y-143864488D01*
X123167648Y-143880500D01*
X123167649Y-143880500D01*
X123372351Y-143880500D01*
X123372352Y-143880500D01*
X123574534Y-143848477D01*
X123769219Y-143785220D01*
X123951610Y-143692287D01*
X124047901Y-143622328D01*
X124117213Y-143571971D01*
X124117215Y-143571968D01*
X124117219Y-143571966D01*
X124261966Y-143427219D01*
X124261968Y-143427215D01*
X124261971Y-143427213D01*
X124382284Y-143261614D01*
X124382286Y-143261611D01*
X124382287Y-143261610D01*
X124429516Y-143168917D01*
X124477489Y-143118123D01*
X124545310Y-143101328D01*
X124611445Y-143123865D01*
X124650485Y-143168919D01*
X124697715Y-143261614D01*
X124818028Y-143427213D01*
X124962786Y-143571971D01*
X125083226Y-143659474D01*
X125128390Y-143692287D01*
X125217212Y-143737544D01*
X125310776Y-143785218D01*
X125310778Y-143785218D01*
X125310781Y-143785220D01*
X125415137Y-143819127D01*
X125505465Y-143848477D01*
X125606557Y-143864488D01*
X125707648Y-143880500D01*
X125707649Y-143880500D01*
X125912351Y-143880500D01*
X125912352Y-143880500D01*
X126114534Y-143848477D01*
X126309219Y-143785220D01*
X126491610Y-143692287D01*
X126587901Y-143622328D01*
X126657213Y-143571971D01*
X126657215Y-143571968D01*
X126657219Y-143571966D01*
X126801966Y-143427219D01*
X126801968Y-143427215D01*
X126801971Y-143427213D01*
X126922284Y-143261614D01*
X126922286Y-143261611D01*
X126922287Y-143261610D01*
X126969516Y-143168917D01*
X127017489Y-143118123D01*
X127085310Y-143101328D01*
X127151445Y-143123865D01*
X127190485Y-143168919D01*
X127237715Y-143261614D01*
X127358028Y-143427213D01*
X127502786Y-143571971D01*
X127623226Y-143659474D01*
X127668390Y-143692287D01*
X127757212Y-143737544D01*
X127850776Y-143785218D01*
X127850778Y-143785218D01*
X127850781Y-143785220D01*
X127955137Y-143819127D01*
X128045465Y-143848477D01*
X128146557Y-143864488D01*
X128247648Y-143880500D01*
X128247649Y-143880500D01*
X128452351Y-143880500D01*
X128452352Y-143880500D01*
X128654534Y-143848477D01*
X128849219Y-143785220D01*
X129031610Y-143692287D01*
X129127901Y-143622328D01*
X129197213Y-143571971D01*
X129197215Y-143571968D01*
X129197219Y-143571966D01*
X129341966Y-143427219D01*
X129341968Y-143427215D01*
X129341971Y-143427213D01*
X129462284Y-143261614D01*
X129462286Y-143261611D01*
X129462287Y-143261610D01*
X129509516Y-143168917D01*
X129557489Y-143118123D01*
X129625310Y-143101328D01*
X129691445Y-143123865D01*
X129730485Y-143168919D01*
X129777715Y-143261614D01*
X129898028Y-143427213D01*
X130042786Y-143571971D01*
X130163226Y-143659474D01*
X130208390Y-143692287D01*
X130297212Y-143737544D01*
X130390776Y-143785218D01*
X130390778Y-143785218D01*
X130390781Y-143785220D01*
X130495137Y-143819127D01*
X130585465Y-143848477D01*
X130686557Y-143864488D01*
X130787648Y-143880500D01*
X130787649Y-143880500D01*
X130992351Y-143880500D01*
X130992352Y-143880500D01*
X131194534Y-143848477D01*
X131389219Y-143785220D01*
X131571610Y-143692287D01*
X131667901Y-143622328D01*
X131737213Y-143571971D01*
X131737215Y-143571968D01*
X131737219Y-143571966D01*
X131881966Y-143427219D01*
X131881968Y-143427215D01*
X131881971Y-143427213D01*
X132002284Y-143261614D01*
X132002286Y-143261611D01*
X132002287Y-143261610D01*
X132049516Y-143168917D01*
X132097489Y-143118123D01*
X132165310Y-143101328D01*
X132231445Y-143123865D01*
X132270485Y-143168919D01*
X132317715Y-143261614D01*
X132438028Y-143427213D01*
X132582786Y-143571971D01*
X132703226Y-143659474D01*
X132748390Y-143692287D01*
X132837212Y-143737544D01*
X132930776Y-143785218D01*
X132930778Y-143785218D01*
X132930781Y-143785220D01*
X133035137Y-143819127D01*
X133125465Y-143848477D01*
X133226557Y-143864488D01*
X133327648Y-143880500D01*
X133327649Y-143880500D01*
X133532351Y-143880500D01*
X133532352Y-143880500D01*
X133734534Y-143848477D01*
X133929219Y-143785220D01*
X134111610Y-143692287D01*
X134207901Y-143622328D01*
X134277213Y-143571971D01*
X134277215Y-143571968D01*
X134277219Y-143571966D01*
X134421966Y-143427219D01*
X134421968Y-143427215D01*
X134421971Y-143427213D01*
X134542284Y-143261614D01*
X134542286Y-143261611D01*
X134542287Y-143261610D01*
X134589516Y-143168917D01*
X134637489Y-143118123D01*
X134705310Y-143101328D01*
X134771445Y-143123865D01*
X134810485Y-143168919D01*
X134857715Y-143261614D01*
X134978028Y-143427213D01*
X135122786Y-143571971D01*
X135243226Y-143659474D01*
X135288390Y-143692287D01*
X135377212Y-143737544D01*
X135470776Y-143785218D01*
X135470778Y-143785218D01*
X135470781Y-143785220D01*
X135575137Y-143819127D01*
X135665465Y-143848477D01*
X135766557Y-143864488D01*
X135867648Y-143880500D01*
X135867649Y-143880500D01*
X136072351Y-143880500D01*
X136072352Y-143880500D01*
X136274534Y-143848477D01*
X136469219Y-143785220D01*
X136651610Y-143692287D01*
X136747901Y-143622328D01*
X136817213Y-143571971D01*
X136817215Y-143571968D01*
X136817219Y-143571966D01*
X136961966Y-143427219D01*
X136961968Y-143427215D01*
X136961971Y-143427213D01*
X137082284Y-143261614D01*
X137082286Y-143261611D01*
X137082287Y-143261610D01*
X137129516Y-143168917D01*
X137177489Y-143118123D01*
X137245310Y-143101328D01*
X137311445Y-143123865D01*
X137350485Y-143168919D01*
X137397715Y-143261614D01*
X137518028Y-143427213D01*
X137662786Y-143571971D01*
X137783226Y-143659474D01*
X137828390Y-143692287D01*
X137917212Y-143737544D01*
X138010776Y-143785218D01*
X138010778Y-143785218D01*
X138010781Y-143785220D01*
X138115137Y-143819127D01*
X138205465Y-143848477D01*
X138306557Y-143864488D01*
X138407648Y-143880500D01*
X138407649Y-143880500D01*
X138612351Y-143880500D01*
X138612352Y-143880500D01*
X138814534Y-143848477D01*
X139009219Y-143785220D01*
X139191610Y-143692287D01*
X139287901Y-143622328D01*
X139357213Y-143571971D01*
X139357215Y-143571968D01*
X139357219Y-143571966D01*
X139501966Y-143427219D01*
X139501968Y-143427215D01*
X139501971Y-143427213D01*
X139622284Y-143261614D01*
X139622286Y-143261611D01*
X139622287Y-143261610D01*
X139669516Y-143168917D01*
X139717489Y-143118123D01*
X139785310Y-143101328D01*
X139851445Y-143123865D01*
X139890485Y-143168919D01*
X139937715Y-143261614D01*
X140058028Y-143427213D01*
X140202786Y-143571971D01*
X140323226Y-143659474D01*
X140368390Y-143692287D01*
X140457212Y-143737544D01*
X140550776Y-143785218D01*
X140550778Y-143785218D01*
X140550781Y-143785220D01*
X140655137Y-143819127D01*
X140745465Y-143848477D01*
X140846557Y-143864488D01*
X140947648Y-143880500D01*
X140947649Y-143880500D01*
X141152351Y-143880500D01*
X141152352Y-143880500D01*
X141354534Y-143848477D01*
X141549219Y-143785220D01*
X141731610Y-143692287D01*
X141827901Y-143622328D01*
X141897213Y-143571971D01*
X141897215Y-143571968D01*
X141897219Y-143571966D01*
X142041966Y-143427219D01*
X142041968Y-143427215D01*
X142041971Y-143427213D01*
X142102670Y-143343666D01*
X142162287Y-143261610D01*
X142255220Y-143079219D01*
X142318477Y-142884534D01*
X142350500Y-142682352D01*
X142350500Y-142477648D01*
X142318477Y-142275466D01*
X142302549Y-142226446D01*
X142255218Y-142080776D01*
X142162420Y-141898652D01*
X142162287Y-141898390D01*
X142130092Y-141854077D01*
X142041971Y-141732786D01*
X141897213Y-141588028D01*
X141731610Y-141467712D01*
X141718200Y-141460879D01*
X141667406Y-141412903D01*
X141650500Y-141350397D01*
X141650500Y-134428336D01*
X143949500Y-134428336D01*
X143949500Y-134731663D01*
X143983457Y-135033048D01*
X143983460Y-135033062D01*
X144050953Y-135328771D01*
X144050957Y-135328783D01*
X144151133Y-135615068D01*
X144282733Y-135888338D01*
X144282735Y-135888341D01*
X144444108Y-136145164D01*
X144559128Y-136289394D01*
X144631781Y-136380499D01*
X144633221Y-136382304D01*
X144847696Y-136596779D01*
X145084836Y-136785892D01*
X145341659Y-136947265D01*
X145614935Y-137078868D01*
X145829951Y-137154105D01*
X145901216Y-137179042D01*
X145901228Y-137179046D01*
X146196937Y-137246540D01*
X146196946Y-137246541D01*
X146196951Y-137246542D01*
X146397874Y-137269180D01*
X146498337Y-137280499D01*
X146498340Y-137280500D01*
X146498343Y-137280500D01*
X146801660Y-137280500D01*
X146801661Y-137280499D01*
X146955694Y-137263144D01*
X147103048Y-137246542D01*
X147103051Y-137246541D01*
X147103063Y-137246540D01*
X147398772Y-137179046D01*
X147685065Y-137078868D01*
X147958341Y-136947265D01*
X148215164Y-136785892D01*
X148452304Y-136596779D01*
X148666779Y-136382304D01*
X148855892Y-136145164D01*
X149017265Y-135888341D01*
X149148868Y-135615065D01*
X149249046Y-135328772D01*
X149316540Y-135033063D01*
X149324866Y-134959172D01*
X149338886Y-134834738D01*
X149350500Y-134731657D01*
X149350500Y-134428343D01*
X149333539Y-134277809D01*
X149316542Y-134126951D01*
X149316541Y-134126946D01*
X149316540Y-134126937D01*
X149249046Y-133831228D01*
X149241710Y-133810264D01*
X149224105Y-133759951D01*
X149148868Y-133544935D01*
X149017265Y-133271659D01*
X148855892Y-133014836D01*
X148666779Y-132777696D01*
X148452304Y-132563221D01*
X148451920Y-132562915D01*
X148222221Y-132379736D01*
X148215164Y-132374108D01*
X147958341Y-132212735D01*
X147958338Y-132212733D01*
X147685068Y-132081133D01*
X147398783Y-131980957D01*
X147398771Y-131980953D01*
X147170556Y-131928864D01*
X147103063Y-131913460D01*
X147103060Y-131913459D01*
X147103048Y-131913457D01*
X146801663Y-131879500D01*
X146801657Y-131879500D01*
X146498343Y-131879500D01*
X146498336Y-131879500D01*
X146196951Y-131913457D01*
X146196937Y-131913460D01*
X145901228Y-131980953D01*
X145901216Y-131980957D01*
X145614931Y-132081133D01*
X145341661Y-132212733D01*
X145084837Y-132374107D01*
X144847696Y-132563220D01*
X144633220Y-132777696D01*
X144444107Y-133014837D01*
X144282733Y-133271661D01*
X144151133Y-133544931D01*
X144050957Y-133831216D01*
X144050953Y-133831228D01*
X143983460Y-134126937D01*
X143983457Y-134126951D01*
X143949500Y-134428336D01*
X141650500Y-134428336D01*
X141650500Y-132730097D01*
X141670185Y-132663058D01*
X141686819Y-132642416D01*
X142449735Y-131879500D01*
X145630520Y-128698716D01*
X145709577Y-128561784D01*
X145750501Y-128409057D01*
X145750501Y-128250942D01*
X145750501Y-128243347D01*
X145750500Y-128243329D01*
X145750500Y-119380096D01*
X145770185Y-119313057D01*
X145786814Y-119292420D01*
X147008506Y-118070727D01*
X147008511Y-118070724D01*
X147018714Y-118060520D01*
X147018716Y-118060520D01*
X147130520Y-117948716D01*
X147209577Y-117811784D01*
X147239534Y-117699981D01*
X147250500Y-117659058D01*
X147250500Y-117500943D01*
X147250500Y-116466555D01*
X147270185Y-116399516D01*
X147322989Y-116353761D01*
X147392147Y-116343817D01*
X147410411Y-116348840D01*
X147410676Y-116347969D01*
X147416492Y-116349732D01*
X147416503Y-116349737D01*
X147533021Y-116372914D01*
X147571153Y-116380499D01*
X147571156Y-116380500D01*
X147571158Y-116380500D01*
X147728841Y-116380500D01*
X147728842Y-116380500D01*
X147728842Y-116380499D01*
X147729806Y-116380405D01*
X147730307Y-116380500D01*
X147734934Y-116380500D01*
X147734934Y-116381377D01*
X147798452Y-116393424D01*
X147849162Y-116441489D01*
X147863577Y-116479616D01*
X147880261Y-116563491D01*
X147880264Y-116563501D01*
X147940602Y-116709172D01*
X147940609Y-116709185D01*
X148028210Y-116840288D01*
X148028213Y-116840292D01*
X148139707Y-116951786D01*
X148139711Y-116951789D01*
X148270814Y-117039390D01*
X148270827Y-117039397D01*
X148416498Y-117099735D01*
X148416503Y-117099737D01*
X148570680Y-117130405D01*
X148571153Y-117130499D01*
X148571156Y-117130500D01*
X148571158Y-117130500D01*
X148728841Y-117130500D01*
X148728842Y-117130500D01*
X148728842Y-117130499D01*
X148729806Y-117130405D01*
X148730307Y-117130500D01*
X148734934Y-117130500D01*
X148734934Y-117131377D01*
X148798452Y-117143424D01*
X148849162Y-117191489D01*
X148863577Y-117229616D01*
X148880261Y-117313491D01*
X148880264Y-117313501D01*
X148940602Y-117459172D01*
X148940609Y-117459185D01*
X149028210Y-117590288D01*
X149028213Y-117590292D01*
X149139707Y-117701786D01*
X149139711Y-117701789D01*
X149270814Y-117789390D01*
X149270827Y-117789397D01*
X149376943Y-117833351D01*
X149416503Y-117849737D01*
X149569127Y-117880096D01*
X149571153Y-117880499D01*
X149571156Y-117880500D01*
X149571158Y-117880500D01*
X149728844Y-117880500D01*
X149728845Y-117880499D01*
X149883497Y-117849737D01*
X149978048Y-117810572D01*
X150010675Y-117807065D01*
X150043147Y-117802396D01*
X150045234Y-117803349D01*
X150047517Y-117803104D01*
X150076860Y-117817792D01*
X150106703Y-117831421D01*
X150107943Y-117833351D01*
X150109996Y-117834379D01*
X150126736Y-117862594D01*
X150144477Y-117890199D01*
X150144912Y-117893228D01*
X150145648Y-117894468D01*
X150149500Y-117925134D01*
X150149500Y-118074513D01*
X150129815Y-118141552D01*
X150077011Y-118187307D01*
X150059554Y-118193745D01*
X149889401Y-118242342D01*
X149464313Y-118401866D01*
X149464291Y-118401876D01*
X149053455Y-118595198D01*
X148659563Y-118821051D01*
X148285191Y-119077961D01*
X148285184Y-119077966D01*
X147932766Y-119364258D01*
X147932765Y-119364259D01*
X147604598Y-119678076D01*
X147604586Y-119678089D01*
X147302843Y-120017343D01*
X147029446Y-120379879D01*
X146786221Y-120763274D01*
X146786206Y-120763300D01*
X146574726Y-121165070D01*
X146574718Y-121165087D01*
X146396365Y-121582601D01*
X146396349Y-121582642D01*
X146252272Y-122013213D01*
X146240590Y-122060520D01*
X146143414Y-122454031D01*
X146116311Y-122620609D01*
X146070496Y-122902190D01*
X146033989Y-123354786D01*
X146034136Y-123808835D01*
X146070932Y-124261393D01*
X146070933Y-124261399D01*
X146144138Y-124709502D01*
X146144140Y-124709512D01*
X146253282Y-125150264D01*
X146397640Y-125580751D01*
X146397646Y-125580768D01*
X146576280Y-125998194D01*
X146576284Y-125998202D01*
X146788031Y-126399849D01*
X147031493Y-126783074D01*
X147031502Y-126783087D01*
X147031506Y-126783092D01*
X147031509Y-126783097D01*
X147222086Y-127035472D01*
X147305137Y-127145454D01*
X147607101Y-127484519D01*
X147607107Y-127484524D01*
X147935470Y-127798123D01*
X147935478Y-127798129D01*
X148288064Y-128084185D01*
X148288070Y-128084189D01*
X148662614Y-128340863D01*
X148662618Y-128340865D01*
X148662622Y-128340868D01*
X148781722Y-128409057D01*
X149056661Y-128566470D01*
X149056663Y-128566471D01*
X149056665Y-128566472D01*
X149467631Y-128759532D01*
X149467641Y-128759536D01*
X149467646Y-128759538D01*
X149892844Y-128918791D01*
X150059477Y-128966267D01*
X150118557Y-129003567D01*
X150148092Y-129066887D01*
X150149500Y-129085521D01*
X150149500Y-144573038D01*
X150148720Y-144586922D01*
X150148720Y-144586923D01*
X150138540Y-144677264D01*
X150132362Y-144704333D01*
X150104648Y-144783537D01*
X150092600Y-144808555D01*
X150047957Y-144879604D01*
X150030644Y-144901313D01*
X149971313Y-144960644D01*
X149949604Y-144977957D01*
X149878555Y-145022600D01*
X149853537Y-145034648D01*
X149774333Y-145062362D01*
X149747264Y-145068540D01*
X149667075Y-145077576D01*
X149656921Y-145078720D01*
X149643038Y-145079500D01*
X108656962Y-145079500D01*
X108643078Y-145078720D01*
X108630553Y-145077308D01*
X108552735Y-145068540D01*
X108525666Y-145062362D01*
X108446462Y-145034648D01*
X108421444Y-145022600D01*
X108350395Y-144977957D01*
X108328686Y-144960644D01*
X108269355Y-144901313D01*
X108252042Y-144879604D01*
X108207399Y-144808555D01*
X108195351Y-144783537D01*
X108167637Y-144704333D01*
X108161459Y-144677263D01*
X108151280Y-144586922D01*
X108150500Y-144573038D01*
X108150500Y-134882190D01*
X108170185Y-134815151D01*
X108222989Y-134769396D01*
X108292147Y-134759452D01*
X108355703Y-134788477D01*
X108389061Y-134834738D01*
X108440602Y-134959172D01*
X108440609Y-134959185D01*
X108528210Y-135090288D01*
X108528213Y-135090292D01*
X108639707Y-135201786D01*
X108639711Y-135201789D01*
X108770814Y-135289390D01*
X108770827Y-135289397D01*
X108865915Y-135328783D01*
X108916503Y-135349737D01*
X108962914Y-135358968D01*
X109000382Y-135366422D01*
X109062293Y-135398807D01*
X109096867Y-135459522D01*
X109099253Y-135495066D01*
X109099500Y-135495066D01*
X109099500Y-135498743D01*
X109099596Y-135500174D01*
X109099500Y-135501150D01*
X109099500Y-135658846D01*
X109130261Y-135813489D01*
X109130264Y-135813501D01*
X109190602Y-135959172D01*
X109190609Y-135959185D01*
X109278210Y-136090288D01*
X109278213Y-136090292D01*
X109389707Y-136201786D01*
X109389711Y-136201789D01*
X109520814Y-136289390D01*
X109520827Y-136289397D01*
X109666498Y-136349735D01*
X109666503Y-136349737D01*
X109821153Y-136380499D01*
X109821156Y-136380500D01*
X109821158Y-136380500D01*
X109978844Y-136380500D01*
X109978845Y-136380499D01*
X110133497Y-136349737D01*
X110279179Y-136289394D01*
X110410289Y-136201789D01*
X110521789Y-136090289D01*
X110609394Y-135959179D01*
X110669737Y-135813497D01*
X110700500Y-135658842D01*
X110700500Y-135501158D01*
X110700500Y-135501155D01*
X110700499Y-135501153D01*
X110669738Y-135346510D01*
X110669737Y-135346503D01*
X110662392Y-135328771D01*
X110609397Y-135200827D01*
X110609390Y-135200814D01*
X110521398Y-135069125D01*
X110500520Y-135002447D01*
X110500500Y-135000234D01*
X110500500Y-116909765D01*
X110520185Y-116842726D01*
X110521398Y-116840874D01*
X110609390Y-116709185D01*
X110609390Y-116709184D01*
X110609394Y-116709179D01*
X110669737Y-116563497D01*
X110700500Y-116408842D01*
X110700500Y-116251158D01*
X110700500Y-116251155D01*
X110700499Y-116251153D01*
X110686797Y-116182270D01*
X110669737Y-116096503D01*
X110667163Y-116090288D01*
X110609397Y-115950827D01*
X110609390Y-115950814D01*
X110521789Y-115819711D01*
X110521786Y-115819707D01*
X110410292Y-115708213D01*
X110410288Y-115708210D01*
X110279185Y-115620609D01*
X110279172Y-115620602D01*
X110133501Y-115560264D01*
X110133491Y-115560261D01*
X110036463Y-115540961D01*
X109974552Y-115508576D01*
X109939978Y-115447860D01*
X109939038Y-115443535D01*
X109924986Y-115372891D01*
X109919737Y-115346503D01*
X109913425Y-115331265D01*
X109859397Y-115200827D01*
X109859390Y-115200814D01*
X109785729Y-115090574D01*
X109771789Y-115069711D01*
X109771788Y-115069710D01*
X109769499Y-115066284D01*
X109748621Y-114999607D01*
X109767105Y-114932227D01*
X109819084Y-114885536D01*
X109872601Y-114873393D01*
X119584108Y-114873393D01*
X119598631Y-114873393D01*
X119598655Y-114873400D01*
X119650000Y-114873400D01*
X119757315Y-114873400D01*
X119757318Y-114873400D01*
X119969770Y-114842854D01*
X120175713Y-114782384D01*
X120370953Y-114693220D01*
X120551517Y-114577178D01*
X120713728Y-114436620D01*
X120831787Y-114300370D01*
X120890564Y-114262596D01*
X120960434Y-114262596D01*
X121019212Y-114300370D01*
G37*
%TD.AperFunction*%
%TA.AperFunction,Conductor*%
G36*
X147653736Y-43080726D02*
G01*
X147943796Y-43098271D01*
X147958657Y-43100075D01*
X148240798Y-43151780D01*
X148255335Y-43155363D01*
X148529172Y-43240695D01*
X148543163Y-43246000D01*
X148804743Y-43363727D01*
X148817989Y-43370680D01*
X149063465Y-43519075D01*
X149075776Y-43527573D01*
X149133858Y-43573077D01*
X149301573Y-43704473D01*
X149312781Y-43714403D01*
X149515596Y-43917218D01*
X149525526Y-43928426D01*
X149645481Y-44081538D01*
X149702422Y-44154217D01*
X149710926Y-44166537D01*
X149738854Y-44212735D01*
X149859316Y-44412004D01*
X149866275Y-44425263D01*
X149983997Y-44686831D01*
X149989306Y-44700832D01*
X150074635Y-44974663D01*
X150078219Y-44989201D01*
X150129923Y-45271340D01*
X150131728Y-45286205D01*
X150149274Y-45576263D01*
X150149500Y-45583750D01*
X150149500Y-68680903D01*
X150129815Y-68747942D01*
X150077011Y-68793697D01*
X150007853Y-68803641D01*
X149944297Y-68774616D01*
X149937819Y-68768584D01*
X149102798Y-67933563D01*
X149069313Y-67872240D01*
X149072547Y-67807566D01*
X149113553Y-67681368D01*
X149133705Y-67554126D01*
X149150500Y-67448097D01*
X149150500Y-67211902D01*
X149113553Y-66978631D01*
X149079689Y-66874412D01*
X149040568Y-66754008D01*
X149040566Y-66754005D01*
X149040566Y-66754003D01*
X148933342Y-66543566D01*
X148794517Y-66352490D01*
X148627510Y-66185483D01*
X148436433Y-66046657D01*
X148225996Y-65939433D01*
X148001368Y-65866446D01*
X147768097Y-65829500D01*
X147768092Y-65829500D01*
X147531908Y-65829500D01*
X147531903Y-65829500D01*
X147298631Y-65866446D01*
X147074003Y-65939433D01*
X146863566Y-66046657D01*
X146754550Y-66125862D01*
X146672490Y-66185483D01*
X146672488Y-66185485D01*
X146672487Y-66185485D01*
X146505484Y-66352488D01*
X146474818Y-66394697D01*
X146419487Y-66437362D01*
X146349874Y-66443341D01*
X146288079Y-66410735D01*
X146253722Y-66349896D01*
X146250500Y-66321811D01*
X146250500Y-62159765D01*
X146270185Y-62092726D01*
X146271398Y-62090874D01*
X146359390Y-61959185D01*
X146359390Y-61959184D01*
X146359394Y-61959179D01*
X146419737Y-61813497D01*
X146450500Y-61658842D01*
X146450500Y-61501158D01*
X146450500Y-61501155D01*
X146450499Y-61501153D01*
X146429500Y-61395587D01*
X146419737Y-61346503D01*
X146390140Y-61275048D01*
X146359397Y-61200827D01*
X146359390Y-61200814D01*
X146271789Y-61069711D01*
X146271786Y-61069707D01*
X146160292Y-60958213D01*
X146160288Y-60958210D01*
X146029185Y-60870609D01*
X146029172Y-60870602D01*
X145883501Y-60810264D01*
X145883489Y-60810261D01*
X145728845Y-60779500D01*
X145728842Y-60779500D01*
X145571158Y-60779500D01*
X145571155Y-60779500D01*
X145416510Y-60810261D01*
X145416498Y-60810264D01*
X145270827Y-60870602D01*
X145270814Y-60870609D01*
X145139711Y-60958210D01*
X145139707Y-60958213D01*
X145028213Y-61069707D01*
X145028210Y-61069711D01*
X144940609Y-61200814D01*
X144940602Y-61200827D01*
X144880264Y-61346498D01*
X144880261Y-61346510D01*
X144849500Y-61501153D01*
X144849500Y-61658846D01*
X144880261Y-61813489D01*
X144880263Y-61813497D01*
X144940602Y-61959172D01*
X144940609Y-61959185D01*
X145028602Y-62090874D01*
X145049480Y-62157551D01*
X145049500Y-62159765D01*
X145049500Y-74000234D01*
X145029815Y-74067273D01*
X145028602Y-74069125D01*
X144940609Y-74200814D01*
X144940602Y-74200827D01*
X144880264Y-74346498D01*
X144880261Y-74346510D01*
X144849500Y-74501153D01*
X144849500Y-74658846D01*
X144880261Y-74813489D01*
X144880264Y-74813501D01*
X144940602Y-74959172D01*
X144940609Y-74959185D01*
X145028210Y-75090288D01*
X145028213Y-75090292D01*
X145139707Y-75201786D01*
X145139711Y-75201789D01*
X145270814Y-75289390D01*
X145270827Y-75289397D01*
X145408683Y-75346498D01*
X145416503Y-75349737D01*
X145571153Y-75380499D01*
X145571156Y-75380500D01*
X145571158Y-75380500D01*
X145728844Y-75380500D01*
X145728845Y-75380499D01*
X145883497Y-75349737D01*
X146029179Y-75289394D01*
X146160289Y-75201789D01*
X146271789Y-75090289D01*
X146359394Y-74959179D01*
X146419737Y-74813497D01*
X146450500Y-74658842D01*
X146450500Y-74501158D01*
X146450500Y-74501155D01*
X146450499Y-74501153D01*
X146433466Y-74415524D01*
X146419737Y-74346503D01*
X146409509Y-74321811D01*
X146359397Y-74200827D01*
X146359390Y-74200814D01*
X146271398Y-74069125D01*
X146250520Y-74002447D01*
X146250500Y-74000234D01*
X146250500Y-72819330D01*
X146270185Y-72752291D01*
X146322989Y-72706536D01*
X146384229Y-72695712D01*
X146427341Y-72699104D01*
X147126212Y-72000233D01*
X147137482Y-72042292D01*
X147209890Y-72167708D01*
X147312292Y-72270110D01*
X147437708Y-72342518D01*
X147479765Y-72353787D01*
X146780893Y-73052658D01*
X146863828Y-73112914D01*
X147074197Y-73220102D01*
X147298752Y-73293065D01*
X147298751Y-73293065D01*
X147531948Y-73330000D01*
X147768052Y-73330000D01*
X148001247Y-73293065D01*
X148225802Y-73220102D01*
X148436163Y-73112918D01*
X148436169Y-73112914D01*
X148519104Y-73052658D01*
X148519105Y-73052658D01*
X147820233Y-72353787D01*
X147862292Y-72342518D01*
X147987708Y-72270110D01*
X148090110Y-72167708D01*
X148162518Y-72042292D01*
X148173787Y-72000234D01*
X148872658Y-72699105D01*
X148915771Y-72695712D01*
X148984148Y-72710076D01*
X149033905Y-72759128D01*
X149049500Y-72819330D01*
X149049500Y-73693444D01*
X149029815Y-73760483D01*
X148977011Y-73806238D01*
X148907853Y-73816182D01*
X148889575Y-73811202D01*
X148889324Y-73812031D01*
X148883500Y-73810264D01*
X148883497Y-73810263D01*
X148883492Y-73810262D01*
X148883489Y-73810261D01*
X148728845Y-73779500D01*
X148728842Y-73779500D01*
X148571158Y-73779500D01*
X148571155Y-73779500D01*
X148416510Y-73810261D01*
X148416498Y-73810264D01*
X148270827Y-73870602D01*
X148270814Y-73870609D01*
X148139711Y-73958210D01*
X148139707Y-73958213D01*
X148028213Y-74069707D01*
X148028210Y-74069711D01*
X147940609Y-74200814D01*
X147940602Y-74200827D01*
X147880264Y-74346498D01*
X147880261Y-74346510D01*
X147849500Y-74501153D01*
X147849500Y-74658846D01*
X147880261Y-74813489D01*
X147880264Y-74813501D01*
X147940602Y-74959172D01*
X147940609Y-74959185D01*
X148028602Y-75090874D01*
X148049480Y-75157551D01*
X148049500Y-75159765D01*
X148049500Y-86903241D01*
X148029815Y-86970280D01*
X147977011Y-87016035D01*
X147907853Y-87025979D01*
X147844297Y-86996954D01*
X147828553Y-86980554D01*
X147666779Y-86777696D01*
X147452303Y-86563220D01*
X147392078Y-86515193D01*
X147215164Y-86374108D01*
X146958341Y-86212735D01*
X146958338Y-86212733D01*
X146685068Y-86081133D01*
X146398783Y-85980957D01*
X146398771Y-85980953D01*
X146170556Y-85928864D01*
X146103063Y-85913460D01*
X146103060Y-85913459D01*
X146103048Y-85913457D01*
X145801663Y-85879500D01*
X145801657Y-85879500D01*
X145498343Y-85879500D01*
X145498336Y-85879500D01*
X145196951Y-85913457D01*
X145196937Y-85913460D01*
X144901228Y-85980953D01*
X144901216Y-85980957D01*
X144614931Y-86081133D01*
X144341661Y-86212733D01*
X144084837Y-86374107D01*
X143847696Y-86563220D01*
X143633220Y-86777696D01*
X143471447Y-86980554D01*
X143414259Y-87020694D01*
X143344447Y-87023544D01*
X143284177Y-86988199D01*
X143252584Y-86925880D01*
X143250500Y-86903241D01*
X143250500Y-76159765D01*
X143270185Y-76092726D01*
X143271398Y-76090874D01*
X143359390Y-75959185D01*
X143359390Y-75959184D01*
X143359394Y-75959179D01*
X143419737Y-75813497D01*
X143450500Y-75658842D01*
X143450500Y-75501158D01*
X143450500Y-75501155D01*
X143450499Y-75501153D01*
X143419738Y-75346510D01*
X143419737Y-75346503D01*
X143396080Y-75289390D01*
X143359397Y-75200827D01*
X143359390Y-75200814D01*
X143271789Y-75069711D01*
X143271786Y-75069707D01*
X143160292Y-74958213D01*
X143160288Y-74958210D01*
X143029185Y-74870609D01*
X143029172Y-74870602D01*
X142883501Y-74810264D01*
X142883489Y-74810261D01*
X142728845Y-74779500D01*
X142728842Y-74779500D01*
X142571158Y-74779500D01*
X142571155Y-74779500D01*
X142416510Y-74810261D01*
X142410676Y-74812031D01*
X142409873Y-74809385D01*
X142352056Y-74815396D01*
X142289687Y-74783902D01*
X142254245Y-74723689D01*
X142250500Y-74693444D01*
X142250500Y-57428336D01*
X143949500Y-57428336D01*
X143949500Y-57731663D01*
X143983457Y-58033048D01*
X143983460Y-58033062D01*
X144050953Y-58328771D01*
X144050957Y-58328783D01*
X144151133Y-58615068D01*
X144282733Y-58888338D01*
X144282735Y-58888341D01*
X144444108Y-59145164D01*
X144633221Y-59382304D01*
X144847696Y-59596779D01*
X145084836Y-59785892D01*
X145341659Y-59947265D01*
X145614935Y-60078868D01*
X145829951Y-60154105D01*
X145901216Y-60179042D01*
X145901228Y-60179046D01*
X146196937Y-60246540D01*
X146196946Y-60246541D01*
X146196951Y-60246542D01*
X146397874Y-60269180D01*
X146498337Y-60280499D01*
X146498340Y-60280500D01*
X146498343Y-60280500D01*
X146801660Y-60280500D01*
X146801661Y-60280499D01*
X146955694Y-60263144D01*
X147103048Y-60246542D01*
X147103051Y-60246541D01*
X147103063Y-60246540D01*
X147398772Y-60179046D01*
X147685065Y-60078868D01*
X147958341Y-59947265D01*
X148215164Y-59785892D01*
X148452304Y-59596779D01*
X148666779Y-59382304D01*
X148855892Y-59145164D01*
X149017265Y-58888341D01*
X149148868Y-58615065D01*
X149249046Y-58328772D01*
X149316540Y-58033063D01*
X149324866Y-57959172D01*
X149350499Y-57731663D01*
X149350500Y-57731659D01*
X149350500Y-57428340D01*
X149350499Y-57428336D01*
X149316542Y-57126951D01*
X149316541Y-57126946D01*
X149316540Y-57126937D01*
X149249046Y-56831228D01*
X149241710Y-56810264D01*
X149224105Y-56759951D01*
X149148868Y-56544935D01*
X149017265Y-56271659D01*
X148855892Y-56014836D01*
X148666779Y-55777696D01*
X148452304Y-55563221D01*
X148215164Y-55374108D01*
X147958341Y-55212735D01*
X147958338Y-55212733D01*
X147685068Y-55081133D01*
X147398783Y-54980957D01*
X147398771Y-54980953D01*
X147170556Y-54928864D01*
X147103063Y-54913460D01*
X147103060Y-54913459D01*
X147103048Y-54913457D01*
X146801663Y-54879500D01*
X146801657Y-54879500D01*
X146498343Y-54879500D01*
X146498336Y-54879500D01*
X146196951Y-54913457D01*
X146196937Y-54913460D01*
X145901228Y-54980953D01*
X145901216Y-54980957D01*
X145614931Y-55081133D01*
X145341661Y-55212733D01*
X145084837Y-55374107D01*
X144847696Y-55563220D01*
X144633220Y-55777696D01*
X144444107Y-56014837D01*
X144282733Y-56271661D01*
X144151133Y-56544931D01*
X144050957Y-56831216D01*
X144050953Y-56831228D01*
X143983460Y-57126937D01*
X143983457Y-57126951D01*
X143949500Y-57428336D01*
X142250500Y-57428336D01*
X142250500Y-52209060D01*
X142250501Y-52209047D01*
X142250501Y-52040944D01*
X142228333Y-51958213D01*
X142209577Y-51888216D01*
X142164572Y-51810264D01*
X142130524Y-51751290D01*
X142130518Y-51751282D01*
X139392298Y-49013063D01*
X139358813Y-48951740D01*
X139363797Y-48882048D01*
X139392299Y-48837700D01*
X139400000Y-48829999D01*
X139400000Y-47895686D01*
X139404394Y-47900080D01*
X139495606Y-47952741D01*
X139597339Y-47980000D01*
X139702661Y-47980000D01*
X139804394Y-47952741D01*
X139895606Y-47900080D01*
X139900000Y-47895686D01*
X139900000Y-48830000D01*
X140447828Y-48830000D01*
X140447844Y-48829999D01*
X140507372Y-48823598D01*
X140507379Y-48823596D01*
X140642086Y-48773354D01*
X140642093Y-48773350D01*
X140757187Y-48687190D01*
X140757190Y-48687187D01*
X140843350Y-48572093D01*
X140843354Y-48572086D01*
X140893596Y-48437379D01*
X140893598Y-48437373D01*
X140899384Y-48383561D01*
X140926122Y-48319010D01*
X140983514Y-48279162D01*
X141053340Y-48276669D01*
X141113428Y-48312322D01*
X141122991Y-48323932D01*
X141198028Y-48427212D01*
X141198032Y-48427217D01*
X141342786Y-48571971D01*
X141497749Y-48684556D01*
X141508390Y-48692287D01*
X141624607Y-48751503D01*
X141690776Y-48785218D01*
X141690778Y-48785218D01*
X141690781Y-48785220D01*
X141795137Y-48819127D01*
X141885465Y-48848477D01*
X141986557Y-48864488D01*
X142087648Y-48880500D01*
X142087649Y-48880500D01*
X142292351Y-48880500D01*
X142292352Y-48880500D01*
X142494534Y-48848477D01*
X142689219Y-48785220D01*
X142871610Y-48692287D01*
X143003067Y-48596779D01*
X143037213Y-48571971D01*
X143037215Y-48571968D01*
X143037219Y-48571966D01*
X143181966Y-48427219D01*
X143181968Y-48427215D01*
X143181971Y-48427213D01*
X143257008Y-48323932D01*
X143302287Y-48261610D01*
X143395220Y-48079219D01*
X143458477Y-47884534D01*
X143490500Y-47682352D01*
X143490500Y-47477648D01*
X143482257Y-47425606D01*
X143458477Y-47275465D01*
X143395218Y-47080776D01*
X143361503Y-47014607D01*
X143302287Y-46898390D01*
X143289534Y-46880837D01*
X143181971Y-46732786D01*
X143037213Y-46588028D01*
X142871613Y-46467715D01*
X142871612Y-46467714D01*
X142871610Y-46467713D01*
X142794342Y-46428343D01*
X142689223Y-46374781D01*
X142494534Y-46311522D01*
X142319995Y-46283878D01*
X142292352Y-46279500D01*
X142087648Y-46279500D01*
X142063329Y-46283351D01*
X141885465Y-46311522D01*
X141690776Y-46374781D01*
X141508386Y-46467715D01*
X141342786Y-46588028D01*
X141198032Y-46732782D01*
X141122991Y-46836068D01*
X141067661Y-46878733D01*
X140998048Y-46884712D01*
X140936253Y-46852106D01*
X140901895Y-46791267D01*
X140899384Y-46776438D01*
X140893598Y-46722626D01*
X140893596Y-46722620D01*
X140843354Y-46587913D01*
X140843350Y-46587906D01*
X140757190Y-46472812D01*
X140757187Y-46472809D01*
X140642093Y-46386649D01*
X140642086Y-46386645D01*
X140507379Y-46336403D01*
X140507372Y-46336401D01*
X140447844Y-46330000D01*
X139900000Y-46330000D01*
X139900000Y-47264314D01*
X139895606Y-47259920D01*
X139804394Y-47207259D01*
X139702661Y-47180000D01*
X139597339Y-47180000D01*
X139495606Y-47207259D01*
X139404394Y-47259920D01*
X139400000Y-47264314D01*
X139400000Y-46330000D01*
X138852155Y-46330000D01*
X138792627Y-46336401D01*
X138792620Y-46336403D01*
X138657913Y-46386645D01*
X138657906Y-46386649D01*
X138542812Y-46472809D01*
X138542809Y-46472812D01*
X138456649Y-46587906D01*
X138456645Y-46587913D01*
X138406403Y-46722620D01*
X138406401Y-46722626D01*
X138400615Y-46776440D01*
X138373876Y-46840990D01*
X138316483Y-46880837D01*
X138246657Y-46883330D01*
X138186569Y-46847676D01*
X138177008Y-46836067D01*
X138101971Y-46732786D01*
X137957213Y-46588028D01*
X137791613Y-46467715D01*
X137791612Y-46467714D01*
X137791610Y-46467713D01*
X137714342Y-46428343D01*
X137609223Y-46374781D01*
X137414534Y-46311522D01*
X137239995Y-46283878D01*
X137212352Y-46279500D01*
X137007648Y-46279500D01*
X136983329Y-46283351D01*
X136805465Y-46311522D01*
X136610776Y-46374781D01*
X136428386Y-46467715D01*
X136262786Y-46588028D01*
X136118028Y-46732786D01*
X135997715Y-46898386D01*
X135904781Y-47080776D01*
X135841522Y-47275465D01*
X135809500Y-47477648D01*
X135809500Y-47682351D01*
X135841522Y-47884534D01*
X135904781Y-48079223D01*
X135997715Y-48261613D01*
X136118028Y-48427213D01*
X136262786Y-48571971D01*
X136417749Y-48684556D01*
X136428390Y-48692287D01*
X136544607Y-48751503D01*
X136610776Y-48785218D01*
X136610778Y-48785218D01*
X136610781Y-48785220D01*
X136715137Y-48819127D01*
X136805465Y-48848477D01*
X136906557Y-48864488D01*
X137007648Y-48880500D01*
X137007649Y-48880500D01*
X137212351Y-48880500D01*
X137212352Y-48880500D01*
X137414534Y-48848477D01*
X137428842Y-48843827D01*
X137498682Y-48841831D01*
X137554842Y-48874077D01*
X141013181Y-52332416D01*
X141046666Y-52393739D01*
X141049500Y-52420097D01*
X141049500Y-58321811D01*
X141029815Y-58388850D01*
X140977011Y-58434605D01*
X140907853Y-58444549D01*
X140844297Y-58415524D01*
X140825182Y-58394697D01*
X140820934Y-58388850D01*
X140794517Y-58352490D01*
X140627510Y-58185483D01*
X140436433Y-58046657D01*
X140225996Y-57939433D01*
X140001368Y-57866446D01*
X139768097Y-57829500D01*
X139768092Y-57829500D01*
X139531908Y-57829500D01*
X139531903Y-57829500D01*
X139298631Y-57866446D01*
X139074003Y-57939433D01*
X138863566Y-58046657D01*
X138774211Y-58111578D01*
X138672490Y-58185483D01*
X138672488Y-58185485D01*
X138672487Y-58185485D01*
X138505485Y-58352487D01*
X138505485Y-58352488D01*
X138505483Y-58352490D01*
X138460824Y-58413958D01*
X138366657Y-58543566D01*
X138259433Y-58754003D01*
X138186446Y-58978631D01*
X138149500Y-59211902D01*
X138149500Y-59448097D01*
X138186446Y-59681368D01*
X138259433Y-59905996D01*
X138366657Y-60116433D01*
X138505483Y-60307510D01*
X138672490Y-60474517D01*
X138863567Y-60613343D01*
X138912768Y-60638412D01*
X139074003Y-60720566D01*
X139074005Y-60720566D01*
X139074008Y-60720568D01*
X139194412Y-60759689D01*
X139298631Y-60793553D01*
X139531903Y-60830500D01*
X139531908Y-60830500D01*
X139768097Y-60830500D01*
X140001368Y-60793553D01*
X140225992Y-60720568D01*
X140436433Y-60613343D01*
X140627510Y-60474517D01*
X140794517Y-60307510D01*
X140825182Y-60265302D01*
X140880511Y-60222637D01*
X140950125Y-60216658D01*
X141011920Y-60249263D01*
X141046277Y-60310102D01*
X141049500Y-60338188D01*
X141049500Y-62840668D01*
X141029815Y-62907707D01*
X140977011Y-62953462D01*
X140915772Y-62964286D01*
X140872658Y-62960893D01*
X140173787Y-63659765D01*
X140162518Y-63617708D01*
X140090110Y-63492292D01*
X139987708Y-63389890D01*
X139862292Y-63317482D01*
X139820234Y-63306212D01*
X140519105Y-62607340D01*
X140519104Y-62607338D01*
X140436174Y-62547087D01*
X140225802Y-62439897D01*
X140001247Y-62366934D01*
X140001248Y-62366934D01*
X139768052Y-62330000D01*
X139531948Y-62330000D01*
X139298752Y-62366934D01*
X139074197Y-62439897D01*
X138863830Y-62547084D01*
X138780894Y-62607340D01*
X139479766Y-63306212D01*
X139437708Y-63317482D01*
X139312292Y-63389890D01*
X139209890Y-63492292D01*
X139137482Y-63617708D01*
X139126212Y-63659766D01*
X138427340Y-62960894D01*
X138367084Y-63043830D01*
X138259897Y-63254197D01*
X138186934Y-63478752D01*
X138150000Y-63711947D01*
X138150000Y-63948052D01*
X138186934Y-64181247D01*
X138259897Y-64405802D01*
X138367087Y-64616174D01*
X138427338Y-64699104D01*
X138427340Y-64699105D01*
X139126212Y-64000233D01*
X139137482Y-64042292D01*
X139209890Y-64167708D01*
X139312292Y-64270110D01*
X139437708Y-64342518D01*
X139479765Y-64353787D01*
X138780893Y-65052658D01*
X138863828Y-65112914D01*
X139074197Y-65220102D01*
X139298752Y-65293065D01*
X139298751Y-65293065D01*
X139531948Y-65330000D01*
X139768052Y-65330000D01*
X140001247Y-65293065D01*
X140225802Y-65220102D01*
X140436163Y-65112918D01*
X140436169Y-65112914D01*
X140519104Y-65052658D01*
X140519105Y-65052658D01*
X139820233Y-64353787D01*
X139862292Y-64342518D01*
X139987708Y-64270110D01*
X140090110Y-64167708D01*
X140162518Y-64042292D01*
X140173787Y-64000234D01*
X140872658Y-64699105D01*
X140915771Y-64695712D01*
X140984148Y-64710076D01*
X141033905Y-64759128D01*
X141049500Y-64819330D01*
X141049500Y-66321811D01*
X141029815Y-66388850D01*
X140977011Y-66434605D01*
X140907853Y-66444549D01*
X140844297Y-66415524D01*
X140825182Y-66394697D01*
X140820934Y-66388850D01*
X140794517Y-66352490D01*
X140627510Y-66185483D01*
X140436433Y-66046657D01*
X140225996Y-65939433D01*
X140001368Y-65866446D01*
X139768097Y-65829500D01*
X139768092Y-65829500D01*
X139531908Y-65829500D01*
X139531903Y-65829500D01*
X139298631Y-65866446D01*
X139074003Y-65939433D01*
X138863566Y-66046657D01*
X138754550Y-66125862D01*
X138672490Y-66185483D01*
X138672488Y-66185485D01*
X138672487Y-66185485D01*
X138505485Y-66352487D01*
X138505485Y-66352488D01*
X138505483Y-66352490D01*
X138459686Y-66415524D01*
X138366657Y-66543566D01*
X138259433Y-66754003D01*
X138186446Y-66978631D01*
X138149500Y-67211902D01*
X138149500Y-67448097D01*
X138186446Y-67681368D01*
X138259433Y-67905996D01*
X138366657Y-68116433D01*
X138505483Y-68307510D01*
X138672490Y-68474517D01*
X138863567Y-68613343D01*
X138962991Y-68664002D01*
X139074003Y-68720566D01*
X139074005Y-68720566D01*
X139074008Y-68720568D01*
X139162476Y-68749313D01*
X139298631Y-68793553D01*
X139531903Y-68830500D01*
X139531908Y-68830500D01*
X139768097Y-68830500D01*
X140001368Y-68793553D01*
X140034468Y-68782798D01*
X140225992Y-68720568D01*
X140436433Y-68613343D01*
X140627510Y-68474517D01*
X140794517Y-68307510D01*
X140825182Y-68265302D01*
X140880511Y-68222637D01*
X140950125Y-68216658D01*
X141011920Y-68249263D01*
X141046277Y-68310102D01*
X141049500Y-68338188D01*
X141049500Y-70840668D01*
X141029815Y-70907707D01*
X140977011Y-70953462D01*
X140915772Y-70964286D01*
X140872658Y-70960893D01*
X140173787Y-71659765D01*
X140162518Y-71617708D01*
X140090110Y-71492292D01*
X139987708Y-71389890D01*
X139862292Y-71317482D01*
X139820234Y-71306212D01*
X140519105Y-70607340D01*
X140519104Y-70607338D01*
X140436174Y-70547087D01*
X140225802Y-70439897D01*
X140001247Y-70366934D01*
X140001248Y-70366934D01*
X139768052Y-70330000D01*
X139531948Y-70330000D01*
X139298752Y-70366934D01*
X139074197Y-70439897D01*
X138863830Y-70547084D01*
X138780894Y-70607340D01*
X139479766Y-71306212D01*
X139437708Y-71317482D01*
X139312292Y-71389890D01*
X139209890Y-71492292D01*
X139137482Y-71617708D01*
X139126212Y-71659766D01*
X138427340Y-70960894D01*
X138367084Y-71043830D01*
X138259897Y-71254197D01*
X138186934Y-71478752D01*
X138150000Y-71711947D01*
X138150000Y-71948052D01*
X138186934Y-72181247D01*
X138259897Y-72405802D01*
X138367087Y-72616174D01*
X138427338Y-72699104D01*
X138427340Y-72699105D01*
X139126212Y-72000233D01*
X139137482Y-72042292D01*
X139209890Y-72167708D01*
X139312292Y-72270110D01*
X139437708Y-72342518D01*
X139479765Y-72353787D01*
X138780893Y-73052658D01*
X138863828Y-73112914D01*
X139074197Y-73220102D01*
X139298752Y-73293065D01*
X139298751Y-73293065D01*
X139531948Y-73330000D01*
X139768052Y-73330000D01*
X140001247Y-73293065D01*
X140225802Y-73220102D01*
X140436163Y-73112918D01*
X140436169Y-73112914D01*
X140519104Y-73052658D01*
X140519105Y-73052658D01*
X139820233Y-72353787D01*
X139862292Y-72342518D01*
X139987708Y-72270110D01*
X140090110Y-72167708D01*
X140162518Y-72042292D01*
X140173787Y-72000234D01*
X140872658Y-72699105D01*
X140915771Y-72695712D01*
X140984148Y-72710076D01*
X141033905Y-72759128D01*
X141049500Y-72819330D01*
X141049500Y-74321811D01*
X141029815Y-74388850D01*
X140977011Y-74434605D01*
X140907853Y-74444549D01*
X140844297Y-74415524D01*
X140825182Y-74394697D01*
X140820934Y-74388850D01*
X140794517Y-74352490D01*
X140627510Y-74185483D01*
X140436433Y-74046657D01*
X140225996Y-73939433D01*
X140001368Y-73866446D01*
X139768097Y-73829500D01*
X139768092Y-73829500D01*
X139531908Y-73829500D01*
X139531903Y-73829500D01*
X139298631Y-73866446D01*
X139074003Y-73939433D01*
X138863566Y-74046657D01*
X138754550Y-74125862D01*
X138672490Y-74185483D01*
X138672488Y-74185485D01*
X138672487Y-74185485D01*
X138505485Y-74352487D01*
X138505485Y-74352488D01*
X138505483Y-74352490D01*
X138459686Y-74415524D01*
X138366657Y-74543566D01*
X138259433Y-74754003D01*
X138186446Y-74978631D01*
X138149500Y-75211902D01*
X138149500Y-75448097D01*
X138186446Y-75681368D01*
X138259433Y-75905996D01*
X138353336Y-76090289D01*
X138366657Y-76116433D01*
X138505483Y-76307510D01*
X138672490Y-76474517D01*
X138863567Y-76613343D01*
X138962991Y-76664002D01*
X139074003Y-76720566D01*
X139074005Y-76720566D01*
X139074008Y-76720568D01*
X139194412Y-76759689D01*
X139298631Y-76793553D01*
X139531903Y-76830500D01*
X139531908Y-76830500D01*
X139768097Y-76830500D01*
X140001368Y-76793553D01*
X140225992Y-76720568D01*
X140436433Y-76613343D01*
X140627510Y-76474517D01*
X140794517Y-76307510D01*
X140825182Y-76265302D01*
X140880511Y-76222637D01*
X140950125Y-76216658D01*
X141011920Y-76249263D01*
X141046277Y-76310102D01*
X141049500Y-76338188D01*
X141049500Y-78840668D01*
X141029815Y-78907707D01*
X140977011Y-78953462D01*
X140915772Y-78964286D01*
X140872658Y-78960893D01*
X140173787Y-79659765D01*
X140162518Y-79617708D01*
X140090110Y-79492292D01*
X139987708Y-79389890D01*
X139862292Y-79317482D01*
X139820234Y-79306212D01*
X140519105Y-78607340D01*
X140519104Y-78607338D01*
X140436174Y-78547087D01*
X140225802Y-78439897D01*
X140001247Y-78366934D01*
X140001248Y-78366934D01*
X139768052Y-78330000D01*
X139531948Y-78330000D01*
X139298752Y-78366934D01*
X139074197Y-78439897D01*
X138863830Y-78547084D01*
X138780894Y-78607340D01*
X139479766Y-79306212D01*
X139437708Y-79317482D01*
X139312292Y-79389890D01*
X139209890Y-79492292D01*
X139137482Y-79617708D01*
X139126212Y-79659766D01*
X138427340Y-78960894D01*
X138367084Y-79043830D01*
X138259897Y-79254197D01*
X138186934Y-79478752D01*
X138150000Y-79711947D01*
X138150000Y-79948052D01*
X138186934Y-80181247D01*
X138259897Y-80405802D01*
X138367087Y-80616174D01*
X138427338Y-80699104D01*
X138427340Y-80699105D01*
X139126212Y-80000233D01*
X139137482Y-80042292D01*
X139209890Y-80167708D01*
X139312292Y-80270110D01*
X139437708Y-80342518D01*
X139479765Y-80353787D01*
X138780893Y-81052658D01*
X138863828Y-81112914D01*
X139074197Y-81220102D01*
X139298752Y-81293065D01*
X139298751Y-81293065D01*
X139531948Y-81330000D01*
X139768052Y-81330000D01*
X140001247Y-81293065D01*
X140225802Y-81220102D01*
X140436163Y-81112918D01*
X140436169Y-81112914D01*
X140519104Y-81052658D01*
X140519105Y-81052658D01*
X139820233Y-80353787D01*
X139862292Y-80342518D01*
X139987708Y-80270110D01*
X140090110Y-80167708D01*
X140162518Y-80042292D01*
X140173787Y-80000234D01*
X140872658Y-80699105D01*
X140915771Y-80695712D01*
X140984148Y-80710076D01*
X141033905Y-80759128D01*
X141049500Y-80819330D01*
X141049500Y-81693444D01*
X141029815Y-81760483D01*
X140977011Y-81806238D01*
X140907853Y-81816182D01*
X140889575Y-81811202D01*
X140889324Y-81812031D01*
X140883500Y-81810264D01*
X140883497Y-81810263D01*
X140883492Y-81810262D01*
X140883489Y-81810261D01*
X140728845Y-81779500D01*
X140728842Y-81779500D01*
X140571158Y-81779500D01*
X140571155Y-81779500D01*
X140416510Y-81810261D01*
X140416498Y-81810264D01*
X140270827Y-81870602D01*
X140270814Y-81870609D01*
X140139711Y-81958210D01*
X140139707Y-81958213D01*
X140028213Y-82069707D01*
X140028210Y-82069711D01*
X139940609Y-82200814D01*
X139940602Y-82200827D01*
X139880264Y-82346498D01*
X139880261Y-82346510D01*
X139849500Y-82501153D01*
X139849500Y-82658846D01*
X139880261Y-82813489D01*
X139880264Y-82813501D01*
X139940602Y-82959172D01*
X139940609Y-82959185D01*
X140028602Y-83090874D01*
X140049480Y-83157551D01*
X140049500Y-83159765D01*
X140049500Y-94000234D01*
X140029815Y-94067273D01*
X140028602Y-94069125D01*
X139940609Y-94200814D01*
X139940602Y-94200827D01*
X139880264Y-94346498D01*
X139880261Y-94346510D01*
X139849500Y-94501153D01*
X139849500Y-94658846D01*
X139880261Y-94813489D01*
X139880264Y-94813501D01*
X139940602Y-94959172D01*
X139940609Y-94959185D01*
X140028210Y-95090288D01*
X140028213Y-95090292D01*
X140139707Y-95201786D01*
X140139711Y-95201789D01*
X140270814Y-95289390D01*
X140270827Y-95289397D01*
X140416498Y-95349735D01*
X140416503Y-95349737D01*
X140549541Y-95376200D01*
X140571153Y-95380499D01*
X140571156Y-95380500D01*
X140571158Y-95380500D01*
X140728844Y-95380500D01*
X140728845Y-95380499D01*
X140883497Y-95349737D01*
X141029179Y-95289394D01*
X141160289Y-95201789D01*
X141271789Y-95090289D01*
X141359394Y-94959179D01*
X141419737Y-94813497D01*
X141450500Y-94658842D01*
X141450500Y-94504500D01*
X141470185Y-94437461D01*
X141522989Y-94391706D01*
X141574500Y-94380500D01*
X141728844Y-94380500D01*
X141728845Y-94380499D01*
X141883497Y-94349737D01*
X142029179Y-94289394D01*
X142160289Y-94201789D01*
X142271789Y-94090289D01*
X142359394Y-93959179D01*
X142419737Y-93813497D01*
X142450500Y-93658842D01*
X142450500Y-93504500D01*
X142470185Y-93437461D01*
X142522989Y-93391706D01*
X142574500Y-93380500D01*
X142728844Y-93380500D01*
X142728845Y-93380499D01*
X142883497Y-93349737D01*
X143029179Y-93289394D01*
X143160289Y-93201789D01*
X143271789Y-93090289D01*
X143359394Y-92959179D01*
X143419737Y-92813497D01*
X143450500Y-92658842D01*
X143450500Y-92501158D01*
X143450500Y-92501155D01*
X143450499Y-92501153D01*
X143419738Y-92346510D01*
X143419738Y-92346508D01*
X143419737Y-92346503D01*
X143419735Y-92346498D01*
X143359397Y-92200827D01*
X143359390Y-92200814D01*
X143271398Y-92069125D01*
X143250520Y-92002447D01*
X143250500Y-92000234D01*
X143250500Y-90256758D01*
X143270185Y-90189719D01*
X143322989Y-90143964D01*
X143392147Y-90134020D01*
X143455703Y-90163045D01*
X143471442Y-90179440D01*
X143633221Y-90382304D01*
X143847696Y-90596779D01*
X144084836Y-90785892D01*
X144341659Y-90947265D01*
X144614935Y-91078868D01*
X144829951Y-91154105D01*
X144901216Y-91179042D01*
X144901228Y-91179046D01*
X145196937Y-91246540D01*
X145196946Y-91246541D01*
X145196951Y-91246542D01*
X145397874Y-91269180D01*
X145498337Y-91280499D01*
X145498340Y-91280500D01*
X145498343Y-91280500D01*
X145801660Y-91280500D01*
X145801661Y-91280499D01*
X145955694Y-91263144D01*
X146103048Y-91246542D01*
X146103051Y-91246541D01*
X146103063Y-91246540D01*
X146398772Y-91179046D01*
X146685065Y-91078868D01*
X146958341Y-90947265D01*
X147215164Y-90785892D01*
X147452304Y-90596779D01*
X147666779Y-90382304D01*
X147828554Y-90179443D01*
X147885741Y-90139305D01*
X147955553Y-90136455D01*
X148015823Y-90171800D01*
X148047416Y-90234119D01*
X148049500Y-90256758D01*
X148049500Y-91693444D01*
X148029815Y-91760483D01*
X147977011Y-91806238D01*
X147907853Y-91816182D01*
X147889575Y-91811202D01*
X147889324Y-91812031D01*
X147883500Y-91810264D01*
X147883497Y-91810263D01*
X147883492Y-91810262D01*
X147883489Y-91810261D01*
X147728845Y-91779500D01*
X147728842Y-91779500D01*
X147571158Y-91779500D01*
X147571155Y-91779500D01*
X147416510Y-91810261D01*
X147416498Y-91810264D01*
X147270827Y-91870602D01*
X147270814Y-91870609D01*
X147139711Y-91958210D01*
X147139707Y-91958213D01*
X147028213Y-92069707D01*
X147028210Y-92069711D01*
X146940609Y-92200814D01*
X146940602Y-92200827D01*
X146880264Y-92346498D01*
X146880261Y-92346510D01*
X146849500Y-92501153D01*
X146849500Y-92655500D01*
X146829815Y-92722539D01*
X146777011Y-92768294D01*
X146725500Y-92779500D01*
X146571155Y-92779500D01*
X146416510Y-92810261D01*
X146416498Y-92810264D01*
X146270827Y-92870602D01*
X146270814Y-92870609D01*
X146139711Y-92958210D01*
X146139707Y-92958213D01*
X146028213Y-93069707D01*
X146028210Y-93069711D01*
X145940609Y-93200814D01*
X145940602Y-93200827D01*
X145880264Y-93346498D01*
X145880261Y-93346510D01*
X145849500Y-93501153D01*
X145849500Y-93655500D01*
X145829815Y-93722539D01*
X145777011Y-93768294D01*
X145725500Y-93779500D01*
X145571155Y-93779500D01*
X145416510Y-93810261D01*
X145416498Y-93810264D01*
X145270827Y-93870602D01*
X145270814Y-93870609D01*
X145139711Y-93958210D01*
X145139707Y-93958213D01*
X145028213Y-94069707D01*
X145028210Y-94069711D01*
X144940609Y-94200814D01*
X144940602Y-94200827D01*
X144880264Y-94346498D01*
X144880261Y-94346510D01*
X144849500Y-94501153D01*
X144849500Y-94658846D01*
X144880261Y-94813489D01*
X144880264Y-94813501D01*
X144940602Y-94959172D01*
X144940609Y-94959185D01*
X145028602Y-95090874D01*
X145049480Y-95157551D01*
X145049500Y-95159765D01*
X145049500Y-105693444D01*
X145029815Y-105760483D01*
X144977011Y-105806238D01*
X144907853Y-105816182D01*
X144889575Y-105811202D01*
X144889324Y-105812031D01*
X144883500Y-105810264D01*
X144883497Y-105810263D01*
X144883492Y-105810262D01*
X144883489Y-105810261D01*
X144728845Y-105779500D01*
X144728842Y-105779500D01*
X144571158Y-105779500D01*
X144571155Y-105779500D01*
X144416510Y-105810261D01*
X144416498Y-105810264D01*
X144270827Y-105870602D01*
X144270814Y-105870609D01*
X144139711Y-105958210D01*
X144139707Y-105958213D01*
X144028213Y-106069707D01*
X144028210Y-106069711D01*
X143940609Y-106200814D01*
X143940602Y-106200827D01*
X143880264Y-106346498D01*
X143880261Y-106346510D01*
X143849500Y-106501153D01*
X143849500Y-106658846D01*
X143880261Y-106813489D01*
X143880264Y-106813501D01*
X143940602Y-106959172D01*
X143940609Y-106959185D01*
X144028602Y-107090874D01*
X144049480Y-107157551D01*
X144049500Y-107159765D01*
X144049500Y-116529902D01*
X144029815Y-116596941D01*
X144013181Y-116617583D01*
X143394255Y-117236508D01*
X143332932Y-117269993D01*
X143263240Y-117265009D01*
X143207307Y-117223137D01*
X143184957Y-117173018D01*
X143176499Y-117130499D01*
X143169737Y-117096503D01*
X143133320Y-117008583D01*
X143109397Y-116950827D01*
X143109390Y-116950814D01*
X143021789Y-116819711D01*
X143021786Y-116819707D01*
X142910292Y-116708213D01*
X142910288Y-116708210D01*
X142779185Y-116620609D01*
X142779172Y-116620602D01*
X142633501Y-116560264D01*
X142633489Y-116560261D01*
X142478845Y-116529500D01*
X142478842Y-116529500D01*
X142321158Y-116529500D01*
X142321150Y-116529500D01*
X142320174Y-116529596D01*
X142319668Y-116529500D01*
X142315066Y-116529500D01*
X142315066Y-116528626D01*
X142251530Y-116516566D01*
X142200827Y-116468494D01*
X142186422Y-116430382D01*
X142176499Y-116380499D01*
X142169737Y-116346503D01*
X142168974Y-116344660D01*
X142109397Y-116200827D01*
X142109390Y-116200814D01*
X142021789Y-116069711D01*
X142021786Y-116069707D01*
X141910292Y-115958213D01*
X141910288Y-115958210D01*
X141779185Y-115870609D01*
X141779172Y-115870602D01*
X141633501Y-115810264D01*
X141633491Y-115810261D01*
X141536463Y-115790961D01*
X141474552Y-115758576D01*
X141439978Y-115697860D01*
X141439038Y-115693535D01*
X141424531Y-115620606D01*
X141419737Y-115596503D01*
X141408759Y-115570000D01*
X141359397Y-115450827D01*
X141359390Y-115450814D01*
X141271789Y-115319711D01*
X141271786Y-115319707D01*
X141160292Y-115208213D01*
X141160288Y-115208210D01*
X141029185Y-115120609D01*
X141029172Y-115120602D01*
X140883501Y-115060264D01*
X140883489Y-115060261D01*
X140728845Y-115029500D01*
X140728842Y-115029500D01*
X140571158Y-115029500D01*
X140571155Y-115029500D01*
X140416510Y-115060261D01*
X140416498Y-115060264D01*
X140270827Y-115120602D01*
X140270814Y-115120609D01*
X140139711Y-115208210D01*
X140139707Y-115208213D01*
X140028213Y-115319707D01*
X140028210Y-115319711D01*
X139940609Y-115450814D01*
X139940602Y-115450827D01*
X139880264Y-115596498D01*
X139880261Y-115596510D01*
X139849500Y-115751153D01*
X139849500Y-115908846D01*
X139880261Y-116063489D01*
X139880264Y-116063501D01*
X139940602Y-116209172D01*
X139940609Y-116209185D01*
X140028602Y-116340874D01*
X140049480Y-116407551D01*
X140049500Y-116409765D01*
X140049500Y-122750234D01*
X140029815Y-122817273D01*
X140028602Y-122819125D01*
X139940609Y-122950814D01*
X139940602Y-122950827D01*
X139880264Y-123096498D01*
X139880261Y-123096510D01*
X139849500Y-123251153D01*
X139849500Y-123408846D01*
X139880261Y-123563489D01*
X139880264Y-123563501D01*
X139940602Y-123709172D01*
X139940609Y-123709185D01*
X140028210Y-123840288D01*
X140028213Y-123840292D01*
X140139707Y-123951786D01*
X140139711Y-123951789D01*
X140270814Y-124039390D01*
X140270827Y-124039397D01*
X140416498Y-124099735D01*
X140416503Y-124099737D01*
X140512367Y-124118805D01*
X140513535Y-124119038D01*
X140575446Y-124151422D01*
X140610020Y-124212138D01*
X140610961Y-124216463D01*
X140630261Y-124313491D01*
X140630264Y-124313501D01*
X140690602Y-124459172D01*
X140690609Y-124459185D01*
X140778210Y-124590288D01*
X140778213Y-124590292D01*
X140889707Y-124701786D01*
X140889711Y-124701789D01*
X141020814Y-124789390D01*
X141020827Y-124789397D01*
X141166498Y-124849735D01*
X141166503Y-124849737D01*
X141296982Y-124875691D01*
X141321153Y-124880499D01*
X141321156Y-124880500D01*
X141321158Y-124880500D01*
X141478844Y-124880500D01*
X141478845Y-124880499D01*
X141633497Y-124849737D01*
X141633509Y-124849731D01*
X141639324Y-124847969D01*
X141640158Y-124850720D01*
X141697359Y-124844497D01*
X141759878Y-124875691D01*
X141795608Y-124935734D01*
X141799500Y-124966555D01*
X141799500Y-125689902D01*
X141779815Y-125756941D01*
X141763181Y-125777583D01*
X141494842Y-126045922D01*
X141433519Y-126079407D01*
X141368843Y-126076172D01*
X141354534Y-126071523D01*
X141354528Y-126071522D01*
X141152352Y-126039500D01*
X140947648Y-126039500D01*
X140923329Y-126043351D01*
X140745465Y-126071522D01*
X140550776Y-126134781D01*
X140368386Y-126227715D01*
X140202786Y-126348028D01*
X140058028Y-126492786D01*
X139937715Y-126658386D01*
X139890485Y-126751080D01*
X139842510Y-126801876D01*
X139774689Y-126818671D01*
X139708554Y-126796134D01*
X139669515Y-126751080D01*
X139660752Y-126733882D01*
X139622287Y-126658390D01*
X139614556Y-126647749D01*
X139501971Y-126492786D01*
X139357213Y-126348028D01*
X139191610Y-126227712D01*
X139178200Y-126220879D01*
X139127406Y-126172903D01*
X139110500Y-126110397D01*
X139110500Y-124801297D01*
X139130185Y-124734258D01*
X139155836Y-124705443D01*
X139160279Y-124701795D01*
X139160289Y-124701789D01*
X139271789Y-124590289D01*
X139359394Y-124459179D01*
X139419737Y-124313497D01*
X139450500Y-124158842D01*
X139450500Y-124001158D01*
X139450500Y-124001155D01*
X139450499Y-124001153D01*
X139438147Y-123939058D01*
X139419737Y-123846503D01*
X139396911Y-123791395D01*
X139359397Y-123700827D01*
X139359390Y-123700814D01*
X139271789Y-123569711D01*
X139271786Y-123569707D01*
X139160292Y-123458213D01*
X139160288Y-123458210D01*
X139029185Y-123370609D01*
X139029172Y-123370602D01*
X138883501Y-123310264D01*
X138883491Y-123310261D01*
X138834374Y-123300491D01*
X138772463Y-123268106D01*
X138737889Y-123207389D01*
X138741630Y-123137620D01*
X138768296Y-123095304D01*
X138767924Y-123094999D01*
X138770357Y-123092033D01*
X138770891Y-123091186D01*
X138771789Y-123090289D01*
X138859394Y-122959179D01*
X138862854Y-122950827D01*
X138882999Y-122902190D01*
X138919737Y-122813497D01*
X138950500Y-122658842D01*
X138950500Y-122501158D01*
X138950500Y-122501155D01*
X138950499Y-122501153D01*
X138919738Y-122346510D01*
X138919737Y-122346503D01*
X138892398Y-122280500D01*
X138859397Y-122200827D01*
X138859390Y-122200814D01*
X138826398Y-122151438D01*
X138805520Y-122084760D01*
X138805500Y-122082547D01*
X138805500Y-117784689D01*
X138825185Y-117717650D01*
X138873205Y-117674204D01*
X138933257Y-117643607D01*
X139045418Y-117562118D01*
X139110193Y-117515057D01*
X139110195Y-117515054D01*
X139110199Y-117515052D01*
X139264852Y-117360399D01*
X139264854Y-117360395D01*
X139264857Y-117360393D01*
X139334156Y-117265009D01*
X139393407Y-117183457D01*
X139492701Y-116988583D01*
X139560286Y-116780575D01*
X139585623Y-116620606D01*
X139594500Y-116564561D01*
X139594500Y-116345838D01*
X139571683Y-116201786D01*
X139560286Y-116129825D01*
X139526493Y-116025821D01*
X139492702Y-115921819D01*
X139492701Y-115921816D01*
X139440673Y-115819707D01*
X139393407Y-115726943D01*
X139379799Y-115708213D01*
X139264857Y-115550006D01*
X139110193Y-115395342D01*
X138933258Y-115266793D01*
X138873204Y-115236193D01*
X138822408Y-115188218D01*
X138805500Y-115125709D01*
X138805500Y-112530648D01*
X140356500Y-112530648D01*
X140356500Y-112789351D01*
X140394623Y-113030050D01*
X140396968Y-113044854D01*
X140476909Y-113290885D01*
X140594353Y-113521382D01*
X140746408Y-113730668D01*
X140929332Y-113913592D01*
X141138618Y-114065647D01*
X141369115Y-114183091D01*
X141615146Y-114263032D01*
X141710961Y-114278207D01*
X141870649Y-114303500D01*
X141870654Y-114303500D01*
X142129351Y-114303500D01*
X142271294Y-114281017D01*
X142384854Y-114263032D01*
X142630885Y-114183091D01*
X142861382Y-114065647D01*
X143070668Y-113913592D01*
X143253592Y-113730668D01*
X143405647Y-113521382D01*
X143523091Y-113290885D01*
X143603032Y-113044854D01*
X143621017Y-112931294D01*
X143643500Y-112789351D01*
X143643500Y-112530648D01*
X143603032Y-112275149D01*
X143603032Y-112275146D01*
X143523091Y-112029115D01*
X143405647Y-111798618D01*
X143253592Y-111589332D01*
X143070668Y-111406408D01*
X142861382Y-111254353D01*
X142630885Y-111136909D01*
X142384854Y-111056968D01*
X142384852Y-111056967D01*
X142384850Y-111056967D01*
X142129351Y-111016500D01*
X142129346Y-111016500D01*
X141870654Y-111016500D01*
X141870649Y-111016500D01*
X141615149Y-111056967D01*
X141369112Y-111136910D01*
X141138617Y-111254353D01*
X140929329Y-111406410D01*
X140746410Y-111589329D01*
X140594353Y-111798617D01*
X140476910Y-112029112D01*
X140396967Y-112275149D01*
X140356500Y-112530648D01*
X138805500Y-112530648D01*
X138805500Y-105577451D01*
X138825185Y-105510412D01*
X138826398Y-105508560D01*
X138827650Y-105506686D01*
X138859394Y-105459179D01*
X138919737Y-105313497D01*
X138950500Y-105158842D01*
X138950500Y-105001158D01*
X138950500Y-105001155D01*
X138950499Y-105001153D01*
X138936474Y-104930644D01*
X138919737Y-104846503D01*
X138865111Y-104714623D01*
X138859397Y-104700827D01*
X138859390Y-104700814D01*
X138771789Y-104569711D01*
X138771786Y-104569707D01*
X138660292Y-104458213D01*
X138660288Y-104458210D01*
X138529185Y-104370609D01*
X138529172Y-104370602D01*
X138383501Y-104310264D01*
X138383489Y-104310261D01*
X138228845Y-104279500D01*
X138228842Y-104279500D01*
X138071158Y-104279500D01*
X138071155Y-104279500D01*
X137916510Y-104310261D01*
X137916498Y-104310264D01*
X137770827Y-104370602D01*
X137770814Y-104370609D01*
X137639711Y-104458210D01*
X137639707Y-104458213D01*
X137528213Y-104569707D01*
X137528210Y-104569711D01*
X137477602Y-104645451D01*
X137423989Y-104690256D01*
X137354664Y-104698963D01*
X137291637Y-104668808D01*
X137254918Y-104609365D01*
X137250500Y-104576560D01*
X137250500Y-102128033D01*
X137270185Y-102060994D01*
X137322989Y-102015239D01*
X137392147Y-102005295D01*
X137455703Y-102034320D01*
X137492431Y-102089715D01*
X137547297Y-102258580D01*
X137547298Y-102258583D01*
X137592969Y-102348215D01*
X137636402Y-102433457D01*
X137646595Y-102453460D01*
X137775142Y-102630393D01*
X137929806Y-102785057D01*
X138079211Y-102893604D01*
X138106743Y-102913607D01*
X138234132Y-102978515D01*
X138301616Y-103012901D01*
X138301619Y-103012902D01*
X138405621Y-103046693D01*
X138509625Y-103080486D01*
X138599369Y-103094700D01*
X138725639Y-103114700D01*
X138725644Y-103114700D01*
X138944361Y-103114700D01*
X139049082Y-103098112D01*
X139160375Y-103080486D01*
X139368383Y-103012901D01*
X139563257Y-102913607D01*
X139662601Y-102841429D01*
X139740193Y-102785057D01*
X139740195Y-102785054D01*
X139740199Y-102785052D01*
X139894852Y-102630399D01*
X139894854Y-102630395D01*
X139894857Y-102630393D01*
X139951229Y-102552801D01*
X140023407Y-102453457D01*
X140122701Y-102258583D01*
X140122703Y-102258577D01*
X140126609Y-102246557D01*
X140166046Y-102188881D01*
X140230404Y-102161682D01*
X140299250Y-102173596D01*
X140350727Y-102220840D01*
X140368489Y-102288414D01*
X140367013Y-102304272D01*
X140356500Y-102370648D01*
X140356500Y-102629351D01*
X140396967Y-102884850D01*
X140396968Y-102884854D01*
X140476909Y-103130885D01*
X140594353Y-103361382D01*
X140746408Y-103570668D01*
X140929332Y-103753592D01*
X141138618Y-103905647D01*
X141369115Y-104023091D01*
X141615146Y-104103032D01*
X141710961Y-104118207D01*
X141870649Y-104143500D01*
X141870654Y-104143500D01*
X142129351Y-104143500D01*
X142271294Y-104121017D01*
X142384854Y-104103032D01*
X142630885Y-104023091D01*
X142861382Y-103905647D01*
X143070668Y-103753592D01*
X143253592Y-103570668D01*
X143405647Y-103361382D01*
X143523091Y-103130885D01*
X143603032Y-102884854D01*
X143638794Y-102659060D01*
X143643500Y-102629351D01*
X143643500Y-102370648D01*
X143610402Y-102161682D01*
X143603032Y-102115146D01*
X143523091Y-101869115D01*
X143405647Y-101638618D01*
X143253592Y-101429332D01*
X143070668Y-101246408D01*
X142861382Y-101094353D01*
X142630885Y-100976909D01*
X142384854Y-100896968D01*
X142384852Y-100896967D01*
X142384850Y-100896967D01*
X142129351Y-100856500D01*
X142129346Y-100856500D01*
X141870654Y-100856500D01*
X141870649Y-100856500D01*
X141615149Y-100896967D01*
X141369112Y-100976910D01*
X141138617Y-101094353D01*
X140929329Y-101246410D01*
X140746410Y-101429329D01*
X140594353Y-101638617D01*
X140476908Y-101869114D01*
X140460642Y-101919176D01*
X140421204Y-101976851D01*
X140356845Y-102004048D01*
X140287998Y-101992132D01*
X140236523Y-101944887D01*
X140218763Y-101877313D01*
X140220237Y-101861465D01*
X140224500Y-101834556D01*
X140224500Y-101615844D01*
X140224500Y-101615838D01*
X140193221Y-101418359D01*
X140190286Y-101399825D01*
X140140439Y-101246410D01*
X140122702Y-101191819D01*
X140122701Y-101191816D01*
X140073040Y-101094353D01*
X140023407Y-100996943D01*
X139961815Y-100912168D01*
X139894857Y-100820006D01*
X139740193Y-100665342D01*
X139563260Y-100536795D01*
X139563259Y-100536794D01*
X139563257Y-100536793D01*
X139500825Y-100504982D01*
X139368383Y-100437498D01*
X139368380Y-100437497D01*
X139160376Y-100369914D01*
X138944361Y-100335700D01*
X138944356Y-100335700D01*
X138725644Y-100335700D01*
X138725639Y-100335700D01*
X138509623Y-100369914D01*
X138301619Y-100437497D01*
X138301616Y-100437498D01*
X138106739Y-100536795D01*
X137929806Y-100665342D01*
X137775142Y-100820006D01*
X137646595Y-100996939D01*
X137547298Y-101191816D01*
X137547297Y-101191819D01*
X137492431Y-101360684D01*
X137452994Y-101418359D01*
X137388635Y-101445558D01*
X137319789Y-101433644D01*
X137268313Y-101386400D01*
X137250500Y-101322366D01*
X137250500Y-97216991D01*
X137270185Y-97149952D01*
X137322989Y-97104197D01*
X137392147Y-97094253D01*
X137455703Y-97123278D01*
X137492431Y-97178673D01*
X137537761Y-97318188D01*
X137537762Y-97318191D01*
X137637020Y-97512993D01*
X137637021Y-97512995D01*
X137681806Y-97574638D01*
X137681807Y-97574638D01*
X138382861Y-96873584D01*
X138405667Y-96958694D01*
X138464910Y-97061306D01*
X138548694Y-97145090D01*
X138651306Y-97204333D01*
X138736414Y-97227137D01*
X138035360Y-97928191D01*
X138097008Y-97972980D01*
X138291808Y-98072237D01*
X138291811Y-98072238D01*
X138499740Y-98139797D01*
X138715684Y-98174000D01*
X138934316Y-98174000D01*
X139150259Y-98139797D01*
X139358188Y-98072238D01*
X139358191Y-98072237D01*
X139552995Y-97972978D01*
X139614638Y-97928191D01*
X139614639Y-97928191D01*
X138913585Y-97227138D01*
X138998694Y-97204333D01*
X139101306Y-97145090D01*
X139185090Y-97061306D01*
X139244333Y-96958694D01*
X139267137Y-96873585D01*
X139968191Y-97574639D01*
X139968191Y-97574638D01*
X140012978Y-97512995D01*
X140112237Y-97318191D01*
X140112238Y-97318188D01*
X140179797Y-97110259D01*
X140214000Y-96894316D01*
X140214000Y-96675683D01*
X140179797Y-96459740D01*
X140112238Y-96251811D01*
X140112237Y-96251808D01*
X140012980Y-96057008D01*
X139968191Y-95995360D01*
X139267137Y-96696414D01*
X139244333Y-96611306D01*
X139185090Y-96508694D01*
X139101306Y-96424910D01*
X138998694Y-96365667D01*
X138913583Y-96342861D01*
X139614638Y-95641807D01*
X139614638Y-95641806D01*
X139552995Y-95597021D01*
X139552993Y-95597020D01*
X139358191Y-95497762D01*
X139358188Y-95497761D01*
X139150259Y-95430202D01*
X138934316Y-95396000D01*
X138715684Y-95396000D01*
X138499740Y-95430202D01*
X138291811Y-95497761D01*
X138291808Y-95497762D01*
X138097001Y-95597023D01*
X138035360Y-95641806D01*
X138035360Y-95641807D01*
X138736414Y-96342861D01*
X138651306Y-96365667D01*
X138548694Y-96424910D01*
X138464910Y-96508694D01*
X138405667Y-96611306D01*
X138382861Y-96696414D01*
X137681807Y-95995360D01*
X137681806Y-95995360D01*
X137637023Y-96057001D01*
X137537762Y-96251808D01*
X137537761Y-96251811D01*
X137492431Y-96391326D01*
X137452994Y-96449001D01*
X137388635Y-96476200D01*
X137319789Y-96464285D01*
X137268313Y-96417041D01*
X137250500Y-96353008D01*
X137250500Y-82159765D01*
X137270185Y-82092726D01*
X137271398Y-82090874D01*
X137359390Y-81959185D01*
X137359390Y-81959184D01*
X137359394Y-81959179D01*
X137419737Y-81813497D01*
X137450500Y-81658842D01*
X137450500Y-81501158D01*
X137450500Y-81501155D01*
X137450499Y-81501153D01*
X137419738Y-81346510D01*
X137419737Y-81346503D01*
X137412901Y-81330000D01*
X137359397Y-81200827D01*
X137359390Y-81200814D01*
X137274849Y-81074290D01*
X137274848Y-81074288D01*
X137271789Y-81069711D01*
X137271786Y-81069707D01*
X137160292Y-80958213D01*
X137160288Y-80958210D01*
X137029185Y-80870609D01*
X137029172Y-80870602D01*
X136883501Y-80810264D01*
X136883489Y-80810261D01*
X136728845Y-80779500D01*
X136728842Y-80779500D01*
X136571158Y-80779500D01*
X136571155Y-80779500D01*
X136416510Y-80810261D01*
X136416498Y-80810264D01*
X136270827Y-80870602D01*
X136270814Y-80870609D01*
X136139711Y-80958210D01*
X136139707Y-80958213D01*
X136028213Y-81069707D01*
X136028210Y-81069711D01*
X135940609Y-81200814D01*
X135940602Y-81200827D01*
X135880264Y-81346498D01*
X135880261Y-81346510D01*
X135849500Y-81501153D01*
X135849500Y-81658846D01*
X135880261Y-81813489D01*
X135880264Y-81813501D01*
X135940602Y-81959172D01*
X135940609Y-81959185D01*
X136028602Y-82090874D01*
X136049480Y-82157551D01*
X136049500Y-82159765D01*
X136049500Y-106000234D01*
X136029815Y-106067273D01*
X136028602Y-106069125D01*
X135940609Y-106200814D01*
X135940602Y-106200827D01*
X135880264Y-106346498D01*
X135880261Y-106346510D01*
X135849500Y-106501153D01*
X135849500Y-106658846D01*
X135880261Y-106813489D01*
X135880264Y-106813501D01*
X135940602Y-106959172D01*
X135940609Y-106959185D01*
X136028210Y-107090288D01*
X136028213Y-107090292D01*
X136139707Y-107201786D01*
X136139711Y-107201789D01*
X136270814Y-107289390D01*
X136270827Y-107289397D01*
X136416498Y-107349735D01*
X136416503Y-107349737D01*
X136571153Y-107380499D01*
X136571156Y-107380500D01*
X136571158Y-107380500D01*
X136728844Y-107380500D01*
X136728845Y-107380499D01*
X136883497Y-107349737D01*
X137029179Y-107289394D01*
X137160289Y-107201789D01*
X137271789Y-107090289D01*
X137359394Y-106959179D01*
X137365939Y-106943379D01*
X137409779Y-106888975D01*
X137476073Y-106866910D01*
X137543773Y-106884189D01*
X137591384Y-106935326D01*
X137604500Y-106990831D01*
X137604500Y-115125709D01*
X137584815Y-115192748D01*
X137536796Y-115236193D01*
X137476741Y-115266793D01*
X137299806Y-115395342D01*
X137145146Y-115550002D01*
X137145142Y-115550007D01*
X137028052Y-115711169D01*
X136972722Y-115753835D01*
X136903109Y-115759814D01*
X136841314Y-115727208D01*
X136827420Y-115711175D01*
X136724852Y-115570001D01*
X136570199Y-115415348D01*
X136570193Y-115415342D01*
X136393260Y-115286795D01*
X136393259Y-115286794D01*
X136393257Y-115286793D01*
X136293950Y-115236193D01*
X136198383Y-115187498D01*
X136198380Y-115187497D01*
X135990376Y-115119914D01*
X135774361Y-115085700D01*
X135774356Y-115085700D01*
X135555644Y-115085700D01*
X135555639Y-115085700D01*
X135339623Y-115119914D01*
X135131619Y-115187497D01*
X135131616Y-115187498D01*
X134936739Y-115286795D01*
X134759806Y-115415342D01*
X134605146Y-115570002D01*
X134605142Y-115570007D01*
X134502273Y-115711595D01*
X134446943Y-115754261D01*
X134377330Y-115760240D01*
X134315535Y-115727634D01*
X134301636Y-115711594D01*
X134268191Y-115665560D01*
X133562647Y-116371104D01*
X133539208Y-116283629D01*
X133480689Y-116182270D01*
X133397930Y-116099511D01*
X133296571Y-116040992D01*
X133209092Y-116017552D01*
X133914638Y-115312007D01*
X133914638Y-115312006D01*
X133852995Y-115267221D01*
X133852993Y-115267220D01*
X133658191Y-115167962D01*
X133658188Y-115167961D01*
X133450259Y-115100402D01*
X133234316Y-115066200D01*
X133015684Y-115066200D01*
X132799740Y-115100402D01*
X132591811Y-115167961D01*
X132591808Y-115167962D01*
X132397001Y-115267223D01*
X132335360Y-115312006D01*
X132335360Y-115312007D01*
X133040905Y-116017552D01*
X132953429Y-116040992D01*
X132852070Y-116099511D01*
X132769311Y-116182270D01*
X132710792Y-116283629D01*
X132687352Y-116371105D01*
X131981807Y-115665560D01*
X131981806Y-115665560D01*
X131937023Y-115727201D01*
X131837762Y-115922008D01*
X131837761Y-115922011D01*
X131770202Y-116129940D01*
X131736000Y-116345883D01*
X131736000Y-116564516D01*
X131770202Y-116780459D01*
X131837761Y-116988388D01*
X131837762Y-116988391D01*
X131937020Y-117183193D01*
X131937021Y-117183195D01*
X131981806Y-117244838D01*
X131981807Y-117244838D01*
X132687352Y-116539293D01*
X132710792Y-116626771D01*
X132769311Y-116728130D01*
X132852070Y-116810889D01*
X132953429Y-116869408D01*
X133040905Y-116892847D01*
X132335360Y-117598391D01*
X132397008Y-117643180D01*
X132591808Y-117742437D01*
X132591811Y-117742438D01*
X132799740Y-117809997D01*
X133015684Y-117844200D01*
X133234316Y-117844200D01*
X133450259Y-117809997D01*
X133658188Y-117742438D01*
X133658191Y-117742437D01*
X133852995Y-117643178D01*
X133914638Y-117598391D01*
X133914639Y-117598391D01*
X133209094Y-116892847D01*
X133296571Y-116869408D01*
X133397930Y-116810889D01*
X133480689Y-116728130D01*
X133539208Y-116626771D01*
X133562647Y-116539295D01*
X134268191Y-117244839D01*
X134268192Y-117244838D01*
X134287107Y-117218805D01*
X134342437Y-117176139D01*
X134412050Y-117170160D01*
X134473845Y-117202766D01*
X134487743Y-117218805D01*
X134605142Y-117380392D01*
X134605146Y-117380397D01*
X134759806Y-117535057D01*
X134925374Y-117655347D01*
X134936743Y-117663607D01*
X135042808Y-117717650D01*
X135131616Y-117762901D01*
X135131619Y-117762902D01*
X135182704Y-117779500D01*
X135339625Y-117830486D01*
X135426212Y-117844200D01*
X135555639Y-117864700D01*
X135555644Y-117864700D01*
X135774361Y-117864700D01*
X135879082Y-117848112D01*
X135990375Y-117830486D01*
X136198383Y-117762901D01*
X136393257Y-117663607D01*
X136494173Y-117590288D01*
X136570193Y-117535057D01*
X136570195Y-117535054D01*
X136570199Y-117535052D01*
X136724852Y-117380399D01*
X136841949Y-117219227D01*
X136897276Y-117176564D01*
X136966889Y-117170585D01*
X137028684Y-117203190D01*
X137042580Y-117219225D01*
X137093560Y-117289394D01*
X137145148Y-117360399D01*
X137299806Y-117515057D01*
X137475691Y-117642843D01*
X137476743Y-117643607D01*
X137536794Y-117674204D01*
X137587591Y-117722178D01*
X137604500Y-117784689D01*
X137604500Y-121942059D01*
X137584815Y-122009098D01*
X137568181Y-122029740D01*
X137528213Y-122069707D01*
X137528210Y-122069711D01*
X137440609Y-122200814D01*
X137440602Y-122200827D01*
X137380264Y-122346498D01*
X137380261Y-122346510D01*
X137349500Y-122501153D01*
X137349500Y-122658846D01*
X137380261Y-122813489D01*
X137380264Y-122813501D01*
X137440602Y-122959172D01*
X137440609Y-122959185D01*
X137528210Y-123090288D01*
X137528213Y-123090292D01*
X137639707Y-123201786D01*
X137639711Y-123201789D01*
X137770814Y-123289390D01*
X137770827Y-123289397D01*
X137892952Y-123339982D01*
X137916503Y-123349737D01*
X137941846Y-123354778D01*
X137965624Y-123359508D01*
X138027535Y-123391892D01*
X138062109Y-123452608D01*
X138058370Y-123522377D01*
X138031706Y-123564697D01*
X138032076Y-123565001D01*
X138029661Y-123567942D01*
X138029123Y-123568798D01*
X138028212Y-123569708D01*
X138028210Y-123569711D01*
X137940609Y-123700814D01*
X137940602Y-123700827D01*
X137880264Y-123846498D01*
X137880261Y-123846510D01*
X137849500Y-124001153D01*
X137849500Y-124158846D01*
X137880261Y-124313489D01*
X137880263Y-124313497D01*
X137900061Y-124361293D01*
X137909500Y-124408746D01*
X137909500Y-126110397D01*
X137889815Y-126177436D01*
X137841800Y-126220879D01*
X137828389Y-126227712D01*
X137662786Y-126348028D01*
X137518028Y-126492786D01*
X137397715Y-126658386D01*
X137350485Y-126751080D01*
X137302510Y-126801876D01*
X137234689Y-126818671D01*
X137168554Y-126796134D01*
X137129515Y-126751080D01*
X137120752Y-126733882D01*
X137082287Y-126658390D01*
X137074556Y-126647749D01*
X136961971Y-126492786D01*
X136817213Y-126348028D01*
X136651610Y-126227712D01*
X136638200Y-126220879D01*
X136587406Y-126172903D01*
X136570500Y-126110397D01*
X136570500Y-123805002D01*
X136590185Y-123737963D01*
X136591398Y-123736111D01*
X136609394Y-123709179D01*
X136669737Y-123563497D01*
X136700500Y-123408842D01*
X136700500Y-123251158D01*
X136700500Y-123251155D01*
X136700499Y-123251153D01*
X136690486Y-123200814D01*
X136669737Y-123096503D01*
X136669114Y-123094999D01*
X136609397Y-122950827D01*
X136609390Y-122950814D01*
X136521789Y-122819711D01*
X136521786Y-122819707D01*
X136410292Y-122708213D01*
X136410288Y-122708210D01*
X136279185Y-122620609D01*
X136279172Y-122620602D01*
X136133501Y-122560264D01*
X136133489Y-122560261D01*
X135978845Y-122529500D01*
X135978842Y-122529500D01*
X135821158Y-122529500D01*
X135821155Y-122529500D01*
X135666510Y-122560261D01*
X135666498Y-122560264D01*
X135520827Y-122620602D01*
X135520814Y-122620609D01*
X135389711Y-122708210D01*
X135389707Y-122708213D01*
X135278213Y-122819707D01*
X135278210Y-122819711D01*
X135190609Y-122950814D01*
X135190602Y-122950827D01*
X135130264Y-123096498D01*
X135130261Y-123096510D01*
X135099500Y-123251153D01*
X135099500Y-123408846D01*
X135130261Y-123563489D01*
X135130264Y-123563501D01*
X135190602Y-123709172D01*
X135190609Y-123709185D01*
X135278209Y-123840287D01*
X135278210Y-123840288D01*
X135278211Y-123840289D01*
X135333182Y-123895260D01*
X135366666Y-123956581D01*
X135369500Y-123982940D01*
X135369500Y-126110397D01*
X135349815Y-126177436D01*
X135301800Y-126220879D01*
X135288389Y-126227712D01*
X135122786Y-126348028D01*
X134978028Y-126492786D01*
X134857715Y-126658386D01*
X134810485Y-126751080D01*
X134762510Y-126801876D01*
X134694689Y-126818671D01*
X134628554Y-126796134D01*
X134589515Y-126751080D01*
X134580752Y-126733882D01*
X134542287Y-126658390D01*
X134534556Y-126647749D01*
X134421971Y-126492786D01*
X134277213Y-126348028D01*
X134111610Y-126227712D01*
X134098200Y-126220879D01*
X134047406Y-126172903D01*
X134030500Y-126110397D01*
X134030500Y-123949060D01*
X134030501Y-123949047D01*
X134030501Y-123780945D01*
X134030501Y-123780943D01*
X133989577Y-123628215D01*
X133967112Y-123589304D01*
X133950500Y-123527305D01*
X133950500Y-123501155D01*
X133950499Y-123501153D01*
X133928765Y-123391892D01*
X133919737Y-123346503D01*
X133917036Y-123339982D01*
X133859397Y-123200827D01*
X133859390Y-123200814D01*
X133771789Y-123069711D01*
X133771786Y-123069707D01*
X133660292Y-122958213D01*
X133660288Y-122958210D01*
X133529185Y-122870609D01*
X133529172Y-122870602D01*
X133383501Y-122810264D01*
X133383489Y-122810261D01*
X133228845Y-122779500D01*
X133228842Y-122779500D01*
X133071158Y-122779500D01*
X133071155Y-122779500D01*
X132916510Y-122810261D01*
X132916498Y-122810264D01*
X132770827Y-122870602D01*
X132770814Y-122870609D01*
X132639711Y-122958210D01*
X132639707Y-122958213D01*
X132528213Y-123069707D01*
X132528210Y-123069711D01*
X132440609Y-123200814D01*
X132440602Y-123200827D01*
X132380264Y-123346498D01*
X132380261Y-123346510D01*
X132349500Y-123501153D01*
X132349500Y-123658846D01*
X132380261Y-123813489D01*
X132380264Y-123813501D01*
X132440602Y-123959172D01*
X132440609Y-123959185D01*
X132528210Y-124090288D01*
X132528213Y-124090292D01*
X132639707Y-124201786D01*
X132639715Y-124201792D01*
X132774390Y-124291779D01*
X132819196Y-124345391D01*
X132829500Y-124394881D01*
X132829500Y-126110397D01*
X132809815Y-126177436D01*
X132761800Y-126220879D01*
X132748389Y-126227712D01*
X132582786Y-126348028D01*
X132438028Y-126492786D01*
X132317715Y-126658386D01*
X132270485Y-126751080D01*
X132222510Y-126801876D01*
X132154689Y-126818671D01*
X132088554Y-126796134D01*
X132049515Y-126751080D01*
X132040752Y-126733882D01*
X132002287Y-126658390D01*
X131994556Y-126647749D01*
X131881971Y-126492786D01*
X131737213Y-126348028D01*
X131571610Y-126227712D01*
X131558200Y-126220879D01*
X131507406Y-126172903D01*
X131490500Y-126110397D01*
X131490500Y-119381517D01*
X131510185Y-119314478D01*
X131545606Y-119278417D01*
X131660289Y-119201789D01*
X131771789Y-119090289D01*
X131859394Y-118959179D01*
X131919737Y-118813497D01*
X131950500Y-118658842D01*
X131950500Y-118501158D01*
X131950500Y-118501155D01*
X131950499Y-118501153D01*
X131930751Y-118401876D01*
X131919737Y-118346503D01*
X131888736Y-118271659D01*
X131859397Y-118200827D01*
X131859390Y-118200814D01*
X131771789Y-118069711D01*
X131771786Y-118069707D01*
X131660292Y-117958213D01*
X131660288Y-117958210D01*
X131529185Y-117870609D01*
X131529172Y-117870602D01*
X131383501Y-117810264D01*
X131383489Y-117810261D01*
X131228845Y-117779500D01*
X131228842Y-117779500D01*
X131071158Y-117779500D01*
X131071155Y-117779500D01*
X130916510Y-117810261D01*
X130916498Y-117810264D01*
X130770827Y-117870602D01*
X130770814Y-117870609D01*
X130639711Y-117958210D01*
X130639707Y-117958213D01*
X130528213Y-118069707D01*
X130528210Y-118069711D01*
X130440609Y-118200814D01*
X130440602Y-118200827D01*
X130380264Y-118346498D01*
X130380261Y-118346510D01*
X130349500Y-118501153D01*
X130349500Y-118541946D01*
X130332888Y-118603945D01*
X130330424Y-118608212D01*
X130330423Y-118608214D01*
X130330423Y-118608215D01*
X130289499Y-118760943D01*
X130289499Y-118760945D01*
X130289499Y-118929046D01*
X130289500Y-118929059D01*
X130289500Y-126110397D01*
X130269815Y-126177436D01*
X130221800Y-126220879D01*
X130208389Y-126227712D01*
X130042786Y-126348028D01*
X129898028Y-126492786D01*
X129777715Y-126658386D01*
X129730485Y-126751080D01*
X129682510Y-126801876D01*
X129614689Y-126818671D01*
X129548554Y-126796134D01*
X129509515Y-126751080D01*
X129500752Y-126733882D01*
X129462287Y-126658390D01*
X129454556Y-126647749D01*
X129341971Y-126492786D01*
X129197213Y-126348028D01*
X129031613Y-126227715D01*
X129031612Y-126227714D01*
X129031610Y-126227713D01*
X128974653Y-126198691D01*
X128849223Y-126134781D01*
X128654534Y-126071522D01*
X128479995Y-126043878D01*
X128452352Y-126039500D01*
X128247648Y-126039500D01*
X128223329Y-126043351D01*
X128045465Y-126071522D01*
X127850776Y-126134781D01*
X127668386Y-126227715D01*
X127502786Y-126348028D01*
X127358028Y-126492786D01*
X127237715Y-126658386D01*
X127190485Y-126751080D01*
X127142510Y-126801876D01*
X127074689Y-126818671D01*
X127008554Y-126796134D01*
X126969515Y-126751080D01*
X126960752Y-126733882D01*
X126922287Y-126658390D01*
X126914556Y-126647749D01*
X126801971Y-126492786D01*
X126657213Y-126348028D01*
X126491610Y-126227712D01*
X126478200Y-126220879D01*
X126427406Y-126172903D01*
X126410500Y-126110397D01*
X126410500Y-122720096D01*
X126430185Y-122653057D01*
X126446815Y-122632419D01*
X127008506Y-122070727D01*
X127008511Y-122070724D01*
X127018714Y-122060520D01*
X127018716Y-122060520D01*
X127130520Y-121948716D01*
X127209577Y-121811784D01*
X127250500Y-121659057D01*
X127250500Y-117500943D01*
X127219134Y-117383884D01*
X127209577Y-117348215D01*
X127175616Y-117289394D01*
X127175615Y-117289392D01*
X127137363Y-117223137D01*
X127130520Y-117211284D01*
X127018716Y-117099480D01*
X127018715Y-117099479D01*
X127014385Y-117095149D01*
X127014374Y-117095139D01*
X125286819Y-115367584D01*
X125253334Y-115306261D01*
X125250500Y-115279903D01*
X125250500Y-110748112D01*
X125270185Y-110681073D01*
X125322989Y-110635318D01*
X125392147Y-110625374D01*
X125455703Y-110654399D01*
X125484985Y-110691817D01*
X125557020Y-110833193D01*
X125557021Y-110833195D01*
X125601806Y-110894838D01*
X125601807Y-110894838D01*
X126307352Y-110189293D01*
X126330792Y-110276771D01*
X126389311Y-110378130D01*
X126472070Y-110460889D01*
X126573429Y-110519408D01*
X126660905Y-110542847D01*
X125955360Y-111248391D01*
X126017008Y-111293180D01*
X126211808Y-111392437D01*
X126211811Y-111392438D01*
X126419740Y-111459997D01*
X126635684Y-111494200D01*
X126854316Y-111494200D01*
X127070259Y-111459997D01*
X127278188Y-111392438D01*
X127278191Y-111392437D01*
X127472995Y-111293178D01*
X127534638Y-111248391D01*
X127534639Y-111248391D01*
X126829094Y-110542847D01*
X126916571Y-110519408D01*
X127017930Y-110460889D01*
X127100689Y-110378130D01*
X127159208Y-110276771D01*
X127182647Y-110189295D01*
X127888191Y-110894839D01*
X127888191Y-110894838D01*
X127932978Y-110833195D01*
X128032237Y-110638391D01*
X128032238Y-110638388D01*
X128099797Y-110430459D01*
X128134000Y-110214516D01*
X128134000Y-109995883D01*
X128099797Y-109779940D01*
X128032238Y-109572011D01*
X128032237Y-109572008D01*
X127932980Y-109377208D01*
X127888191Y-109315560D01*
X127182647Y-110021104D01*
X127159208Y-109933629D01*
X127100689Y-109832270D01*
X127017930Y-109749511D01*
X126916571Y-109690992D01*
X126829093Y-109667552D01*
X127534638Y-108962007D01*
X127534638Y-108962006D01*
X127498606Y-108935828D01*
X127455939Y-108880499D01*
X127449959Y-108810885D01*
X127482565Y-108749090D01*
X127498599Y-108735194D01*
X127650199Y-108625052D01*
X127804852Y-108470399D01*
X127804854Y-108470395D01*
X127804857Y-108470393D01*
X127861229Y-108392801D01*
X127933407Y-108293457D01*
X128032701Y-108098583D01*
X128100286Y-107890575D01*
X128117912Y-107779282D01*
X128134500Y-107674561D01*
X128134500Y-107455838D01*
X128108136Y-107289390D01*
X128100286Y-107239825D01*
X128051890Y-107090874D01*
X128032702Y-107031819D01*
X128032701Y-107031816D01*
X127983536Y-106935326D01*
X127933407Y-106836943D01*
X127916367Y-106813489D01*
X127804857Y-106660006D01*
X127650193Y-106505342D01*
X127516716Y-106408367D01*
X127474050Y-106353038D01*
X127468071Y-106283424D01*
X127500676Y-106221629D01*
X127516716Y-106207731D01*
X127665193Y-106099857D01*
X127665195Y-106099854D01*
X127665199Y-106099852D01*
X127819852Y-105945199D01*
X127819854Y-105945195D01*
X127819857Y-105945193D01*
X127876229Y-105867601D01*
X127948407Y-105768257D01*
X128047701Y-105573383D01*
X128115286Y-105365375D01*
X128132912Y-105254082D01*
X128149500Y-105149361D01*
X128149500Y-104930638D01*
X128129595Y-104804971D01*
X128115286Y-104714625D01*
X128047701Y-104506617D01*
X128047701Y-104506616D01*
X128013315Y-104439132D01*
X127948407Y-104311743D01*
X127924981Y-104279500D01*
X127819857Y-104134806D01*
X127665193Y-103980142D01*
X127488258Y-103851593D01*
X127428204Y-103820993D01*
X127377408Y-103773018D01*
X127360500Y-103710509D01*
X127360500Y-102385848D01*
X127656500Y-102385848D01*
X127656500Y-102644551D01*
X127695946Y-102893604D01*
X127696968Y-102900054D01*
X127776909Y-103146085D01*
X127894353Y-103376582D01*
X128046408Y-103585868D01*
X128229332Y-103768792D01*
X128438618Y-103920847D01*
X128669115Y-104038291D01*
X128915146Y-104118232D01*
X129010961Y-104133407D01*
X129170649Y-104158700D01*
X129170654Y-104158700D01*
X129429351Y-104158700D01*
X129571294Y-104136217D01*
X129684854Y-104118232D01*
X129930885Y-104038291D01*
X130161382Y-103920847D01*
X130370668Y-103768792D01*
X130553592Y-103585868D01*
X130705647Y-103376582D01*
X130815015Y-103161934D01*
X130862990Y-103111139D01*
X130930811Y-103094344D01*
X130996945Y-103116881D01*
X131040397Y-103171596D01*
X131049500Y-103218230D01*
X131049500Y-111942169D01*
X131029815Y-112009208D01*
X130977011Y-112054963D01*
X130907853Y-112064907D01*
X130844297Y-112035882D01*
X130815015Y-111998464D01*
X130705646Y-111783817D01*
X130553592Y-111574532D01*
X130370668Y-111391608D01*
X130161382Y-111239553D01*
X129930885Y-111122109D01*
X129684854Y-111042168D01*
X129684852Y-111042167D01*
X129684850Y-111042167D01*
X129429351Y-111001700D01*
X129429346Y-111001700D01*
X129170654Y-111001700D01*
X129170649Y-111001700D01*
X128915149Y-111042167D01*
X128669112Y-111122110D01*
X128438617Y-111239553D01*
X128229329Y-111391610D01*
X128046410Y-111574529D01*
X127894353Y-111783817D01*
X127776910Y-112014312D01*
X127696967Y-112260349D01*
X127656500Y-112515848D01*
X127656500Y-112774551D01*
X127696967Y-113030050D01*
X127696968Y-113030054D01*
X127776909Y-113276085D01*
X127894353Y-113506582D01*
X128046408Y-113715868D01*
X128229332Y-113898792D01*
X128438618Y-114050847D01*
X128669115Y-114168291D01*
X128915146Y-114248232D01*
X129005838Y-114262596D01*
X129170649Y-114288700D01*
X129170654Y-114288700D01*
X129429351Y-114288700D01*
X129591409Y-114263032D01*
X129684854Y-114248232D01*
X129930885Y-114168291D01*
X130161382Y-114050847D01*
X130370668Y-113898792D01*
X130553592Y-113715868D01*
X130705647Y-113506582D01*
X130815015Y-113291934D01*
X130862990Y-113241139D01*
X130930811Y-113224344D01*
X130996945Y-113246881D01*
X131040397Y-113301596D01*
X131049500Y-113348230D01*
X131049500Y-114279902D01*
X131029815Y-114346941D01*
X131013181Y-114367583D01*
X130281284Y-115099481D01*
X129885339Y-115495425D01*
X129824016Y-115528910D01*
X129821850Y-115529361D01*
X129666508Y-115560261D01*
X129666498Y-115560264D01*
X129520827Y-115620602D01*
X129520814Y-115620609D01*
X129389711Y-115708210D01*
X129389707Y-115708213D01*
X129278213Y-115819707D01*
X129278210Y-115819711D01*
X129190609Y-115950814D01*
X129190602Y-115950827D01*
X129130264Y-116096498D01*
X129130261Y-116096510D01*
X129099500Y-116251153D01*
X129099500Y-116408846D01*
X129130261Y-116563489D01*
X129130264Y-116563501D01*
X129190602Y-116709172D01*
X129190609Y-116709185D01*
X129278210Y-116840288D01*
X129278213Y-116840292D01*
X129389707Y-116951786D01*
X129389711Y-116951789D01*
X129520814Y-117039390D01*
X129520827Y-117039397D01*
X129666498Y-117099735D01*
X129666503Y-117099737D01*
X129820680Y-117130405D01*
X129821153Y-117130499D01*
X129821156Y-117130500D01*
X129821158Y-117130500D01*
X129978844Y-117130500D01*
X129978845Y-117130499D01*
X130133497Y-117099737D01*
X130279179Y-117039394D01*
X130410289Y-116951789D01*
X130521789Y-116840289D01*
X130609394Y-116709179D01*
X130669737Y-116563497D01*
X130694006Y-116441489D01*
X130700638Y-116408150D01*
X130709402Y-116391393D01*
X130713423Y-116372914D01*
X130732167Y-116347875D01*
X130733023Y-116346239D01*
X130734518Y-116344716D01*
X131130519Y-115948716D01*
X131189078Y-115890157D01*
X131189089Y-115890144D01*
X132130520Y-114948716D01*
X132209577Y-114811784D01*
X132250501Y-114659057D01*
X132250501Y-114500942D01*
X132250501Y-114493347D01*
X132250500Y-114493329D01*
X132250500Y-103218700D01*
X132270185Y-103151661D01*
X132322989Y-103105906D01*
X132374500Y-103094700D01*
X132584361Y-103094700D01*
X132699500Y-103076463D01*
X132800375Y-103060486D01*
X133008383Y-102992901D01*
X133203257Y-102893607D01*
X133302601Y-102821429D01*
X133380193Y-102765057D01*
X133380195Y-102765054D01*
X133380199Y-102765052D01*
X133534852Y-102610399D01*
X133534854Y-102610395D01*
X133534857Y-102610393D01*
X133614376Y-102500943D01*
X133663407Y-102433457D01*
X133762701Y-102238583D01*
X133830286Y-102030575D01*
X133847930Y-101919176D01*
X133864500Y-101814561D01*
X133864500Y-101595838D01*
X133840697Y-101445558D01*
X133830286Y-101379825D01*
X133791876Y-101261610D01*
X133762702Y-101171819D01*
X133762701Y-101171816D01*
X133723231Y-101094353D01*
X133663407Y-100976943D01*
X133616345Y-100912167D01*
X133534857Y-100800006D01*
X133380193Y-100645342D01*
X133203260Y-100516795D01*
X133203259Y-100516794D01*
X133203257Y-100516793D01*
X133140825Y-100484982D01*
X133008383Y-100417498D01*
X133008380Y-100417497D01*
X132800376Y-100349914D01*
X132584361Y-100315700D01*
X132584356Y-100315700D01*
X132365644Y-100315700D01*
X132365639Y-100315700D01*
X132149623Y-100349914D01*
X131941619Y-100417497D01*
X131941616Y-100417498D01*
X131746739Y-100516795D01*
X131569806Y-100645342D01*
X131415142Y-100800006D01*
X131286595Y-100976939D01*
X131187298Y-101171816D01*
X131187297Y-101171819D01*
X131119714Y-101379823D01*
X131085500Y-101595838D01*
X131085500Y-101814561D01*
X131110148Y-101970184D01*
X131101193Y-102039478D01*
X131056197Y-102092930D01*
X130989446Y-102113569D01*
X130922132Y-102094844D01*
X130875628Y-102042699D01*
X130869749Y-102027913D01*
X130823091Y-101884315D01*
X130705647Y-101653818D01*
X130553592Y-101444532D01*
X130370668Y-101261608D01*
X130161382Y-101109553D01*
X129930885Y-100992109D01*
X129684854Y-100912168D01*
X129684852Y-100912167D01*
X129684850Y-100912167D01*
X129429351Y-100871700D01*
X129429346Y-100871700D01*
X129170654Y-100871700D01*
X129170649Y-100871700D01*
X128915149Y-100912167D01*
X128669112Y-100992110D01*
X128438617Y-101109553D01*
X128229329Y-101261610D01*
X128046410Y-101444529D01*
X127894353Y-101653817D01*
X127776910Y-101884312D01*
X127696967Y-102130349D01*
X127656500Y-102385848D01*
X127360500Y-102385848D01*
X127360500Y-96655883D01*
X131086000Y-96655883D01*
X131086000Y-96874516D01*
X131120202Y-97090459D01*
X131187761Y-97298388D01*
X131187762Y-97298391D01*
X131287020Y-97493193D01*
X131287021Y-97493195D01*
X131331806Y-97554838D01*
X131331807Y-97554838D01*
X132032861Y-96853784D01*
X132055667Y-96938894D01*
X132114910Y-97041506D01*
X132198694Y-97125290D01*
X132301306Y-97184533D01*
X132386414Y-97207337D01*
X131685360Y-97908391D01*
X131747008Y-97953180D01*
X131941808Y-98052437D01*
X131941811Y-98052438D01*
X132149740Y-98119997D01*
X132365684Y-98154200D01*
X132584316Y-98154200D01*
X132800259Y-98119997D01*
X133008188Y-98052438D01*
X133008191Y-98052437D01*
X133202995Y-97953178D01*
X133264638Y-97908391D01*
X133264639Y-97908391D01*
X132563585Y-97207338D01*
X132648694Y-97184533D01*
X132751306Y-97125290D01*
X132835090Y-97041506D01*
X132894333Y-96938894D01*
X132917137Y-96853785D01*
X133618191Y-97554839D01*
X133618191Y-97554838D01*
X133662978Y-97493195D01*
X133762237Y-97298391D01*
X133762238Y-97298388D01*
X133829797Y-97090459D01*
X133864000Y-96874516D01*
X133864000Y-96655883D01*
X133829797Y-96439940D01*
X133762238Y-96232011D01*
X133762237Y-96232008D01*
X133662980Y-96037208D01*
X133618191Y-95975560D01*
X132917137Y-96676614D01*
X132894333Y-96591506D01*
X132835090Y-96488894D01*
X132751306Y-96405110D01*
X132648694Y-96345867D01*
X132563583Y-96323061D01*
X133264638Y-95622007D01*
X133264638Y-95622006D01*
X133202995Y-95577221D01*
X133202993Y-95577220D01*
X133008191Y-95477962D01*
X133008188Y-95477961D01*
X132800259Y-95410402D01*
X132584316Y-95376200D01*
X132365684Y-95376200D01*
X132149740Y-95410402D01*
X131941811Y-95477961D01*
X131941808Y-95477962D01*
X131747001Y-95577223D01*
X131685360Y-95622006D01*
X131685360Y-95622007D01*
X132386414Y-96323061D01*
X132301306Y-96345867D01*
X132198694Y-96405110D01*
X132114910Y-96488894D01*
X132055667Y-96591506D01*
X132032861Y-96676614D01*
X131331807Y-95975560D01*
X131331806Y-95975560D01*
X131287023Y-96037201D01*
X131187762Y-96232008D01*
X131187761Y-96232011D01*
X131120202Y-96439940D01*
X131086000Y-96655883D01*
X127360500Y-96655883D01*
X127360500Y-93770097D01*
X127380185Y-93703058D01*
X127396819Y-93682416D01*
X127530178Y-93549057D01*
X127664662Y-93414572D01*
X127725983Y-93381089D01*
X127728150Y-93380638D01*
X127786085Y-93369113D01*
X127883497Y-93349737D01*
X128029179Y-93289394D01*
X128160289Y-93201789D01*
X128271789Y-93090289D01*
X128359394Y-92959179D01*
X128419737Y-92813497D01*
X128450500Y-92658842D01*
X128450500Y-92501158D01*
X128450500Y-92501155D01*
X128450499Y-92501153D01*
X128419738Y-92346510D01*
X128419738Y-92346508D01*
X128419737Y-92346503D01*
X128419735Y-92346498D01*
X128359397Y-92200827D01*
X128359390Y-92200814D01*
X128271789Y-92069711D01*
X128271786Y-92069707D01*
X128160292Y-91958213D01*
X128160288Y-91958210D01*
X128029185Y-91870609D01*
X128029172Y-91870602D01*
X127883501Y-91810264D01*
X127883489Y-91810261D01*
X127728845Y-91779500D01*
X127728842Y-91779500D01*
X127571158Y-91779500D01*
X127571155Y-91779500D01*
X127416510Y-91810261D01*
X127416498Y-91810264D01*
X127270827Y-91870602D01*
X127270814Y-91870609D01*
X127139711Y-91958210D01*
X127139707Y-91958213D01*
X127028213Y-92069707D01*
X127028210Y-92069711D01*
X126940609Y-92200814D01*
X126940602Y-92200827D01*
X126880264Y-92346498D01*
X126880261Y-92346508D01*
X126849361Y-92501850D01*
X126816976Y-92563761D01*
X126815425Y-92565339D01*
X126279481Y-93101282D01*
X126279477Y-93101287D01*
X126257373Y-93139575D01*
X126257372Y-93139577D01*
X126200423Y-93238215D01*
X126159499Y-93390943D01*
X126159499Y-93390945D01*
X126159499Y-93559046D01*
X126159500Y-93559059D01*
X126159500Y-103710509D01*
X126139815Y-103777548D01*
X126091796Y-103820993D01*
X126031741Y-103851593D01*
X125854806Y-103980142D01*
X125700142Y-104134806D01*
X125571595Y-104311739D01*
X125472298Y-104506616D01*
X125472297Y-104506619D01*
X125404714Y-104714623D01*
X125370500Y-104930638D01*
X125370500Y-105149361D01*
X125404714Y-105365376D01*
X125472297Y-105573380D01*
X125472298Y-105573383D01*
X125571595Y-105768260D01*
X125700142Y-105945193D01*
X125700148Y-105945199D01*
X125854801Y-106099852D01*
X125988284Y-106196832D01*
X126030949Y-106252161D01*
X126036928Y-106321774D01*
X126004323Y-106383570D01*
X125988284Y-106397468D01*
X125839802Y-106505346D01*
X125685142Y-106660006D01*
X125556595Y-106836939D01*
X125457298Y-107031816D01*
X125457297Y-107031819D01*
X125389714Y-107239823D01*
X125355500Y-107455838D01*
X125355500Y-107674561D01*
X125389714Y-107890578D01*
X125410540Y-107954675D01*
X125412535Y-108024516D01*
X125380290Y-108080673D01*
X124281286Y-109179678D01*
X124169481Y-109291482D01*
X124169479Y-109291485D01*
X124119361Y-109378294D01*
X124119359Y-109378296D01*
X124090425Y-109428409D01*
X124090424Y-109428410D01*
X124090423Y-109428415D01*
X124049499Y-109581143D01*
X124049499Y-109581145D01*
X124049499Y-109749246D01*
X124049500Y-109749259D01*
X124049500Y-115493330D01*
X124049499Y-115493348D01*
X124049499Y-115659054D01*
X124049498Y-115659054D01*
X124090424Y-115811789D01*
X124090425Y-115811790D01*
X124114101Y-115852797D01*
X124114102Y-115852799D01*
X124169475Y-115948709D01*
X124169481Y-115948717D01*
X124288349Y-116067585D01*
X124288355Y-116067590D01*
X126013181Y-117792416D01*
X126046666Y-117853739D01*
X126049500Y-117880097D01*
X126049500Y-119047071D01*
X126029815Y-119114110D01*
X125977011Y-119159865D01*
X125907853Y-119169809D01*
X125844297Y-119140784D01*
X125806523Y-119082006D01*
X125804609Y-119074664D01*
X125749046Y-118831228D01*
X125749042Y-118831216D01*
X125688726Y-118658844D01*
X125648868Y-118544935D01*
X125517265Y-118271659D01*
X125355892Y-118014836D01*
X125166779Y-117777696D01*
X124952304Y-117563221D01*
X124916987Y-117535057D01*
X124821847Y-117459185D01*
X124715164Y-117374108D01*
X124509433Y-117244838D01*
X124458338Y-117212733D01*
X124185068Y-117081133D01*
X123898783Y-116980957D01*
X123898771Y-116980953D01*
X123670556Y-116928864D01*
X123603063Y-116913460D01*
X123603060Y-116913459D01*
X123603048Y-116913457D01*
X123301663Y-116879500D01*
X123301657Y-116879500D01*
X122998343Y-116879500D01*
X122998336Y-116879500D01*
X122696951Y-116913457D01*
X122696937Y-116913460D01*
X122401228Y-116980953D01*
X122401216Y-116980957D01*
X122114931Y-117081133D01*
X121841661Y-117212733D01*
X121584837Y-117374107D01*
X121347696Y-117563220D01*
X121133220Y-117777696D01*
X120944107Y-118014837D01*
X120782733Y-118271661D01*
X120651133Y-118544931D01*
X120550957Y-118831216D01*
X120550953Y-118831228D01*
X120495391Y-119074664D01*
X120461282Y-119135642D01*
X120399621Y-119168500D01*
X120329984Y-119162805D01*
X120274480Y-119120365D01*
X120250732Y-119054655D01*
X120250500Y-119047071D01*
X120250500Y-117880096D01*
X120270185Y-117813057D01*
X120286814Y-117792420D01*
X121920898Y-116158335D01*
X121982219Y-116124852D01*
X122051911Y-116129836D01*
X122096258Y-116158337D01*
X122139707Y-116201786D01*
X122139711Y-116201789D01*
X122270814Y-116289390D01*
X122270827Y-116289397D01*
X122414337Y-116348840D01*
X122416503Y-116349737D01*
X122533021Y-116372914D01*
X122571153Y-116380499D01*
X122571156Y-116380500D01*
X122571158Y-116380500D01*
X122728844Y-116380500D01*
X122728845Y-116380499D01*
X122883497Y-116349737D01*
X123029179Y-116289394D01*
X123160289Y-116201789D01*
X123271789Y-116090289D01*
X123359394Y-115959179D01*
X123362854Y-115950827D01*
X123391284Y-115882190D01*
X123419737Y-115813497D01*
X123450500Y-115658842D01*
X123450500Y-115501158D01*
X123450500Y-115501155D01*
X123450499Y-115501153D01*
X123438093Y-115438785D01*
X123419737Y-115346503D01*
X123413425Y-115331265D01*
X123359397Y-115200827D01*
X123359390Y-115200814D01*
X123271398Y-115069125D01*
X123250520Y-115002447D01*
X123250500Y-115000234D01*
X123250500Y-90256758D01*
X123270185Y-90189719D01*
X123322989Y-90143964D01*
X123392147Y-90134020D01*
X123455703Y-90163045D01*
X123471442Y-90179440D01*
X123633221Y-90382304D01*
X123847696Y-90596779D01*
X124084836Y-90785892D01*
X124341659Y-90947265D01*
X124614935Y-91078868D01*
X124829951Y-91154105D01*
X124901216Y-91179042D01*
X124901228Y-91179046D01*
X125196937Y-91246540D01*
X125196946Y-91246541D01*
X125196951Y-91246542D01*
X125397874Y-91269180D01*
X125498337Y-91280499D01*
X125498340Y-91280500D01*
X125498343Y-91280500D01*
X125801660Y-91280500D01*
X125801661Y-91280499D01*
X125955694Y-91263144D01*
X126103048Y-91246542D01*
X126103051Y-91246541D01*
X126103063Y-91246540D01*
X126398772Y-91179046D01*
X126685065Y-91078868D01*
X126958341Y-90947265D01*
X127215164Y-90785892D01*
X127452304Y-90596779D01*
X127666779Y-90382304D01*
X127855892Y-90145164D01*
X128017265Y-89888341D01*
X128148868Y-89615065D01*
X128249046Y-89328772D01*
X128316540Y-89033063D01*
X128350500Y-88731657D01*
X128350500Y-88428343D01*
X128316540Y-88126937D01*
X128249046Y-87831228D01*
X128148868Y-87544935D01*
X128017265Y-87271659D01*
X127855892Y-87014836D01*
X127666779Y-86777696D01*
X127452304Y-86563221D01*
X127215164Y-86374108D01*
X126958341Y-86212735D01*
X126958338Y-86212733D01*
X126685068Y-86081133D01*
X126398783Y-85980957D01*
X126398771Y-85980953D01*
X126170556Y-85928864D01*
X126103063Y-85913460D01*
X126103060Y-85913459D01*
X126103048Y-85913457D01*
X125801663Y-85879500D01*
X125801657Y-85879500D01*
X125498343Y-85879500D01*
X125498336Y-85879500D01*
X125196951Y-85913457D01*
X125196937Y-85913460D01*
X124901228Y-85980953D01*
X124901216Y-85980957D01*
X124614931Y-86081133D01*
X124341661Y-86212733D01*
X124084837Y-86374107D01*
X123847696Y-86563220D01*
X123633220Y-86777696D01*
X123471447Y-86980554D01*
X123414259Y-87020694D01*
X123344447Y-87023544D01*
X123284177Y-86988199D01*
X123252584Y-86925880D01*
X123250500Y-86903241D01*
X123250500Y-75159765D01*
X123270185Y-75092726D01*
X123271398Y-75090874D01*
X123359390Y-74959185D01*
X123359390Y-74959184D01*
X123359394Y-74959179D01*
X123419737Y-74813497D01*
X123450500Y-74658842D01*
X123450500Y-74501158D01*
X123450500Y-74501155D01*
X123450499Y-74501153D01*
X123433466Y-74415524D01*
X123419737Y-74346503D01*
X123409509Y-74321811D01*
X123359397Y-74200827D01*
X123359390Y-74200814D01*
X123271789Y-74069711D01*
X123271786Y-74069707D01*
X123160292Y-73958213D01*
X123160288Y-73958210D01*
X123029185Y-73870609D01*
X123029172Y-73870602D01*
X122883501Y-73810264D01*
X122883489Y-73810261D01*
X122728845Y-73779500D01*
X122728842Y-73779500D01*
X122571158Y-73779500D01*
X122571155Y-73779500D01*
X122416510Y-73810261D01*
X122410676Y-73812031D01*
X122409873Y-73809385D01*
X122352056Y-73815396D01*
X122289687Y-73783902D01*
X122254245Y-73723689D01*
X122250500Y-73693444D01*
X122250500Y-72819330D01*
X122270185Y-72752291D01*
X122322989Y-72706536D01*
X122384229Y-72695712D01*
X122427341Y-72699104D01*
X123126212Y-72000233D01*
X123137482Y-72042292D01*
X123209890Y-72167708D01*
X123312292Y-72270110D01*
X123437708Y-72342518D01*
X123479765Y-72353787D01*
X122780893Y-73052658D01*
X122863828Y-73112914D01*
X123074197Y-73220102D01*
X123298752Y-73293065D01*
X123298751Y-73293065D01*
X123531948Y-73330000D01*
X123768052Y-73330000D01*
X124001247Y-73293065D01*
X124225802Y-73220102D01*
X124436163Y-73112918D01*
X124436169Y-73112914D01*
X124519104Y-73052658D01*
X124519105Y-73052658D01*
X123820233Y-72353787D01*
X123862292Y-72342518D01*
X123987708Y-72270110D01*
X124090110Y-72167708D01*
X124162518Y-72042292D01*
X124173787Y-72000233D01*
X124872658Y-72699105D01*
X124915771Y-72695712D01*
X124984148Y-72710076D01*
X125033905Y-72759128D01*
X125049500Y-72819330D01*
X125049500Y-74000234D01*
X125029815Y-74067273D01*
X125028602Y-74069125D01*
X124940609Y-74200814D01*
X124940602Y-74200827D01*
X124880264Y-74346498D01*
X124880261Y-74346510D01*
X124849500Y-74501153D01*
X124849500Y-74658846D01*
X124880261Y-74813489D01*
X124880264Y-74813501D01*
X124940602Y-74959172D01*
X124940609Y-74959185D01*
X125028210Y-75090288D01*
X125028213Y-75090292D01*
X125139707Y-75201786D01*
X125139711Y-75201789D01*
X125270814Y-75289390D01*
X125270827Y-75289397D01*
X125408683Y-75346498D01*
X125416503Y-75349737D01*
X125571153Y-75380499D01*
X125571156Y-75380500D01*
X125571158Y-75380500D01*
X125728844Y-75380500D01*
X125728845Y-75380499D01*
X125883497Y-75349737D01*
X126029179Y-75289394D01*
X126160289Y-75201789D01*
X126271789Y-75090289D01*
X126359394Y-74959179D01*
X126419737Y-74813497D01*
X126450500Y-74658842D01*
X126450500Y-74501158D01*
X126450500Y-74501155D01*
X126450499Y-74501153D01*
X126433466Y-74415524D01*
X126419737Y-74346503D01*
X126409509Y-74321811D01*
X126359397Y-74200827D01*
X126359390Y-74200814D01*
X126271398Y-74069125D01*
X126250520Y-74002447D01*
X126250500Y-74000234D01*
X126250500Y-62040945D01*
X126250500Y-62040943D01*
X126238101Y-61994669D01*
X126209577Y-61888215D01*
X126166438Y-61813497D01*
X126166438Y-61813495D01*
X126130524Y-61751290D01*
X126130521Y-61751286D01*
X126130520Y-61751284D01*
X126018716Y-61639480D01*
X126018715Y-61639479D01*
X126014385Y-61635149D01*
X126014374Y-61635139D01*
X124983757Y-60604522D01*
X124950272Y-60543199D01*
X124953507Y-60478523D01*
X124967246Y-60436243D01*
X125000500Y-60226287D01*
X125000500Y-60013713D01*
X124967246Y-59803757D01*
X124901557Y-59601588D01*
X124805051Y-59412184D01*
X124805049Y-59412181D01*
X124805048Y-59412179D01*
X124680109Y-59240213D01*
X124529786Y-59089890D01*
X124357820Y-58964951D01*
X124357115Y-58964591D01*
X124349054Y-58960485D01*
X124298259Y-58912512D01*
X124281463Y-58844692D01*
X124303999Y-58778556D01*
X124349054Y-58739515D01*
X124357816Y-58735051D01*
X124522960Y-58615068D01*
X124529786Y-58610109D01*
X124529788Y-58610106D01*
X124529792Y-58610104D01*
X124680104Y-58459792D01*
X124680106Y-58459788D01*
X124680109Y-58459786D01*
X124805048Y-58287820D01*
X124805047Y-58287820D01*
X124805051Y-58287816D01*
X124901557Y-58098412D01*
X124967246Y-57896243D01*
X125000500Y-57686287D01*
X125000500Y-57473713D01*
X124967246Y-57263757D01*
X124901557Y-57061588D01*
X124805051Y-56872184D01*
X124805049Y-56872181D01*
X124805048Y-56872179D01*
X124680109Y-56700213D01*
X124529786Y-56549890D01*
X124357820Y-56424951D01*
X124357115Y-56424591D01*
X124349054Y-56420485D01*
X124298259Y-56372512D01*
X124281463Y-56304692D01*
X124303999Y-56238556D01*
X124349054Y-56199515D01*
X124357816Y-56195051D01*
X124379789Y-56179086D01*
X124529786Y-56070109D01*
X124529788Y-56070106D01*
X124529792Y-56070104D01*
X124680104Y-55919792D01*
X124680106Y-55919788D01*
X124680109Y-55919786D01*
X124805048Y-55747820D01*
X124805047Y-55747820D01*
X124805051Y-55747816D01*
X124901557Y-55558412D01*
X124967246Y-55356243D01*
X125000500Y-55146287D01*
X125000500Y-54933713D01*
X124967246Y-54723757D01*
X124901557Y-54521588D01*
X124805051Y-54332184D01*
X124805049Y-54332181D01*
X124805048Y-54332179D01*
X124680109Y-54160213D01*
X124566569Y-54046673D01*
X124533084Y-53985350D01*
X124538068Y-53915658D01*
X124579940Y-53859725D01*
X124610915Y-53842810D01*
X124742331Y-53793796D01*
X124857546Y-53707546D01*
X124943796Y-53592331D01*
X124994091Y-53457483D01*
X125000500Y-53397873D01*
X125000500Y-52501153D01*
X126849500Y-52501153D01*
X126849500Y-52658846D01*
X126880261Y-52813489D01*
X126880264Y-52813501D01*
X126940602Y-52959172D01*
X126940609Y-52959185D01*
X127028602Y-53090874D01*
X127049480Y-53157551D01*
X127049500Y-53159765D01*
X127049500Y-84000234D01*
X127029815Y-84067273D01*
X127028602Y-84069125D01*
X126940609Y-84200814D01*
X126940602Y-84200827D01*
X126880264Y-84346498D01*
X126880261Y-84346510D01*
X126849500Y-84501153D01*
X126849500Y-84658846D01*
X126880261Y-84813489D01*
X126880264Y-84813501D01*
X126940602Y-84959172D01*
X126940609Y-84959185D01*
X127028210Y-85090288D01*
X127028213Y-85090292D01*
X127139707Y-85201786D01*
X127139711Y-85201789D01*
X127270814Y-85289390D01*
X127270827Y-85289397D01*
X127416498Y-85349735D01*
X127416503Y-85349737D01*
X127571153Y-85380499D01*
X127571156Y-85380500D01*
X127571158Y-85380500D01*
X127728844Y-85380500D01*
X127728845Y-85380499D01*
X127883497Y-85349737D01*
X128029179Y-85289394D01*
X128160289Y-85201789D01*
X128271789Y-85090289D01*
X128359394Y-84959179D01*
X128419737Y-84813497D01*
X128450500Y-84658842D01*
X128450500Y-84501158D01*
X128450500Y-84501155D01*
X128450499Y-84501153D01*
X128849500Y-84501153D01*
X128849500Y-84658846D01*
X128880261Y-84813489D01*
X128880264Y-84813501D01*
X128940602Y-84959172D01*
X128940609Y-84959185D01*
X129028602Y-85090874D01*
X129049480Y-85157551D01*
X129049500Y-85159765D01*
X129049500Y-92000234D01*
X129029815Y-92067273D01*
X129028602Y-92069125D01*
X128940609Y-92200814D01*
X128940602Y-92200827D01*
X128880264Y-92346498D01*
X128880261Y-92346510D01*
X128849500Y-92501153D01*
X128849500Y-92658846D01*
X128880261Y-92813489D01*
X128880264Y-92813501D01*
X128940602Y-92959172D01*
X128940609Y-92959185D01*
X129028210Y-93090288D01*
X129028213Y-93090292D01*
X129139707Y-93201786D01*
X129139711Y-93201789D01*
X129270814Y-93289390D01*
X129270827Y-93289397D01*
X129408683Y-93346498D01*
X129416503Y-93349737D01*
X129571153Y-93380499D01*
X129571156Y-93380500D01*
X129571158Y-93380500D01*
X129728844Y-93380500D01*
X129728845Y-93380499D01*
X129883497Y-93349737D01*
X130029179Y-93289394D01*
X130160289Y-93201789D01*
X130271789Y-93090289D01*
X130359394Y-92959179D01*
X130419737Y-92813497D01*
X130450500Y-92658842D01*
X130450500Y-92501158D01*
X130450500Y-92501155D01*
X130450499Y-92501153D01*
X130419738Y-92346510D01*
X130419738Y-92346508D01*
X130419737Y-92346503D01*
X130419735Y-92346498D01*
X130359397Y-92200827D01*
X130359390Y-92200814D01*
X130271398Y-92069125D01*
X130250520Y-92002447D01*
X130250500Y-92000234D01*
X130250500Y-85159765D01*
X130270185Y-85092726D01*
X130271398Y-85090874D01*
X130359390Y-84959185D01*
X130359390Y-84959184D01*
X130359394Y-84959179D01*
X130419737Y-84813497D01*
X130450500Y-84658842D01*
X130450500Y-84501158D01*
X130450500Y-84501155D01*
X130450499Y-84501153D01*
X130419738Y-84346510D01*
X130419737Y-84346503D01*
X130419735Y-84346498D01*
X130359397Y-84200827D01*
X130359390Y-84200814D01*
X130271789Y-84069711D01*
X130271786Y-84069707D01*
X130160292Y-83958213D01*
X130160288Y-83958210D01*
X130029185Y-83870609D01*
X130029172Y-83870602D01*
X129883501Y-83810264D01*
X129883489Y-83810261D01*
X129728845Y-83779500D01*
X129728842Y-83779500D01*
X129571158Y-83779500D01*
X129571155Y-83779500D01*
X129416510Y-83810261D01*
X129416498Y-83810264D01*
X129270827Y-83870602D01*
X129270814Y-83870609D01*
X129139711Y-83958210D01*
X129139707Y-83958213D01*
X129028213Y-84069707D01*
X129028210Y-84069711D01*
X128940609Y-84200814D01*
X128940602Y-84200827D01*
X128880264Y-84346498D01*
X128880261Y-84346510D01*
X128849500Y-84501153D01*
X128450499Y-84501153D01*
X128419738Y-84346510D01*
X128419737Y-84346503D01*
X128419735Y-84346498D01*
X128359397Y-84200827D01*
X128359390Y-84200814D01*
X128271398Y-84069125D01*
X128250520Y-84002447D01*
X128250500Y-84000234D01*
X128250500Y-83466555D01*
X128270185Y-83399516D01*
X128322989Y-83353761D01*
X128392147Y-83343817D01*
X128410411Y-83348840D01*
X128410676Y-83347969D01*
X128416492Y-83349732D01*
X128416503Y-83349737D01*
X128571153Y-83380499D01*
X128571156Y-83380500D01*
X128571158Y-83380500D01*
X128728844Y-83380500D01*
X128728845Y-83380499D01*
X128883497Y-83349737D01*
X129029179Y-83289394D01*
X129160289Y-83201789D01*
X129271789Y-83090289D01*
X129359394Y-82959179D01*
X129419737Y-82813497D01*
X129450500Y-82658842D01*
X129450500Y-82504500D01*
X129470185Y-82437461D01*
X129522989Y-82391706D01*
X129574500Y-82380500D01*
X129728844Y-82380500D01*
X129728845Y-82380499D01*
X129883497Y-82349737D01*
X130029179Y-82289394D01*
X130160289Y-82201789D01*
X130271789Y-82090289D01*
X130359394Y-81959179D01*
X130419737Y-81813497D01*
X130450500Y-81658842D01*
X130450500Y-81501158D01*
X130450500Y-81501155D01*
X130450499Y-81501153D01*
X130419738Y-81346510D01*
X130419737Y-81346503D01*
X130412901Y-81330000D01*
X130359397Y-81200827D01*
X130359390Y-81200814D01*
X130274849Y-81074290D01*
X130274847Y-81074288D01*
X130271396Y-81069123D01*
X130250520Y-81002445D01*
X130250500Y-81000234D01*
X130250500Y-80819330D01*
X130270185Y-80752291D01*
X130322989Y-80706536D01*
X130384229Y-80695712D01*
X130427341Y-80699104D01*
X131126212Y-80000233D01*
X131137482Y-80042292D01*
X131209890Y-80167708D01*
X131312292Y-80270110D01*
X131437708Y-80342518D01*
X131479765Y-80353787D01*
X130780893Y-81052658D01*
X130863828Y-81112914D01*
X131074197Y-81220102D01*
X131298752Y-81293065D01*
X131298751Y-81293065D01*
X131531948Y-81330000D01*
X131768052Y-81330000D01*
X132001247Y-81293065D01*
X132225802Y-81220102D01*
X132436163Y-81112918D01*
X132436169Y-81112914D01*
X132519104Y-81052658D01*
X132519105Y-81052658D01*
X131820233Y-80353787D01*
X131862292Y-80342518D01*
X131987708Y-80270110D01*
X132090110Y-80167708D01*
X132162518Y-80042292D01*
X132173787Y-80000234D01*
X132872658Y-80699105D01*
X132872658Y-80699104D01*
X132932914Y-80616169D01*
X132932918Y-80616163D01*
X133040102Y-80405802D01*
X133113065Y-80181247D01*
X133150000Y-79948052D01*
X133150000Y-79711947D01*
X133113065Y-79478752D01*
X133040102Y-79254197D01*
X132932914Y-79043828D01*
X132872658Y-78960894D01*
X132872658Y-78960893D01*
X132173787Y-79659765D01*
X132162518Y-79617708D01*
X132090110Y-79492292D01*
X131987708Y-79389890D01*
X131862292Y-79317482D01*
X131820234Y-79306212D01*
X132519105Y-78607340D01*
X132519104Y-78607339D01*
X132436174Y-78547087D01*
X132225802Y-78439897D01*
X132001247Y-78366934D01*
X132001248Y-78366934D01*
X131768052Y-78330000D01*
X131531948Y-78330000D01*
X131298752Y-78366934D01*
X131074197Y-78439897D01*
X130863830Y-78547084D01*
X130780894Y-78607340D01*
X131479766Y-79306212D01*
X131437708Y-79317482D01*
X131312292Y-79389890D01*
X131209890Y-79492292D01*
X131137482Y-79617708D01*
X131126212Y-79659766D01*
X130427340Y-78960894D01*
X130384229Y-78964287D01*
X130370618Y-78961427D01*
X130356853Y-78963407D01*
X130337101Y-78954386D01*
X130315852Y-78949923D01*
X130305948Y-78940159D01*
X130293297Y-78934382D01*
X130281556Y-78916113D01*
X130266095Y-78900871D01*
X130262268Y-78886100D01*
X130255523Y-78875604D01*
X130250500Y-78840669D01*
X130250500Y-76338188D01*
X130270185Y-76271149D01*
X130322989Y-76225394D01*
X130392147Y-76215450D01*
X130455703Y-76244475D01*
X130474816Y-76265301D01*
X130505483Y-76307510D01*
X130672490Y-76474517D01*
X130863567Y-76613343D01*
X130962991Y-76664002D01*
X131074003Y-76720566D01*
X131074005Y-76720566D01*
X131074008Y-76720568D01*
X131194412Y-76759689D01*
X131298631Y-76793553D01*
X131531903Y-76830500D01*
X131531908Y-76830500D01*
X131768097Y-76830500D01*
X132001368Y-76793553D01*
X132225992Y-76720568D01*
X132436433Y-76613343D01*
X132627510Y-76474517D01*
X132794517Y-76307510D01*
X132933343Y-76116433D01*
X133040568Y-75905992D01*
X133113553Y-75681368D01*
X133117121Y-75658842D01*
X133150500Y-75448097D01*
X133150500Y-75211902D01*
X133113553Y-74978631D01*
X133060514Y-74815396D01*
X133040568Y-74754008D01*
X133040566Y-74754005D01*
X133040566Y-74754003D01*
X132933342Y-74543566D01*
X132794517Y-74352490D01*
X132627510Y-74185483D01*
X132436433Y-74046657D01*
X132225996Y-73939433D01*
X132001368Y-73866446D01*
X131768097Y-73829500D01*
X131768092Y-73829500D01*
X131531908Y-73829500D01*
X131531903Y-73829500D01*
X131298631Y-73866446D01*
X131074003Y-73939433D01*
X130863566Y-74046657D01*
X130754550Y-74125862D01*
X130672490Y-74185483D01*
X130672488Y-74185485D01*
X130672487Y-74185485D01*
X130505484Y-74352488D01*
X130474818Y-74394697D01*
X130419487Y-74437362D01*
X130349874Y-74443341D01*
X130288079Y-74410735D01*
X130253722Y-74349896D01*
X130250500Y-74321811D01*
X130250500Y-72819330D01*
X130270185Y-72752291D01*
X130322989Y-72706536D01*
X130384229Y-72695712D01*
X130427341Y-72699104D01*
X131126212Y-72000233D01*
X131137482Y-72042292D01*
X131209890Y-72167708D01*
X131312292Y-72270110D01*
X131437708Y-72342518D01*
X131479765Y-72353787D01*
X130780893Y-73052658D01*
X130863828Y-73112914D01*
X131074197Y-73220102D01*
X131298752Y-73293065D01*
X131298751Y-73293065D01*
X131531948Y-73330000D01*
X131768052Y-73330000D01*
X132001247Y-73293065D01*
X132225802Y-73220102D01*
X132436163Y-73112918D01*
X132436169Y-73112914D01*
X132519104Y-73052658D01*
X132519105Y-73052658D01*
X131820233Y-72353787D01*
X131862292Y-72342518D01*
X131987708Y-72270110D01*
X132090110Y-72167708D01*
X132162518Y-72042292D01*
X132173787Y-72000234D01*
X132872658Y-72699105D01*
X132872658Y-72699104D01*
X132932914Y-72616169D01*
X132932918Y-72616163D01*
X133040102Y-72405802D01*
X133113065Y-72181247D01*
X133150000Y-71948052D01*
X133150000Y-71711947D01*
X133113065Y-71478752D01*
X133040102Y-71254197D01*
X132932914Y-71043828D01*
X132872658Y-70960894D01*
X132872658Y-70960893D01*
X132173787Y-71659765D01*
X132162518Y-71617708D01*
X132090110Y-71492292D01*
X131987708Y-71389890D01*
X131862292Y-71317482D01*
X131820234Y-71306212D01*
X132519105Y-70607340D01*
X132519104Y-70607339D01*
X132436174Y-70547087D01*
X132225802Y-70439897D01*
X132001247Y-70366934D01*
X132001248Y-70366934D01*
X131768052Y-70330000D01*
X131531948Y-70330000D01*
X131298752Y-70366934D01*
X131074197Y-70439897D01*
X130863830Y-70547084D01*
X130780894Y-70607340D01*
X131479766Y-71306212D01*
X131437708Y-71317482D01*
X131312292Y-71389890D01*
X131209890Y-71492292D01*
X131137482Y-71617708D01*
X131126212Y-71659766D01*
X130427340Y-70960894D01*
X130384229Y-70964287D01*
X130370618Y-70961427D01*
X130356853Y-70963407D01*
X130337101Y-70954386D01*
X130315852Y-70949923D01*
X130305948Y-70940159D01*
X130293297Y-70934382D01*
X130281556Y-70916113D01*
X130266095Y-70900871D01*
X130262268Y-70886100D01*
X130255523Y-70875604D01*
X130250500Y-70840669D01*
X130250500Y-68338188D01*
X130270185Y-68271149D01*
X130322989Y-68225394D01*
X130392147Y-68215450D01*
X130455703Y-68244475D01*
X130474816Y-68265301D01*
X130505483Y-68307510D01*
X130672490Y-68474517D01*
X130863567Y-68613343D01*
X130962991Y-68664002D01*
X131074003Y-68720566D01*
X131074005Y-68720566D01*
X131074008Y-68720568D01*
X131162476Y-68749313D01*
X131298631Y-68793553D01*
X131531903Y-68830500D01*
X131531908Y-68830500D01*
X131768097Y-68830500D01*
X132001368Y-68793553D01*
X132034468Y-68782798D01*
X132225992Y-68720568D01*
X132436433Y-68613343D01*
X132627510Y-68474517D01*
X132794517Y-68307510D01*
X132933343Y-68116433D01*
X133040568Y-67905992D01*
X133113553Y-67681368D01*
X133113554Y-67681362D01*
X133150500Y-67448097D01*
X133150500Y-67211902D01*
X133113553Y-66978631D01*
X133079689Y-66874412D01*
X133040568Y-66754008D01*
X133040566Y-66754005D01*
X133040566Y-66754003D01*
X132933342Y-66543566D01*
X132794517Y-66352490D01*
X132627510Y-66185483D01*
X132436433Y-66046657D01*
X132225996Y-65939433D01*
X132001368Y-65866446D01*
X131768097Y-65829500D01*
X131768092Y-65829500D01*
X131531908Y-65829500D01*
X131531903Y-65829500D01*
X131298631Y-65866446D01*
X131074003Y-65939433D01*
X130863566Y-66046657D01*
X130754550Y-66125862D01*
X130672490Y-66185483D01*
X130672488Y-66185485D01*
X130672487Y-66185485D01*
X130505484Y-66352488D01*
X130474818Y-66394697D01*
X130419487Y-66437362D01*
X130349874Y-66443341D01*
X130288079Y-66410735D01*
X130253722Y-66349896D01*
X130250500Y-66321811D01*
X130250500Y-64819330D01*
X130270185Y-64752291D01*
X130322989Y-64706536D01*
X130384229Y-64695712D01*
X130427341Y-64699104D01*
X131126212Y-64000233D01*
X131137482Y-64042292D01*
X131209890Y-64167708D01*
X131312292Y-64270110D01*
X131437708Y-64342518D01*
X131479765Y-64353787D01*
X130780893Y-65052658D01*
X130863828Y-65112914D01*
X131074197Y-65220102D01*
X131298752Y-65293065D01*
X131298751Y-65293065D01*
X131531948Y-65330000D01*
X131768052Y-65330000D01*
X132001247Y-65293065D01*
X132225802Y-65220102D01*
X132436163Y-65112918D01*
X132436169Y-65112914D01*
X132519104Y-65052658D01*
X132519105Y-65052658D01*
X131820233Y-64353787D01*
X131862292Y-64342518D01*
X131987708Y-64270110D01*
X132090110Y-64167708D01*
X132162518Y-64042292D01*
X132173787Y-64000234D01*
X132872658Y-64699105D01*
X132872658Y-64699104D01*
X132932914Y-64616169D01*
X132932918Y-64616163D01*
X133040102Y-64405802D01*
X133113065Y-64181247D01*
X133150000Y-63948052D01*
X133150000Y-63711947D01*
X133113065Y-63478752D01*
X133040102Y-63254197D01*
X132932914Y-63043828D01*
X132872658Y-62960894D01*
X132872658Y-62960893D01*
X132173787Y-63659765D01*
X132162518Y-63617708D01*
X132090110Y-63492292D01*
X131987708Y-63389890D01*
X131862292Y-63317482D01*
X131820234Y-63306212D01*
X132519105Y-62607340D01*
X132519104Y-62607339D01*
X132436174Y-62547087D01*
X132225802Y-62439897D01*
X132001247Y-62366934D01*
X132001248Y-62366934D01*
X131768052Y-62330000D01*
X131531948Y-62330000D01*
X131298752Y-62366934D01*
X131074197Y-62439897D01*
X130863830Y-62547084D01*
X130780894Y-62607340D01*
X131479766Y-63306212D01*
X131437708Y-63317482D01*
X131312292Y-63389890D01*
X131209890Y-63492292D01*
X131137482Y-63617708D01*
X131126212Y-63659766D01*
X130427340Y-62960894D01*
X130384229Y-62964287D01*
X130370618Y-62961427D01*
X130356853Y-62963407D01*
X130337101Y-62954386D01*
X130315852Y-62949923D01*
X130305948Y-62940159D01*
X130293297Y-62934382D01*
X130281556Y-62916113D01*
X130266095Y-62900871D01*
X130262268Y-62886100D01*
X130255523Y-62875604D01*
X130250500Y-62840669D01*
X130250500Y-60338188D01*
X130270185Y-60271149D01*
X130322989Y-60225394D01*
X130392147Y-60215450D01*
X130455703Y-60244475D01*
X130474816Y-60265301D01*
X130505483Y-60307510D01*
X130672490Y-60474517D01*
X130863567Y-60613343D01*
X130912768Y-60638412D01*
X131074003Y-60720566D01*
X131074005Y-60720566D01*
X131074008Y-60720568D01*
X131194412Y-60759689D01*
X131298631Y-60793553D01*
X131531903Y-60830500D01*
X131531908Y-60830500D01*
X131768097Y-60830500D01*
X132001368Y-60793553D01*
X132225992Y-60720568D01*
X132436433Y-60613343D01*
X132627510Y-60474517D01*
X132794517Y-60307510D01*
X132933343Y-60116433D01*
X133040568Y-59905992D01*
X133113553Y-59681368D01*
X133126189Y-59601588D01*
X133150500Y-59448097D01*
X133150500Y-59211902D01*
X133113553Y-58978631D01*
X133051447Y-58787491D01*
X133040568Y-58754008D01*
X133040566Y-58754005D01*
X133040566Y-58754003D01*
X132984002Y-58642991D01*
X132933343Y-58543567D01*
X132794517Y-58352490D01*
X132627510Y-58185483D01*
X132436433Y-58046657D01*
X132225996Y-57939433D01*
X132001368Y-57866446D01*
X131768097Y-57829500D01*
X131768092Y-57829500D01*
X131531908Y-57829500D01*
X131531903Y-57829500D01*
X131298631Y-57866446D01*
X131074003Y-57939433D01*
X130863566Y-58046657D01*
X130774211Y-58111578D01*
X130672490Y-58185483D01*
X130672488Y-58185485D01*
X130672487Y-58185485D01*
X130505484Y-58352488D01*
X130486432Y-58378711D01*
X130483119Y-58383272D01*
X130474818Y-58394697D01*
X130449838Y-58413958D01*
X130426011Y-58434605D01*
X130422386Y-58435126D01*
X130419487Y-58437362D01*
X130388070Y-58440060D01*
X130356853Y-58444549D01*
X130353521Y-58443027D01*
X130349874Y-58443341D01*
X130321983Y-58428624D01*
X130293297Y-58415524D01*
X130291317Y-58412443D01*
X130288079Y-58410735D01*
X130272570Y-58383272D01*
X130255523Y-58356746D01*
X130254816Y-58351834D01*
X130253722Y-58349896D01*
X130250500Y-58321811D01*
X130250500Y-58159765D01*
X130270185Y-58092726D01*
X130271398Y-58090874D01*
X130359390Y-57959185D01*
X130359390Y-57959184D01*
X130359394Y-57959179D01*
X130419737Y-57813497D01*
X130450500Y-57658842D01*
X130450500Y-57501158D01*
X130450500Y-57501155D01*
X130450499Y-57501153D01*
X130436016Y-57428343D01*
X130419737Y-57346503D01*
X130385463Y-57263757D01*
X130359397Y-57200827D01*
X130359390Y-57200814D01*
X130271789Y-57069711D01*
X130271786Y-57069707D01*
X130160292Y-56958213D01*
X130160288Y-56958210D01*
X130029185Y-56870609D01*
X130029172Y-56870602D01*
X129883501Y-56810264D01*
X129883489Y-56810261D01*
X129728845Y-56779500D01*
X129728842Y-56779500D01*
X129571158Y-56779500D01*
X129571155Y-56779500D01*
X129416510Y-56810261D01*
X129410676Y-56812031D01*
X129409873Y-56809385D01*
X129352056Y-56815396D01*
X129289687Y-56783902D01*
X129254245Y-56723689D01*
X129250500Y-56693444D01*
X129250500Y-56159765D01*
X129270185Y-56092726D01*
X129271398Y-56090874D01*
X129359390Y-55959185D01*
X129359390Y-55959184D01*
X129359394Y-55959179D01*
X129419737Y-55813497D01*
X129450500Y-55658842D01*
X129450500Y-55501158D01*
X129450500Y-55501155D01*
X129450499Y-55501153D01*
X129425228Y-55374108D01*
X129419737Y-55346503D01*
X129364329Y-55212735D01*
X129359397Y-55200827D01*
X129359390Y-55200814D01*
X129271789Y-55069711D01*
X129271786Y-55069707D01*
X129160292Y-54958213D01*
X129160288Y-54958210D01*
X129029185Y-54870609D01*
X129029172Y-54870602D01*
X128883501Y-54810264D01*
X128883489Y-54810261D01*
X128728845Y-54779500D01*
X128728842Y-54779500D01*
X128571158Y-54779500D01*
X128571155Y-54779500D01*
X128416510Y-54810261D01*
X128410676Y-54812031D01*
X128409873Y-54809385D01*
X128352056Y-54815396D01*
X128289687Y-54783902D01*
X128254245Y-54723689D01*
X128250500Y-54693444D01*
X128250500Y-53159765D01*
X128270185Y-53092726D01*
X128271398Y-53090874D01*
X128359390Y-52959185D01*
X128359390Y-52959184D01*
X128359394Y-52959179D01*
X128419737Y-52813497D01*
X128450500Y-52658842D01*
X128450500Y-52501158D01*
X128450500Y-52501155D01*
X128450499Y-52501153D01*
X128419738Y-52346510D01*
X128419737Y-52346503D01*
X128362807Y-52209060D01*
X128359397Y-52200827D01*
X128359390Y-52200814D01*
X128271789Y-52069711D01*
X128271786Y-52069707D01*
X128160292Y-51958213D01*
X128160288Y-51958210D01*
X128029185Y-51870609D01*
X128029172Y-51870602D01*
X127883501Y-51810264D01*
X127883489Y-51810261D01*
X127728845Y-51779500D01*
X127728842Y-51779500D01*
X127571158Y-51779500D01*
X127571155Y-51779500D01*
X127416510Y-51810261D01*
X127416498Y-51810264D01*
X127270827Y-51870602D01*
X127270814Y-51870609D01*
X127139711Y-51958210D01*
X127139707Y-51958213D01*
X127028213Y-52069707D01*
X127028210Y-52069711D01*
X126940609Y-52200814D01*
X126940602Y-52200827D01*
X126880264Y-52346498D01*
X126880261Y-52346510D01*
X126849500Y-52501153D01*
X125000500Y-52501153D01*
X125000499Y-51602128D01*
X124994091Y-51542517D01*
X124943796Y-51407669D01*
X124943795Y-51407668D01*
X124943793Y-51407664D01*
X124857547Y-51292455D01*
X124857544Y-51292452D01*
X124742335Y-51206206D01*
X124742328Y-51206202D01*
X124607482Y-51155908D01*
X124607483Y-51155908D01*
X124547883Y-51149501D01*
X124547881Y-51149500D01*
X124547873Y-51149500D01*
X124547864Y-51149500D01*
X122752129Y-51149500D01*
X122752123Y-51149501D01*
X122692516Y-51155908D01*
X122557671Y-51206202D01*
X122557664Y-51206206D01*
X122442455Y-51292452D01*
X122442452Y-51292455D01*
X122356206Y-51407664D01*
X122356202Y-51407671D01*
X122305908Y-51542517D01*
X122299501Y-51602116D01*
X122299501Y-51602123D01*
X122299500Y-51602135D01*
X122299500Y-53397870D01*
X122299501Y-53397876D01*
X122305908Y-53457483D01*
X122356202Y-53592328D01*
X122356206Y-53592335D01*
X122442452Y-53707544D01*
X122442455Y-53707547D01*
X122557664Y-53793793D01*
X122557671Y-53793797D01*
X122689082Y-53842810D01*
X122745016Y-53884681D01*
X122769433Y-53950145D01*
X122754582Y-54018418D01*
X122733431Y-54046673D01*
X122619889Y-54160215D01*
X122494951Y-54332179D01*
X122398444Y-54521585D01*
X122332753Y-54723760D01*
X122299500Y-54933713D01*
X122299500Y-55146286D01*
X122331210Y-55346498D01*
X122332754Y-55356243D01*
X122379838Y-55501153D01*
X122398444Y-55558414D01*
X122494951Y-55747820D01*
X122619890Y-55919786D01*
X122770213Y-56070109D01*
X122942182Y-56195050D01*
X122950946Y-56199516D01*
X123001742Y-56247491D01*
X123018536Y-56315312D01*
X122995998Y-56381447D01*
X122950946Y-56420484D01*
X122942182Y-56424949D01*
X122770213Y-56549890D01*
X122619890Y-56700213D01*
X122494951Y-56872179D01*
X122398444Y-57061585D01*
X122332753Y-57263760D01*
X122299500Y-57473713D01*
X122299500Y-57686286D01*
X122328034Y-57866447D01*
X122332754Y-57896243D01*
X122396595Y-58092726D01*
X122398444Y-58098414D01*
X122494951Y-58287820D01*
X122619890Y-58459786D01*
X122770213Y-58610109D01*
X122942182Y-58735050D01*
X122950946Y-58739516D01*
X123001742Y-58787491D01*
X123018536Y-58855312D01*
X122995998Y-58921447D01*
X122950946Y-58960484D01*
X122942182Y-58964949D01*
X122770213Y-59089890D01*
X122619890Y-59240213D01*
X122494951Y-59412179D01*
X122398444Y-59601585D01*
X122332753Y-59803760D01*
X122320915Y-59878502D01*
X122299500Y-60013713D01*
X122299500Y-60226287D01*
X122308086Y-60280499D01*
X122332753Y-60436239D01*
X122332753Y-60436241D01*
X122332754Y-60436243D01*
X122390297Y-60613342D01*
X122398444Y-60638414D01*
X122494951Y-60827820D01*
X122619890Y-60999786D01*
X122770213Y-61150109D01*
X122942179Y-61275048D01*
X122942181Y-61275049D01*
X122942184Y-61275051D01*
X122951493Y-61279794D01*
X123002290Y-61327766D01*
X123019087Y-61395587D01*
X122996552Y-61461722D01*
X122951502Y-61500762D01*
X122942443Y-61505378D01*
X122770540Y-61630272D01*
X122770535Y-61630276D01*
X122620276Y-61780535D01*
X122620272Y-61780540D01*
X122495379Y-61952442D01*
X122398904Y-62141782D01*
X122333242Y-62343870D01*
X122333242Y-62343873D01*
X122322769Y-62410000D01*
X123216988Y-62410000D01*
X123184075Y-62467007D01*
X123150000Y-62594174D01*
X123150000Y-62725826D01*
X123184075Y-62852993D01*
X123216988Y-62910000D01*
X122322769Y-62910000D01*
X122333242Y-62976126D01*
X122333242Y-62976129D01*
X122398904Y-63178217D01*
X122495379Y-63367557D01*
X122620272Y-63539459D01*
X122620276Y-63539464D01*
X122770535Y-63689723D01*
X122770540Y-63689727D01*
X122942442Y-63814620D01*
X123131782Y-63911095D01*
X123333871Y-63976757D01*
X123400000Y-63987231D01*
X123400000Y-63093012D01*
X123457007Y-63125925D01*
X123584174Y-63160000D01*
X123715826Y-63160000D01*
X123842993Y-63125925D01*
X123900000Y-63093012D01*
X123900000Y-63987230D01*
X123966126Y-63976757D01*
X123966129Y-63976757D01*
X124168217Y-63911095D01*
X124357557Y-63814620D01*
X124529459Y-63689727D01*
X124529464Y-63689723D01*
X124679723Y-63539464D01*
X124679727Y-63539459D01*
X124804622Y-63367555D01*
X124815015Y-63347159D01*
X124862989Y-63296362D01*
X124930810Y-63279567D01*
X124996945Y-63302104D01*
X125040397Y-63356819D01*
X125049500Y-63403453D01*
X125049500Y-66321811D01*
X125029815Y-66388850D01*
X124977011Y-66434605D01*
X124907853Y-66444549D01*
X124844297Y-66415524D01*
X124825182Y-66394697D01*
X124820934Y-66388850D01*
X124794517Y-66352490D01*
X124627510Y-66185483D01*
X124436433Y-66046657D01*
X124225996Y-65939433D01*
X124001368Y-65866446D01*
X123768097Y-65829500D01*
X123768092Y-65829500D01*
X123531908Y-65829500D01*
X123531903Y-65829500D01*
X123298631Y-65866446D01*
X123074003Y-65939433D01*
X122863566Y-66046657D01*
X122754550Y-66125862D01*
X122672490Y-66185483D01*
X122672488Y-66185485D01*
X122672487Y-66185485D01*
X122505485Y-66352487D01*
X122505485Y-66352488D01*
X122505483Y-66352490D01*
X122459686Y-66415524D01*
X122366657Y-66543566D01*
X122259433Y-66754003D01*
X122186446Y-66978631D01*
X122149500Y-67211902D01*
X122149500Y-67448097D01*
X122186447Y-67681369D01*
X122186447Y-67681372D01*
X122227450Y-67807564D01*
X122229445Y-67877405D01*
X122197200Y-67933563D01*
X121362181Y-68768583D01*
X121300858Y-68802068D01*
X121231167Y-68797084D01*
X121175233Y-68755212D01*
X121150816Y-68689748D01*
X121150500Y-68680902D01*
X121150500Y-46428336D01*
X122949500Y-46428336D01*
X122949500Y-46731663D01*
X122983457Y-47033048D01*
X122983460Y-47033062D01*
X123050953Y-47328771D01*
X123050957Y-47328783D01*
X123151133Y-47615068D01*
X123282733Y-47888338D01*
X123282735Y-47888341D01*
X123444108Y-48145164D01*
X123633221Y-48382304D01*
X123847696Y-48596779D01*
X124084836Y-48785892D01*
X124341659Y-48947265D01*
X124614935Y-49078868D01*
X124829951Y-49154105D01*
X124901216Y-49179042D01*
X124901228Y-49179046D01*
X125196937Y-49246540D01*
X125196946Y-49246541D01*
X125196951Y-49246542D01*
X125397874Y-49269180D01*
X125498337Y-49280499D01*
X125498340Y-49280500D01*
X125498343Y-49280500D01*
X125801660Y-49280500D01*
X125801661Y-49280499D01*
X125955694Y-49263144D01*
X126103048Y-49246542D01*
X126103051Y-49246541D01*
X126103063Y-49246540D01*
X126398772Y-49179046D01*
X126685065Y-49078868D01*
X126958341Y-48947265D01*
X127215164Y-48785892D01*
X127452304Y-48596779D01*
X127666779Y-48382304D01*
X127855892Y-48145164D01*
X128017265Y-47888341D01*
X128148868Y-47615065D01*
X128249046Y-47328772D01*
X128316540Y-47033063D01*
X128350500Y-46731657D01*
X128350500Y-46428343D01*
X128316540Y-46126937D01*
X128249046Y-45831228D01*
X128148868Y-45544935D01*
X128017265Y-45271659D01*
X127855892Y-45014836D01*
X127666779Y-44777696D01*
X127452304Y-44563221D01*
X127215164Y-44374108D01*
X126958341Y-44212735D01*
X126958338Y-44212733D01*
X126685068Y-44081133D01*
X126398783Y-43980957D01*
X126398771Y-43980953D01*
X126142779Y-43922525D01*
X126103063Y-43913460D01*
X126103060Y-43913459D01*
X126103048Y-43913457D01*
X125801663Y-43879500D01*
X125801657Y-43879500D01*
X125498343Y-43879500D01*
X125498336Y-43879500D01*
X125196951Y-43913457D01*
X125196937Y-43913460D01*
X124901228Y-43980953D01*
X124901216Y-43980957D01*
X124614931Y-44081133D01*
X124341661Y-44212733D01*
X124084837Y-44374107D01*
X123847696Y-44563220D01*
X123633220Y-44777696D01*
X123444107Y-45014837D01*
X123282733Y-45271661D01*
X123151133Y-45544931D01*
X123050957Y-45831216D01*
X123050953Y-45831228D01*
X122983460Y-46126937D01*
X122983457Y-46126951D01*
X122949500Y-46428336D01*
X121150500Y-46428336D01*
X121150500Y-43586961D01*
X121151280Y-43573077D01*
X121157365Y-43519071D01*
X121161459Y-43482731D01*
X121167635Y-43455670D01*
X121195353Y-43376456D01*
X121207396Y-43351450D01*
X121252046Y-43280389D01*
X121269351Y-43258690D01*
X121328690Y-43199351D01*
X121350389Y-43182046D01*
X121421450Y-43137396D01*
X121446456Y-43125353D01*
X121525670Y-43097635D01*
X121552733Y-43091459D01*
X121615419Y-43084396D01*
X121643079Y-43081280D01*
X121656962Y-43080500D01*
X121715892Y-43080500D01*
X147584108Y-43080500D01*
X147646249Y-43080500D01*
X147653736Y-43080726D01*
G37*
%TD.AperFunction*%
%TA.AperFunction,Conductor*%
G36*
X125011920Y-68249263D02*
G01*
X125046277Y-68310102D01*
X125049500Y-68338188D01*
X125049500Y-70840668D01*
X125029815Y-70907707D01*
X124977011Y-70953462D01*
X124915772Y-70964286D01*
X124872658Y-70960893D01*
X124173787Y-71659765D01*
X124162518Y-71617708D01*
X124090110Y-71492292D01*
X123987708Y-71389890D01*
X123862292Y-71317482D01*
X123820234Y-71306212D01*
X124519105Y-70607340D01*
X124519104Y-70607338D01*
X124436174Y-70547087D01*
X124225802Y-70439897D01*
X124001247Y-70366934D01*
X124001248Y-70366934D01*
X123768052Y-70330000D01*
X123531948Y-70330000D01*
X123298752Y-70366934D01*
X123074197Y-70439897D01*
X122863830Y-70547084D01*
X122780894Y-70607340D01*
X123479766Y-71306212D01*
X123437708Y-71317482D01*
X123312292Y-71389890D01*
X123209890Y-71492292D01*
X123137482Y-71617708D01*
X123126212Y-71659766D01*
X122427340Y-70960894D01*
X122384229Y-70964287D01*
X122370618Y-70961427D01*
X122356853Y-70963407D01*
X122337101Y-70954386D01*
X122315852Y-70949923D01*
X122305948Y-70940159D01*
X122293297Y-70934382D01*
X122281556Y-70916113D01*
X122266095Y-70900871D01*
X122262268Y-70886100D01*
X122255523Y-70875604D01*
X122250500Y-70840669D01*
X122250500Y-69630096D01*
X122270185Y-69563057D01*
X122286815Y-69542419D01*
X123046437Y-68782796D01*
X123107758Y-68749313D01*
X123172433Y-68752547D01*
X123298632Y-68793553D01*
X123362326Y-68803641D01*
X123531903Y-68830500D01*
X123531908Y-68830500D01*
X123768097Y-68830500D01*
X124001368Y-68793553D01*
X124034468Y-68782798D01*
X124225992Y-68720568D01*
X124436433Y-68613343D01*
X124627510Y-68474517D01*
X124794517Y-68307510D01*
X124825182Y-68265302D01*
X124880511Y-68222637D01*
X124950125Y-68216658D01*
X125011920Y-68249263D01*
G37*
%TD.AperFunction*%
%TA.AperFunction,Conductor*%
G36*
X146455703Y-68244475D02*
G01*
X146474816Y-68265301D01*
X146505483Y-68307510D01*
X146672490Y-68474517D01*
X146863567Y-68613343D01*
X146962991Y-68664002D01*
X147074003Y-68720566D01*
X147074005Y-68720566D01*
X147074008Y-68720568D01*
X147162476Y-68749313D01*
X147298631Y-68793553D01*
X147531903Y-68830500D01*
X147531908Y-68830500D01*
X147768097Y-68830500D01*
X147874126Y-68813705D01*
X148001368Y-68793553D01*
X148127566Y-68752547D01*
X148197404Y-68750553D01*
X148253563Y-68782798D01*
X149013181Y-69542416D01*
X149046666Y-69603739D01*
X149049500Y-69630097D01*
X149049500Y-70840668D01*
X149029815Y-70907707D01*
X148977011Y-70953462D01*
X148915772Y-70964286D01*
X148872658Y-70960893D01*
X148173787Y-71659765D01*
X148162518Y-71617708D01*
X148090110Y-71492292D01*
X147987708Y-71389890D01*
X147862292Y-71317482D01*
X147820234Y-71306212D01*
X148519105Y-70607340D01*
X148519104Y-70607338D01*
X148436174Y-70547087D01*
X148225802Y-70439897D01*
X148001247Y-70366934D01*
X148001248Y-70366934D01*
X147768052Y-70330000D01*
X147531948Y-70330000D01*
X147298752Y-70366934D01*
X147074197Y-70439897D01*
X146863830Y-70547084D01*
X146780894Y-70607340D01*
X147479766Y-71306212D01*
X147437708Y-71317482D01*
X147312292Y-71389890D01*
X147209890Y-71492292D01*
X147137482Y-71617708D01*
X147126212Y-71659766D01*
X146427340Y-70960894D01*
X146384229Y-70964287D01*
X146370618Y-70961427D01*
X146356853Y-70963407D01*
X146337101Y-70954386D01*
X146315852Y-70949923D01*
X146305948Y-70940159D01*
X146293297Y-70934382D01*
X146281556Y-70916113D01*
X146266095Y-70900871D01*
X146262268Y-70886100D01*
X146255523Y-70875604D01*
X146250500Y-70840669D01*
X146250500Y-68338188D01*
X146270185Y-68271149D01*
X146322989Y-68225394D01*
X146392147Y-68215450D01*
X146455703Y-68244475D01*
G37*
%TD.AperFunction*%
%TD*%
M02*
