M48
; DRILL file {KiCad 9.0.0} date 2025-04-04T15:17:03-0400
; FORMAT={-:-/ absolute / metric / decimal}
; #@! TF.CreationDate,2025-04-04T15:17:03-04:00
; #@! TF.GenerationSoftware,Kicad,Pcbnew,9.0.0
; #@! TF.FileFunction,Plated,1,2,PTH
FMAT,2
METRIC
; #@! TA.AperFunction,Plated,PTH,ViaDrill
T1C0.300
; #@! TA.AperFunction,Plated,PTH,ComponentDrill
T2C0.800
; #@! TA.AperFunction,Plated,PTH,ComponentDrill
T3C0.889
; #@! TA.AperFunction,Plated,PTH,ComponentDrill
T4C0.900
; #@! TA.AperFunction,Plated,PTH,ComponentDrill
T5C1.000
; #@! TA.AperFunction,Plated,PTH,ComponentDrill
T6C1.100
; #@! TA.AperFunction,Plated,PTH,ComponentDrill
T7C1.397
; #@! TA.AperFunction,Plated,PTH,ComponentDrill
T8C2.200
%
G90
G05
T1
X109.15Y-115.58
X109.15Y-134.58
X109.65Y-142.58
X109.9Y-116.33
X109.9Y-135.58
X116.65Y-132.58
X119.65Y-123.58
X121.15Y-122.58
X122.65Y-74.58
X122.65Y-115.58
X123.15Y-135.58
X125.65Y-74.58
X127.65Y-52.58
X127.65Y-84.58
X127.65Y-92.58
X128.15Y-134.58
X128.65Y-55.58
X128.65Y-82.58
X129.65Y-57.58
X129.65Y-81.58
X129.65Y-84.58
X129.65Y-92.58
X129.9Y-116.33
X131.15Y-118.58
X131.65Y-132.58
X133.15Y-123.58
X135.9Y-123.33
X136.65Y-81.58
X136.65Y-106.58
X138.15Y-105.08
X138.15Y-122.58
X138.65Y-124.08
X140.65Y-82.58
X140.65Y-94.58
X140.65Y-115.83
X140.65Y-123.33
X141.4Y-116.58
X141.4Y-124.08
X141.65Y-93.58
X142.4Y-117.33
X142.65Y-75.58
X142.65Y-92.58
X144.65Y-106.58
X145.65Y-61.58
X145.65Y-74.58
X145.65Y-94.58
X145.65Y-143.58
X146.65Y-93.58
X147.65Y-92.58
X147.65Y-115.58
X148.65Y-74.58
X148.65Y-116.33
X149.65Y-117.08
T2
X137.11Y-47.58
X139.65Y-47.58
X142.19Y-47.58
T3
X126.745Y-107.565
X126.745Y-110.105
X126.76Y-105.04
X133.125Y-116.455
X135.665Y-116.475
X138.205Y-116.455
T4
X132.475Y-96.765
X132.475Y-101.705
X138.825Y-96.785
X138.835Y-101.725
T5
X123.65Y-52.5
X123.65Y-55.04
X123.65Y-57.58
X123.65Y-60.12
X123.65Y-62.66
T6
X113.11Y-127.34
X113.11Y-142.58
X115.65Y-127.34
X115.65Y-142.58
X118.19Y-127.34
X118.19Y-142.58
X120.73Y-127.34
X120.73Y-142.58
X123.27Y-127.34
X123.27Y-142.58
X123.65Y-67.33
X123.65Y-71.83
X125.81Y-127.34
X125.81Y-142.58
X128.35Y-127.34
X128.35Y-142.58
X130.89Y-127.34
X130.89Y-142.58
X131.65Y-59.33
X131.65Y-63.83
X131.65Y-67.33
X131.65Y-71.83
X131.65Y-75.33
X131.65Y-79.83
X133.43Y-127.34
X133.43Y-142.58
X135.97Y-127.34
X135.97Y-142.58
X138.51Y-127.34
X138.51Y-142.58
X139.65Y-59.33
X139.65Y-63.83
X139.65Y-67.33
X139.65Y-71.83
X139.65Y-75.33
X139.65Y-79.83
X141.05Y-127.34
X141.05Y-142.58
X147.65Y-67.33
X147.65Y-71.83
T7
X129.3Y-102.515
X129.3Y-112.645
X142.0Y-102.5
X142.0Y-112.66
T8
X123.15Y-119.58
X125.65Y-46.58
X125.65Y-88.58
X145.65Y-88.58
X146.65Y-57.58
X146.65Y-134.58
M30
