%TF.GenerationSoftware,KiCad,Pcbnew,9.0.0*%
%TF.CreationDate,2025-04-04T15:17:04-04:00*%
%TF.ProjectId,right,72696768-742e-46b6-9963-61645f706362,rev?*%
%TF.SameCoordinates,Original*%
%TF.FileFunction,Soldermask,Bot*%
%TF.FilePolarity,Negative*%
%FSLAX46Y46*%
G04 Gerber Fmt 4.6, Leading zero omitted, Abs format (unit mm)*
G04 Created by KiCad (PCBNEW 9.0.0) date 2025-04-04 15:17:04*
%MOMM*%
%LPD*%
G01*
G04 APERTURE LIST*
%ADD10C,2.000000*%
%ADD11C,1.600000*%
%ADD12R,1.500000X1.500000*%
%ADD13C,4.400000*%
%ADD14R,1.600000X1.600000*%
%ADD15R,1.700000X1.700000*%
%ADD16O,1.700000X1.700000*%
%ADD17C,2.286000*%
%ADD18C,1.778000*%
G04 APERTURE END LIST*
D10*
%TO.C,SW2*%
X123650000Y-67330000D03*
X131650000Y-67330000D03*
X123650000Y-71830000D03*
X131650000Y-71830000D03*
%TD*%
D11*
%TO.C,SW5*%
X137110000Y-47580000D03*
D12*
X139650000Y-47580000D03*
D11*
X142190000Y-47580000D03*
%TD*%
D13*
%TO.C,REF\u002A\u002A*%
X146650000Y-134580000D03*
%TD*%
D10*
%TO.C,SW3*%
X139650000Y-67330000D03*
X147650000Y-67330000D03*
X139650000Y-71830000D03*
X147650000Y-71830000D03*
%TD*%
D13*
%TO.C,REF\u002A\u002A*%
X145650000Y-88580000D03*
%TD*%
D14*
%TO.C,U1*%
X113110000Y-142580000D03*
D11*
X115650000Y-142580000D03*
X118190000Y-142580000D03*
X120730000Y-142580000D03*
X123270000Y-142580000D03*
X125810000Y-142580000D03*
X128350000Y-142580000D03*
X130890000Y-142580000D03*
X133430000Y-142580000D03*
X135970000Y-142580000D03*
X138510000Y-142580000D03*
X141050000Y-142580000D03*
X141050000Y-127340000D03*
X138510000Y-127340000D03*
X135970000Y-127340000D03*
X133430000Y-127340000D03*
X130890000Y-127340000D03*
X128350000Y-127340000D03*
X125810000Y-127340000D03*
X123270000Y-127340000D03*
X120730000Y-127340000D03*
X118190000Y-127340000D03*
X115650000Y-127340000D03*
X113110000Y-127340000D03*
%TD*%
D13*
%TO.C,REF\u002A\u002A*%
X123150000Y-119580000D03*
%TD*%
D10*
%TO.C,SW4*%
X131650000Y-59330000D03*
X139650000Y-59330000D03*
X131650000Y-63830000D03*
X139650000Y-63830000D03*
%TD*%
D15*
%TO.C,J1*%
X123650000Y-52500000D03*
D16*
X123650000Y-55040000D03*
X123650000Y-57580000D03*
X123650000Y-60120000D03*
X123650000Y-62660000D03*
%TD*%
D13*
%TO.C,REF\u002A\u002A*%
X146650000Y-57580000D03*
%TD*%
D10*
%TO.C,SW1*%
X131650000Y-75330000D03*
X139650000Y-75330000D03*
X131650000Y-79830000D03*
X139650000Y-79830000D03*
%TD*%
D17*
%TO.C,U3*%
X129300000Y-102515200D03*
X129300000Y-112645200D03*
X142000000Y-102500000D03*
X142000000Y-112660000D03*
D18*
X133125000Y-116455200D03*
X135665000Y-116475200D03*
X138205000Y-116455200D03*
X126760000Y-105040000D03*
X126745000Y-107565200D03*
X126745000Y-110105200D03*
X132475000Y-101705200D03*
X138835000Y-101725200D03*
X132475000Y-96765200D03*
X138825000Y-96785000D03*
%TD*%
D13*
%TO.C,REF\u002A\u002A*%
X125650000Y-46580000D03*
%TD*%
%TO.C,REF\u002A\u002A*%
X125650000Y-88580000D03*
%TD*%
M02*
