%TF.GenerationSoftware,KiCad,Pcbnew,9.0.0*%
%TF.CreationDate,2025-04-04T15:09:20-04:00*%
%TF.ProjectId,left,6c656674-2e6b-4696-9361-645f70636258,rev?*%
%TF.SameCoordinates,Original*%
%TF.FileFunction,Copper,L1,Top*%
%TF.FilePolarity,Positive*%
%FSLAX46Y46*%
G04 Gerber Fmt 4.6, Leading zero omitted, Abs format (unit mm)*
G04 Created by KiCad (PCBNEW 9.0.0) date 2025-04-04 15:09:20*
%MOMM*%
%LPD*%
G01*
G04 APERTURE LIST*
%TA.AperFunction,ComponentPad*%
%ADD10R,1.700000X1.700000*%
%TD*%
%TA.AperFunction,ComponentPad*%
%ADD11O,1.700000X1.700000*%
%TD*%
%TA.AperFunction,ComponentPad*%
%ADD12C,4.400000*%
%TD*%
%TA.AperFunction,ComponentPad*%
%ADD13C,2.286000*%
%TD*%
%TA.AperFunction,ComponentPad*%
%ADD14C,1.778000*%
%TD*%
%TA.AperFunction,ViaPad*%
%ADD15C,0.600000*%
%TD*%
%TA.AperFunction,Conductor*%
%ADD16C,0.200000*%
%TD*%
G04 APERTURE END LIST*
D10*
%TO.P,J1,1,Pin_1*%
%TO.N,VCC*%
X162000000Y-66000000D03*
D11*
%TO.P,J1,2,Pin_2*%
%TO.N,Button*%
X162000000Y-68540000D03*
%TO.P,J1,3,Pin_3*%
%TO.N,Horizontal*%
X162000000Y-71080000D03*
%TO.P,J1,4,Pin_4*%
%TO.N,Vertical*%
X162000000Y-73620000D03*
%TO.P,J1,5,Pin_5*%
%TO.N,GND*%
X162000000Y-76160000D03*
%TD*%
D12*
%TO.P,REF\u002A\u002A,*%
%TO.N,*%
X139000000Y-74000000D03*
%TD*%
%TO.P,REF\u002A\u002A,*%
%TO.N,*%
X161000000Y-106000000D03*
%TD*%
%TO.P,REF\u002A\u002A,*%
%TO.N,*%
X139000000Y-106000000D03*
%TD*%
D13*
%TO.P,U1,*%
%TO.N,*%
X143650000Y-84935200D03*
X143650000Y-95065200D03*
X156350000Y-84920000D03*
X156350000Y-95080000D03*
D14*
%TO.P,U1,1,GND*%
%TO.N,GND*%
X147475000Y-98875200D03*
%TO.P,U1,2,OUT2*%
%TO.N,Horizontal*%
X150015000Y-98895200D03*
%TO.P,U1,3,VCC*%
%TO.N,VCC*%
X152555000Y-98875200D03*
%TO.P,U1,4,VCC*%
X141110000Y-87460000D03*
%TO.P,U1,5,OUT1*%
%TO.N,Vertical*%
X141095000Y-89985200D03*
%TO.P,U1,6,GND*%
%TO.N,GND*%
X141095000Y-92525200D03*
%TO.P,U1,7,B1*%
%TO.N,Button*%
X146825000Y-84125200D03*
X153185000Y-84145200D03*
%TO.P,U1,8,B2*%
%TO.N,GND*%
X146825000Y-79185200D03*
X153175000Y-79205000D03*
%TD*%
D12*
%TO.P,REF\u002A\u002A,*%
%TO.N,*%
X155000000Y-67000000D03*
%TD*%
D15*
%TO.N,VCC*%
X152500000Y-87750000D03*
X158500000Y-70000000D03*
X142500000Y-70000000D03*
X158500000Y-66000000D03*
%TO.N,Button*%
X149000000Y-84145200D03*
X149000000Y-71000000D03*
X159500000Y-68500000D03*
X159500000Y-71000000D03*
%TO.N,Horizontal*%
X150000000Y-72000000D03*
%TO.N,Vertical*%
X151000000Y-90000000D03*
X151000000Y-73500000D03*
%TD*%
D16*
%TO.N,VCC*%
X152500000Y-87750000D02*
X152555000Y-87805000D01*
X152555000Y-87805000D02*
X152555000Y-98875200D01*
X158500000Y-66000000D02*
X158500000Y-70000000D01*
X141110000Y-83110000D02*
X141110000Y-87460000D01*
X142500000Y-70000000D02*
X142500000Y-81720000D01*
X142500000Y-81720000D02*
X141110000Y-83110000D01*
%TO.N,Button*%
X149000000Y-84145200D02*
X149000000Y-71000000D01*
X159500000Y-71000000D02*
X159500000Y-70500000D01*
X162000000Y-68540000D02*
X161960000Y-68500000D01*
X159500000Y-68500000D02*
X159500000Y-71000000D01*
%TO.N,Horizontal*%
X150000000Y-72000000D02*
X150000000Y-73000000D01*
X150015000Y-73015000D02*
X150015000Y-98895200D01*
X150000000Y-73000000D02*
X150015000Y-73015000D01*
%TO.N,Vertical*%
X151000000Y-73500000D02*
X151000000Y-90000000D01*
%TD*%
%TA.AperFunction,Conductor*%
%TO.N,GND*%
G36*
X164006922Y-63501280D02*
G01*
X164097266Y-63511459D01*
X164124331Y-63517636D01*
X164203540Y-63545352D01*
X164228553Y-63557398D01*
X164299606Y-63602043D01*
X164321313Y-63619355D01*
X164380644Y-63678686D01*
X164397957Y-63700395D01*
X164442600Y-63771444D01*
X164454648Y-63796462D01*
X164482362Y-63875666D01*
X164488540Y-63902735D01*
X164498720Y-63993076D01*
X164499500Y-64006961D01*
X164499500Y-109993038D01*
X164498720Y-110006922D01*
X164498720Y-110006923D01*
X164488540Y-110097264D01*
X164482362Y-110124333D01*
X164454648Y-110203537D01*
X164442600Y-110228555D01*
X164397957Y-110299604D01*
X164380644Y-110321313D01*
X164321313Y-110380644D01*
X164299604Y-110397957D01*
X164228555Y-110442600D01*
X164203537Y-110454648D01*
X164124333Y-110482362D01*
X164097264Y-110488540D01*
X164017075Y-110497576D01*
X164006921Y-110498720D01*
X163993038Y-110499500D01*
X136006962Y-110499500D01*
X135993078Y-110498720D01*
X135980553Y-110497308D01*
X135902735Y-110488540D01*
X135875666Y-110482362D01*
X135796462Y-110454648D01*
X135771444Y-110442600D01*
X135700395Y-110397957D01*
X135678686Y-110380644D01*
X135619355Y-110321313D01*
X135602042Y-110299604D01*
X135557399Y-110228555D01*
X135545351Y-110203537D01*
X135517637Y-110124333D01*
X135511459Y-110097263D01*
X135501280Y-110006922D01*
X135500500Y-109993038D01*
X135500500Y-105848336D01*
X136299500Y-105848336D01*
X136299500Y-106151663D01*
X136333457Y-106453048D01*
X136333460Y-106453062D01*
X136400953Y-106748771D01*
X136400957Y-106748783D01*
X136501133Y-107035068D01*
X136632733Y-107308338D01*
X136632735Y-107308341D01*
X136794108Y-107565164D01*
X136983221Y-107802304D01*
X137197696Y-108016779D01*
X137434836Y-108205892D01*
X137691659Y-108367265D01*
X137964935Y-108498868D01*
X138179951Y-108574105D01*
X138251216Y-108599042D01*
X138251228Y-108599046D01*
X138546937Y-108666540D01*
X138546946Y-108666541D01*
X138546951Y-108666542D01*
X138747874Y-108689180D01*
X138848337Y-108700499D01*
X138848340Y-108700500D01*
X138848343Y-108700500D01*
X139151660Y-108700500D01*
X139151661Y-108700499D01*
X139305694Y-108683144D01*
X139453048Y-108666542D01*
X139453051Y-108666541D01*
X139453063Y-108666540D01*
X139748772Y-108599046D01*
X140035065Y-108498868D01*
X140308341Y-108367265D01*
X140565164Y-108205892D01*
X140802304Y-108016779D01*
X141016779Y-107802304D01*
X141205892Y-107565164D01*
X141367265Y-107308341D01*
X141498868Y-107035065D01*
X141599046Y-106748772D01*
X141666540Y-106453063D01*
X141700500Y-106151657D01*
X141700500Y-105848343D01*
X141700499Y-105848336D01*
X158299500Y-105848336D01*
X158299500Y-106151663D01*
X158333457Y-106453048D01*
X158333460Y-106453062D01*
X158400953Y-106748771D01*
X158400957Y-106748783D01*
X158501133Y-107035068D01*
X158632733Y-107308338D01*
X158632735Y-107308341D01*
X158794108Y-107565164D01*
X158983221Y-107802304D01*
X159197696Y-108016779D01*
X159434836Y-108205892D01*
X159691659Y-108367265D01*
X159964935Y-108498868D01*
X160179951Y-108574105D01*
X160251216Y-108599042D01*
X160251228Y-108599046D01*
X160546937Y-108666540D01*
X160546946Y-108666541D01*
X160546951Y-108666542D01*
X160747874Y-108689180D01*
X160848337Y-108700499D01*
X160848340Y-108700500D01*
X160848343Y-108700500D01*
X161151660Y-108700500D01*
X161151661Y-108700499D01*
X161305694Y-108683144D01*
X161453048Y-108666542D01*
X161453051Y-108666541D01*
X161453063Y-108666540D01*
X161748772Y-108599046D01*
X162035065Y-108498868D01*
X162308341Y-108367265D01*
X162565164Y-108205892D01*
X162802304Y-108016779D01*
X163016779Y-107802304D01*
X163205892Y-107565164D01*
X163367265Y-107308341D01*
X163498868Y-107035065D01*
X163599046Y-106748772D01*
X163666540Y-106453063D01*
X163700500Y-106151657D01*
X163700500Y-105848343D01*
X163666540Y-105546937D01*
X163599046Y-105251228D01*
X163498868Y-104964935D01*
X163367265Y-104691659D01*
X163205892Y-104434836D01*
X163016779Y-104197696D01*
X162802304Y-103983221D01*
X162565164Y-103794108D01*
X162308341Y-103632735D01*
X162308338Y-103632733D01*
X162035068Y-103501133D01*
X161748783Y-103400957D01*
X161748771Y-103400953D01*
X161520556Y-103348864D01*
X161453063Y-103333460D01*
X161453060Y-103333459D01*
X161453048Y-103333457D01*
X161151663Y-103299500D01*
X161151657Y-103299500D01*
X160848343Y-103299500D01*
X160848336Y-103299500D01*
X160546951Y-103333457D01*
X160546937Y-103333460D01*
X160251228Y-103400953D01*
X160251216Y-103400957D01*
X159964931Y-103501133D01*
X159691661Y-103632733D01*
X159434837Y-103794107D01*
X159197696Y-103983220D01*
X158983220Y-104197696D01*
X158794107Y-104434837D01*
X158632733Y-104691661D01*
X158501133Y-104964931D01*
X158400957Y-105251216D01*
X158400953Y-105251228D01*
X158333460Y-105546937D01*
X158333457Y-105546951D01*
X158299500Y-105848336D01*
X141700499Y-105848336D01*
X141666540Y-105546937D01*
X141599046Y-105251228D01*
X141498868Y-104964935D01*
X141367265Y-104691659D01*
X141205892Y-104434836D01*
X141016779Y-104197696D01*
X140802304Y-103983221D01*
X140565164Y-103794108D01*
X140308341Y-103632735D01*
X140308338Y-103632733D01*
X140035068Y-103501133D01*
X139748783Y-103400957D01*
X139748771Y-103400953D01*
X139520556Y-103348864D01*
X139453063Y-103333460D01*
X139453060Y-103333459D01*
X139453048Y-103333457D01*
X139151663Y-103299500D01*
X139151657Y-103299500D01*
X138848343Y-103299500D01*
X138848336Y-103299500D01*
X138546951Y-103333457D01*
X138546937Y-103333460D01*
X138251228Y-103400953D01*
X138251216Y-103400957D01*
X137964931Y-103501133D01*
X137691661Y-103632733D01*
X137434837Y-103794107D01*
X137197696Y-103983220D01*
X136983220Y-104197696D01*
X136794107Y-104434837D01*
X136632733Y-104691661D01*
X136501133Y-104964931D01*
X136400957Y-105251216D01*
X136400953Y-105251228D01*
X136333460Y-105546937D01*
X136333457Y-105546951D01*
X136299500Y-105848336D01*
X135500500Y-105848336D01*
X135500500Y-94935848D01*
X142006500Y-94935848D01*
X142006500Y-95194551D01*
X142046967Y-95450050D01*
X142046968Y-95450054D01*
X142126909Y-95696085D01*
X142244353Y-95926582D01*
X142396408Y-96135868D01*
X142579332Y-96318792D01*
X142788618Y-96470847D01*
X143019115Y-96588291D01*
X143265146Y-96668232D01*
X143358591Y-96683032D01*
X143520649Y-96708700D01*
X143520654Y-96708700D01*
X143779351Y-96708700D01*
X143941409Y-96683032D01*
X144034854Y-96668232D01*
X144280885Y-96588291D01*
X144511382Y-96470847D01*
X144720668Y-96318792D01*
X144903592Y-96135868D01*
X145055647Y-95926582D01*
X145173091Y-95696085D01*
X145253032Y-95450054D01*
X145271017Y-95336494D01*
X145293500Y-95194551D01*
X145293500Y-94935848D01*
X145266521Y-94765515D01*
X145253032Y-94680346D01*
X145173091Y-94434315D01*
X145055647Y-94203818D01*
X144903592Y-93994532D01*
X144720668Y-93811608D01*
X144511382Y-93659553D01*
X144280885Y-93542109D01*
X144034854Y-93462168D01*
X144034852Y-93462167D01*
X144034850Y-93462167D01*
X143779351Y-93421700D01*
X143779346Y-93421700D01*
X143520654Y-93421700D01*
X143520649Y-93421700D01*
X143265149Y-93462167D01*
X143019112Y-93542110D01*
X142788617Y-93659553D01*
X142579329Y-93811610D01*
X142396410Y-93994529D01*
X142244353Y-94203817D01*
X142126910Y-94434312D01*
X142046967Y-94680349D01*
X142006500Y-94935848D01*
X135500500Y-94935848D01*
X135500500Y-73848336D01*
X136299500Y-73848336D01*
X136299500Y-74151663D01*
X136333457Y-74453048D01*
X136333460Y-74453062D01*
X136400953Y-74748771D01*
X136400957Y-74748783D01*
X136501133Y-75035068D01*
X136632733Y-75308338D01*
X136632735Y-75308341D01*
X136794108Y-75565164D01*
X136983221Y-75802304D01*
X137197696Y-76016779D01*
X137434836Y-76205892D01*
X137691659Y-76367265D01*
X137964935Y-76498868D01*
X138139924Y-76560099D01*
X138251216Y-76599042D01*
X138251228Y-76599046D01*
X138546937Y-76666540D01*
X138546946Y-76666541D01*
X138546951Y-76666542D01*
X138747874Y-76689180D01*
X138848337Y-76700499D01*
X138848340Y-76700500D01*
X138848343Y-76700500D01*
X139151660Y-76700500D01*
X139151661Y-76700499D01*
X139305694Y-76683144D01*
X139453048Y-76666542D01*
X139453051Y-76666541D01*
X139453063Y-76666540D01*
X139748772Y-76599046D01*
X140035065Y-76498868D01*
X140308341Y-76367265D01*
X140565164Y-76205892D01*
X140802304Y-76016779D01*
X141016779Y-75802304D01*
X141205892Y-75565164D01*
X141367265Y-75308341D01*
X141498868Y-75035065D01*
X141599046Y-74748772D01*
X141654609Y-74505334D01*
X141688718Y-74444357D01*
X141750379Y-74411499D01*
X141820016Y-74417194D01*
X141875520Y-74459634D01*
X141899268Y-74525344D01*
X141899500Y-74532928D01*
X141899500Y-81419902D01*
X141879815Y-81486941D01*
X141863181Y-81507583D01*
X140629482Y-82741281D01*
X140629480Y-82741283D01*
X140621157Y-82755700D01*
X140612951Y-82769914D01*
X140550423Y-82878215D01*
X140509499Y-83030943D01*
X140509499Y-83030945D01*
X140509499Y-83199046D01*
X140509500Y-83199059D01*
X140509500Y-86130509D01*
X140489815Y-86197548D01*
X140441796Y-86240993D01*
X140381741Y-86271593D01*
X140204806Y-86400142D01*
X140050142Y-86554806D01*
X139921595Y-86731739D01*
X139822298Y-86926616D01*
X139822297Y-86926619D01*
X139754714Y-87134623D01*
X139720500Y-87350638D01*
X139720500Y-87569361D01*
X139754714Y-87785376D01*
X139822297Y-87993380D01*
X139822298Y-87993383D01*
X139889782Y-88125825D01*
X139919703Y-88184548D01*
X139921595Y-88188260D01*
X140050142Y-88365193D01*
X140050148Y-88365199D01*
X140204801Y-88519852D01*
X140338284Y-88616832D01*
X140380949Y-88672161D01*
X140386928Y-88741774D01*
X140354323Y-88803570D01*
X140338284Y-88817468D01*
X140189802Y-88925346D01*
X140035142Y-89080006D01*
X139906595Y-89256939D01*
X139807298Y-89451816D01*
X139807297Y-89451819D01*
X139739714Y-89659823D01*
X139705500Y-89875838D01*
X139705500Y-90094561D01*
X139739714Y-90310576D01*
X139807297Y-90518580D01*
X139807298Y-90518583D01*
X139859884Y-90621786D01*
X139904524Y-90709397D01*
X139906595Y-90713460D01*
X140035142Y-90890393D01*
X140035148Y-90890399D01*
X140189801Y-91045052D01*
X140341395Y-91155191D01*
X140384060Y-91210519D01*
X140390039Y-91280132D01*
X140357434Y-91341928D01*
X140341394Y-91355826D01*
X140305360Y-91382005D01*
X140305360Y-91382007D01*
X141010905Y-92087552D01*
X140923429Y-92110992D01*
X140822070Y-92169511D01*
X140739311Y-92252270D01*
X140680792Y-92353629D01*
X140657352Y-92441105D01*
X139951807Y-91735560D01*
X139951806Y-91735560D01*
X139907023Y-91797201D01*
X139807762Y-91992008D01*
X139807761Y-91992011D01*
X139740202Y-92199940D01*
X139706000Y-92415883D01*
X139706000Y-92634516D01*
X139740202Y-92850459D01*
X139807761Y-93058388D01*
X139807762Y-93058391D01*
X139907020Y-93253193D01*
X139907021Y-93253195D01*
X139951806Y-93314838D01*
X139951807Y-93314838D01*
X140657352Y-92609293D01*
X140680792Y-92696771D01*
X140739311Y-92798130D01*
X140822070Y-92880889D01*
X140923429Y-92939408D01*
X141010905Y-92962847D01*
X140305360Y-93668391D01*
X140367008Y-93713180D01*
X140561808Y-93812437D01*
X140561811Y-93812438D01*
X140769740Y-93879997D01*
X140985684Y-93914200D01*
X141204316Y-93914200D01*
X141420259Y-93879997D01*
X141628188Y-93812438D01*
X141628191Y-93812437D01*
X141822995Y-93713178D01*
X141884638Y-93668391D01*
X141884639Y-93668391D01*
X141179094Y-92962847D01*
X141266571Y-92939408D01*
X141367930Y-92880889D01*
X141450689Y-92798130D01*
X141509208Y-92696771D01*
X141532647Y-92609294D01*
X142238191Y-93314839D01*
X142238191Y-93314838D01*
X142282978Y-93253195D01*
X142382237Y-93058391D01*
X142382238Y-93058388D01*
X142449797Y-92850459D01*
X142484000Y-92634516D01*
X142484000Y-92415883D01*
X142449797Y-92199940D01*
X142382238Y-91992011D01*
X142382237Y-91992008D01*
X142282980Y-91797208D01*
X142238191Y-91735560D01*
X141532647Y-92441104D01*
X141509208Y-92353629D01*
X141450689Y-92252270D01*
X141367930Y-92169511D01*
X141266571Y-92110992D01*
X141179092Y-92087552D01*
X141884638Y-91382007D01*
X141884638Y-91382006D01*
X141848606Y-91355828D01*
X141805939Y-91300499D01*
X141799959Y-91230885D01*
X141832565Y-91169090D01*
X141848599Y-91155194D01*
X142000199Y-91045052D01*
X142154852Y-90890399D01*
X142154854Y-90890395D01*
X142154857Y-90890393D01*
X142236513Y-90778001D01*
X142283407Y-90713457D01*
X142382701Y-90518583D01*
X142450286Y-90310575D01*
X142467912Y-90199282D01*
X142484500Y-90094561D01*
X142484500Y-89875838D01*
X142458535Y-89711906D01*
X142450286Y-89659825D01*
X142416493Y-89555821D01*
X142382702Y-89451819D01*
X142382701Y-89451816D01*
X142348315Y-89384332D01*
X142283407Y-89256943D01*
X142275147Y-89245574D01*
X142154857Y-89080006D01*
X142000193Y-88925342D01*
X141866716Y-88828367D01*
X141824050Y-88773038D01*
X141818071Y-88703424D01*
X141850676Y-88641629D01*
X141866716Y-88627731D01*
X142015193Y-88519857D01*
X142015195Y-88519854D01*
X142015199Y-88519852D01*
X142169852Y-88365199D01*
X142169854Y-88365195D01*
X142169857Y-88365193D01*
X142255400Y-88247451D01*
X142298407Y-88188257D01*
X142397701Y-87993383D01*
X142465286Y-87785375D01*
X142483377Y-87671153D01*
X142499500Y-87569361D01*
X142499500Y-87350638D01*
X142479595Y-87224971D01*
X142465286Y-87134625D01*
X142415132Y-86980264D01*
X142397702Y-86926619D01*
X142397701Y-86926616D01*
X142363315Y-86859132D01*
X142298407Y-86731743D01*
X142290147Y-86720374D01*
X142169857Y-86554806D01*
X142015193Y-86400142D01*
X141838258Y-86271593D01*
X141778204Y-86240993D01*
X141727408Y-86193018D01*
X141710500Y-86130509D01*
X141710500Y-84805848D01*
X142006500Y-84805848D01*
X142006500Y-85064551D01*
X142045946Y-85313604D01*
X142046968Y-85320054D01*
X142126909Y-85566085D01*
X142244353Y-85796582D01*
X142396408Y-86005868D01*
X142579332Y-86188792D01*
X142788618Y-86340847D01*
X143019115Y-86458291D01*
X143265146Y-86538232D01*
X143360961Y-86553407D01*
X143520649Y-86578700D01*
X143520654Y-86578700D01*
X143779351Y-86578700D01*
X143921294Y-86556217D01*
X144034854Y-86538232D01*
X144280885Y-86458291D01*
X144511382Y-86340847D01*
X144720668Y-86188792D01*
X144903592Y-86005868D01*
X145055647Y-85796582D01*
X145173091Y-85566085D01*
X145253032Y-85320054D01*
X145274414Y-85185052D01*
X145293500Y-85064551D01*
X145293500Y-84805848D01*
X145263550Y-84616755D01*
X145253032Y-84550346D01*
X145173091Y-84304315D01*
X145055647Y-84073818D01*
X145013522Y-84015838D01*
X145435500Y-84015838D01*
X145435500Y-84234561D01*
X145459195Y-84384172D01*
X145459199Y-84384189D01*
X145469714Y-84450575D01*
X145504130Y-84556498D01*
X145504135Y-84556517D01*
X145537297Y-84658580D01*
X145537298Y-84658583D01*
X145636595Y-84853460D01*
X145765142Y-85030393D01*
X145919806Y-85185057D01*
X146084690Y-85304850D01*
X146096743Y-85313607D01*
X146224132Y-85378515D01*
X146291616Y-85412901D01*
X146291619Y-85412902D01*
X146395621Y-85446693D01*
X146499625Y-85480486D01*
X146599672Y-85496332D01*
X146715639Y-85514700D01*
X146715644Y-85514700D01*
X146934361Y-85514700D01*
X147039082Y-85498112D01*
X147150375Y-85480486D01*
X147358383Y-85412901D01*
X147553257Y-85313607D01*
X147652601Y-85241429D01*
X147730193Y-85185057D01*
X147730195Y-85185054D01*
X147730199Y-85185052D01*
X147884852Y-85030399D01*
X147884854Y-85030395D01*
X147884857Y-85030393D01*
X147954318Y-84934787D01*
X148013407Y-84853457D01*
X148112701Y-84658583D01*
X148121244Y-84632288D01*
X148160680Y-84574612D01*
X148225038Y-84547413D01*
X148293885Y-84559325D01*
X148342278Y-84601712D01*
X148378213Y-84655492D01*
X148489707Y-84766986D01*
X148489711Y-84766989D01*
X148620814Y-84854590D01*
X148620827Y-84854597D01*
X148738920Y-84903512D01*
X148766503Y-84914937D01*
X148921153Y-84945699D01*
X148921156Y-84945700D01*
X148921158Y-84945700D01*
X149078844Y-84945700D01*
X149078845Y-84945699D01*
X149233497Y-84914937D01*
X149243047Y-84910980D01*
X149312516Y-84903512D01*
X149374995Y-84934787D01*
X149410648Y-84994876D01*
X149414500Y-85025542D01*
X149414500Y-97565709D01*
X149394815Y-97632748D01*
X149346796Y-97676193D01*
X149286741Y-97706793D01*
X149109806Y-97835342D01*
X148955146Y-97990002D01*
X148955142Y-97990007D01*
X148852273Y-98131595D01*
X148796943Y-98174261D01*
X148727330Y-98180240D01*
X148665535Y-98147634D01*
X148651636Y-98131594D01*
X148618191Y-98085560D01*
X147912647Y-98791104D01*
X147889208Y-98703629D01*
X147830689Y-98602270D01*
X147747930Y-98519511D01*
X147646571Y-98460992D01*
X147559092Y-98437552D01*
X148264638Y-97732007D01*
X148264638Y-97732006D01*
X148202995Y-97687221D01*
X148202993Y-97687220D01*
X148008191Y-97587962D01*
X148008188Y-97587961D01*
X147800259Y-97520402D01*
X147584316Y-97486200D01*
X147365684Y-97486200D01*
X147149740Y-97520402D01*
X146941811Y-97587961D01*
X146941808Y-97587962D01*
X146747001Y-97687223D01*
X146685360Y-97732006D01*
X146685360Y-97732007D01*
X147390905Y-98437552D01*
X147303429Y-98460992D01*
X147202070Y-98519511D01*
X147119311Y-98602270D01*
X147060792Y-98703629D01*
X147037352Y-98791105D01*
X146331807Y-98085560D01*
X146331806Y-98085560D01*
X146287023Y-98147201D01*
X146187762Y-98342008D01*
X146187761Y-98342011D01*
X146120202Y-98549940D01*
X146086000Y-98765883D01*
X146086000Y-98984516D01*
X146120202Y-99200459D01*
X146187761Y-99408388D01*
X146187762Y-99408391D01*
X146287020Y-99603193D01*
X146287021Y-99603195D01*
X146331806Y-99664838D01*
X146331807Y-99664838D01*
X147037352Y-98959293D01*
X147060792Y-99046771D01*
X147119311Y-99148130D01*
X147202070Y-99230889D01*
X147303429Y-99289408D01*
X147390905Y-99312847D01*
X146685360Y-100018391D01*
X146747008Y-100063180D01*
X146941808Y-100162437D01*
X146941811Y-100162438D01*
X147149740Y-100229997D01*
X147365684Y-100264200D01*
X147584316Y-100264200D01*
X147800259Y-100229997D01*
X148008188Y-100162438D01*
X148008191Y-100162437D01*
X148202995Y-100063178D01*
X148264638Y-100018391D01*
X148264639Y-100018391D01*
X147559094Y-99312847D01*
X147646571Y-99289408D01*
X147747930Y-99230889D01*
X147830689Y-99148130D01*
X147889208Y-99046771D01*
X147912647Y-98959295D01*
X148618191Y-99664839D01*
X148618192Y-99664838D01*
X148637107Y-99638805D01*
X148692437Y-99596139D01*
X148762050Y-99590160D01*
X148823845Y-99622766D01*
X148837743Y-99638805D01*
X148955142Y-99800392D01*
X148955146Y-99800397D01*
X149109806Y-99955057D01*
X149258625Y-100063178D01*
X149286743Y-100083607D01*
X149414132Y-100148515D01*
X149481616Y-100182901D01*
X149481619Y-100182902D01*
X149585621Y-100216693D01*
X149689625Y-100250486D01*
X149776212Y-100264200D01*
X149905639Y-100284700D01*
X149905644Y-100284700D01*
X150124361Y-100284700D01*
X150229082Y-100268112D01*
X150340375Y-100250486D01*
X150548383Y-100182901D01*
X150743257Y-100083607D01*
X150842601Y-100011429D01*
X150920193Y-99955057D01*
X150920195Y-99955054D01*
X150920199Y-99955052D01*
X151074852Y-99800399D01*
X151191949Y-99639227D01*
X151247276Y-99596564D01*
X151316889Y-99590585D01*
X151378684Y-99623190D01*
X151392580Y-99639225D01*
X151495144Y-99780393D01*
X151495148Y-99780399D01*
X151649806Y-99935057D01*
X151764508Y-100018391D01*
X151826743Y-100063607D01*
X151954132Y-100128515D01*
X152021616Y-100162901D01*
X152021619Y-100162902D01*
X152125621Y-100196693D01*
X152229625Y-100230486D01*
X152329672Y-100246332D01*
X152445639Y-100264700D01*
X152445644Y-100264700D01*
X152664361Y-100264700D01*
X152769082Y-100248112D01*
X152880375Y-100230486D01*
X153088383Y-100162901D01*
X153283257Y-100063607D01*
X153382601Y-99991429D01*
X153460193Y-99935057D01*
X153460195Y-99935054D01*
X153460199Y-99935052D01*
X153614852Y-99780399D01*
X153614854Y-99780395D01*
X153614857Y-99780393D01*
X153671229Y-99702801D01*
X153743407Y-99603457D01*
X153842701Y-99408583D01*
X153910286Y-99200575D01*
X153934646Y-99046771D01*
X153944500Y-98984561D01*
X153944500Y-98765838D01*
X153918592Y-98602270D01*
X153910286Y-98549825D01*
X153876493Y-98445821D01*
X153842702Y-98341819D01*
X153842701Y-98341816D01*
X153808315Y-98274332D01*
X153743407Y-98146943D01*
X153698810Y-98085560D01*
X153614857Y-97970006D01*
X153460193Y-97815342D01*
X153283258Y-97686793D01*
X153223204Y-97656193D01*
X153172408Y-97608218D01*
X153155500Y-97545709D01*
X153155500Y-94950648D01*
X154706500Y-94950648D01*
X154706500Y-95209351D01*
X154744623Y-95450050D01*
X154746968Y-95464854D01*
X154826909Y-95710885D01*
X154944353Y-95941382D01*
X155096408Y-96150668D01*
X155279332Y-96333592D01*
X155488618Y-96485647D01*
X155719115Y-96603091D01*
X155965146Y-96683032D01*
X156060961Y-96698207D01*
X156220649Y-96723500D01*
X156220654Y-96723500D01*
X156479351Y-96723500D01*
X156621294Y-96701017D01*
X156734854Y-96683032D01*
X156980885Y-96603091D01*
X157211382Y-96485647D01*
X157420668Y-96333592D01*
X157603592Y-96150668D01*
X157755647Y-95941382D01*
X157873091Y-95710885D01*
X157953032Y-95464854D01*
X157971017Y-95351294D01*
X157993500Y-95209351D01*
X157993500Y-94950648D01*
X157953032Y-94695149D01*
X157953032Y-94695146D01*
X157873091Y-94449115D01*
X157755647Y-94218618D01*
X157603592Y-94009332D01*
X157420668Y-93826408D01*
X157211382Y-93674353D01*
X156980885Y-93556909D01*
X156734854Y-93476968D01*
X156734852Y-93476967D01*
X156734850Y-93476967D01*
X156479351Y-93436500D01*
X156479346Y-93436500D01*
X156220654Y-93436500D01*
X156220649Y-93436500D01*
X155965149Y-93476967D01*
X155719112Y-93556910D01*
X155488617Y-93674353D01*
X155279329Y-93826410D01*
X155096410Y-94009329D01*
X154944353Y-94218617D01*
X154826910Y-94449112D01*
X154746967Y-94695149D01*
X154706500Y-94950648D01*
X153155500Y-94950648D01*
X153155500Y-88247451D01*
X153175185Y-88180412D01*
X153176398Y-88178560D01*
X153209394Y-88129179D01*
X153269737Y-87983497D01*
X153300500Y-87828842D01*
X153300500Y-87671158D01*
X153300500Y-87671155D01*
X153300499Y-87671153D01*
X153269738Y-87516510D01*
X153269737Y-87516503D01*
X153269735Y-87516498D01*
X153209397Y-87370827D01*
X153209390Y-87370814D01*
X153121789Y-87239711D01*
X153121786Y-87239707D01*
X153010292Y-87128213D01*
X153010288Y-87128210D01*
X152879185Y-87040609D01*
X152879172Y-87040602D01*
X152733501Y-86980264D01*
X152733489Y-86980261D01*
X152578845Y-86949500D01*
X152578842Y-86949500D01*
X152421158Y-86949500D01*
X152421155Y-86949500D01*
X152266510Y-86980261D01*
X152266498Y-86980264D01*
X152120827Y-87040602D01*
X152120814Y-87040609D01*
X151989711Y-87128210D01*
X151989707Y-87128213D01*
X151878213Y-87239707D01*
X151878210Y-87239711D01*
X151827602Y-87315451D01*
X151773989Y-87360256D01*
X151704664Y-87368963D01*
X151641637Y-87338808D01*
X151604918Y-87279365D01*
X151600500Y-87246560D01*
X151600500Y-84548033D01*
X151620185Y-84480994D01*
X151672989Y-84435239D01*
X151742147Y-84425295D01*
X151805703Y-84454320D01*
X151842431Y-84509715D01*
X151897297Y-84678580D01*
X151897298Y-84678583D01*
X151942343Y-84766986D01*
X151986983Y-84854597D01*
X151996595Y-84873460D01*
X152125142Y-85050393D01*
X152279806Y-85205057D01*
X152429211Y-85313604D01*
X152456743Y-85333607D01*
X152584132Y-85398515D01*
X152651616Y-85432901D01*
X152651619Y-85432902D01*
X152755621Y-85466693D01*
X152859625Y-85500486D01*
X152949369Y-85514700D01*
X153075639Y-85534700D01*
X153075644Y-85534700D01*
X153294361Y-85534700D01*
X153399082Y-85518112D01*
X153510375Y-85500486D01*
X153718383Y-85432901D01*
X153913257Y-85333607D01*
X154012601Y-85261429D01*
X154090193Y-85205057D01*
X154090195Y-85205054D01*
X154090199Y-85205052D01*
X154244852Y-85050399D01*
X154244854Y-85050395D01*
X154244857Y-85050393D01*
X154343270Y-84914937D01*
X154373407Y-84873457D01*
X154472701Y-84678583D01*
X154472703Y-84678577D01*
X154476609Y-84666557D01*
X154516046Y-84608881D01*
X154580404Y-84581682D01*
X154649250Y-84593596D01*
X154700727Y-84640840D01*
X154718489Y-84708414D01*
X154717013Y-84724272D01*
X154706500Y-84790648D01*
X154706500Y-85049351D01*
X154746967Y-85304850D01*
X154746968Y-85304854D01*
X154826909Y-85550885D01*
X154944353Y-85781382D01*
X155096408Y-85990668D01*
X155279332Y-86173592D01*
X155488618Y-86325647D01*
X155719115Y-86443091D01*
X155965146Y-86523032D01*
X156060961Y-86538207D01*
X156220649Y-86563500D01*
X156220654Y-86563500D01*
X156479351Y-86563500D01*
X156621294Y-86541017D01*
X156734854Y-86523032D01*
X156980885Y-86443091D01*
X157211382Y-86325647D01*
X157420668Y-86173592D01*
X157603592Y-85990668D01*
X157755647Y-85781382D01*
X157873091Y-85550885D01*
X157953032Y-85304854D01*
X157972007Y-85185052D01*
X157993500Y-85049351D01*
X157993500Y-84790648D01*
X157960402Y-84581682D01*
X157953032Y-84535146D01*
X157873091Y-84289115D01*
X157755647Y-84058618D01*
X157603592Y-83849332D01*
X157420668Y-83666408D01*
X157211382Y-83514353D01*
X156980885Y-83396909D01*
X156734854Y-83316968D01*
X156734852Y-83316967D01*
X156734850Y-83316967D01*
X156479351Y-83276500D01*
X156479346Y-83276500D01*
X156220654Y-83276500D01*
X156220649Y-83276500D01*
X155965149Y-83316967D01*
X155719112Y-83396910D01*
X155488617Y-83514353D01*
X155279329Y-83666410D01*
X155096410Y-83849329D01*
X154944353Y-84058617D01*
X154826908Y-84289114D01*
X154810642Y-84339176D01*
X154771204Y-84396851D01*
X154706845Y-84424048D01*
X154637998Y-84412132D01*
X154586523Y-84364887D01*
X154568763Y-84297313D01*
X154570237Y-84281465D01*
X154574500Y-84254556D01*
X154574500Y-84035844D01*
X154574500Y-84035838D01*
X154543221Y-83838359D01*
X154540286Y-83819825D01*
X154490439Y-83666410D01*
X154472702Y-83611819D01*
X154472701Y-83611816D01*
X154423040Y-83514353D01*
X154373407Y-83416943D01*
X154331117Y-83358735D01*
X154244857Y-83240006D01*
X154090193Y-83085342D01*
X153913260Y-82956795D01*
X153913259Y-82956794D01*
X153913257Y-82956793D01*
X153850825Y-82924982D01*
X153718383Y-82857498D01*
X153718380Y-82857497D01*
X153510376Y-82789914D01*
X153294361Y-82755700D01*
X153294356Y-82755700D01*
X153075644Y-82755700D01*
X153075639Y-82755700D01*
X152859623Y-82789914D01*
X152651619Y-82857497D01*
X152651616Y-82857498D01*
X152456739Y-82956795D01*
X152279806Y-83085342D01*
X152125142Y-83240006D01*
X151996595Y-83416939D01*
X151897298Y-83611816D01*
X151897297Y-83611819D01*
X151842431Y-83780684D01*
X151802994Y-83838359D01*
X151738635Y-83865558D01*
X151669789Y-83853644D01*
X151618313Y-83806400D01*
X151600500Y-83742366D01*
X151600500Y-79636991D01*
X151620185Y-79569952D01*
X151672989Y-79524197D01*
X151742147Y-79514253D01*
X151805703Y-79543278D01*
X151842431Y-79598673D01*
X151887761Y-79738188D01*
X151887762Y-79738191D01*
X151987020Y-79932993D01*
X151987021Y-79932995D01*
X152031806Y-79994638D01*
X152031807Y-79994638D01*
X152732861Y-79293584D01*
X152755667Y-79378694D01*
X152814910Y-79481306D01*
X152898694Y-79565090D01*
X153001306Y-79624333D01*
X153086414Y-79647137D01*
X152385360Y-80348191D01*
X152447008Y-80392980D01*
X152641808Y-80492237D01*
X152641811Y-80492238D01*
X152849740Y-80559797D01*
X153065684Y-80594000D01*
X153284316Y-80594000D01*
X153500259Y-80559797D01*
X153708188Y-80492238D01*
X153708191Y-80492237D01*
X153902995Y-80392978D01*
X153964638Y-80348191D01*
X153964639Y-80348191D01*
X153263585Y-79647138D01*
X153348694Y-79624333D01*
X153451306Y-79565090D01*
X153535090Y-79481306D01*
X153594333Y-79378694D01*
X153617137Y-79293585D01*
X154318191Y-79994639D01*
X154318191Y-79994638D01*
X154362978Y-79932995D01*
X154462237Y-79738191D01*
X154462238Y-79738188D01*
X154529797Y-79530259D01*
X154564000Y-79314316D01*
X154564000Y-79095683D01*
X154529797Y-78879740D01*
X154462238Y-78671811D01*
X154462237Y-78671808D01*
X154362980Y-78477008D01*
X154318191Y-78415360D01*
X153617137Y-79116414D01*
X153594333Y-79031306D01*
X153535090Y-78928694D01*
X153451306Y-78844910D01*
X153348694Y-78785667D01*
X153263583Y-78762861D01*
X153964638Y-78061807D01*
X153964638Y-78061806D01*
X153902995Y-78017021D01*
X153902993Y-78017020D01*
X153708191Y-77917762D01*
X153708188Y-77917761D01*
X153500259Y-77850202D01*
X153284316Y-77816000D01*
X153065684Y-77816000D01*
X152849740Y-77850202D01*
X152641811Y-77917761D01*
X152641808Y-77917762D01*
X152447001Y-78017023D01*
X152385360Y-78061806D01*
X152385360Y-78061807D01*
X153086414Y-78762861D01*
X153001306Y-78785667D01*
X152898694Y-78844910D01*
X152814910Y-78928694D01*
X152755667Y-79031306D01*
X152732861Y-79116414D01*
X152031807Y-78415360D01*
X152031806Y-78415360D01*
X151987023Y-78477001D01*
X151887762Y-78671808D01*
X151887761Y-78671811D01*
X151842431Y-78811326D01*
X151802994Y-78869001D01*
X151738635Y-78896200D01*
X151669789Y-78884285D01*
X151618313Y-78837041D01*
X151600500Y-78773008D01*
X151600500Y-74079765D01*
X151620185Y-74012726D01*
X151621398Y-74010874D01*
X151709390Y-73879185D01*
X151709390Y-73879184D01*
X151709394Y-73879179D01*
X151769737Y-73733497D01*
X151800500Y-73578842D01*
X151800500Y-73421158D01*
X151800500Y-73421155D01*
X151800499Y-73421153D01*
X151769738Y-73266510D01*
X151769737Y-73266503D01*
X151763405Y-73251216D01*
X151709397Y-73120827D01*
X151709390Y-73120814D01*
X151621789Y-72989711D01*
X151621786Y-72989707D01*
X151510292Y-72878213D01*
X151510288Y-72878210D01*
X151379185Y-72790609D01*
X151379172Y-72790602D01*
X151233501Y-72730264D01*
X151233489Y-72730261D01*
X151078845Y-72699500D01*
X151078842Y-72699500D01*
X150921158Y-72699500D01*
X150921155Y-72699500D01*
X150766510Y-72730261D01*
X150760676Y-72732031D01*
X150759873Y-72729385D01*
X150739114Y-72731543D01*
X150706853Y-72736182D01*
X150704561Y-72735135D01*
X150702056Y-72735396D01*
X150672959Y-72720703D01*
X150643297Y-72707157D01*
X150641934Y-72705036D01*
X150639687Y-72703902D01*
X150623152Y-72675811D01*
X150605523Y-72648379D01*
X150605043Y-72645046D01*
X150604245Y-72643689D01*
X150600500Y-72613444D01*
X150600500Y-72579765D01*
X150620185Y-72512726D01*
X150621398Y-72510874D01*
X150709390Y-72379185D01*
X150709390Y-72379184D01*
X150709394Y-72379179D01*
X150769737Y-72233497D01*
X150800500Y-72078842D01*
X150800500Y-71921158D01*
X150800500Y-71921155D01*
X150800499Y-71921153D01*
X150775228Y-71794108D01*
X150769737Y-71766503D01*
X150714329Y-71632735D01*
X150709397Y-71620827D01*
X150709390Y-71620814D01*
X150621789Y-71489711D01*
X150621786Y-71489707D01*
X150510292Y-71378213D01*
X150510288Y-71378210D01*
X150379185Y-71290609D01*
X150379172Y-71290602D01*
X150233501Y-71230264D01*
X150233489Y-71230261D01*
X150078845Y-71199500D01*
X150078842Y-71199500D01*
X149924500Y-71199500D01*
X149857461Y-71179815D01*
X149811706Y-71127011D01*
X149800500Y-71075500D01*
X149800500Y-70921155D01*
X149800499Y-70921153D01*
X149769737Y-70766503D01*
X149709794Y-70621786D01*
X149709397Y-70620827D01*
X149709390Y-70620814D01*
X149621789Y-70489711D01*
X149621786Y-70489707D01*
X149510292Y-70378213D01*
X149510288Y-70378210D01*
X149379185Y-70290609D01*
X149379172Y-70290602D01*
X149233501Y-70230264D01*
X149233489Y-70230261D01*
X149078845Y-70199500D01*
X149078842Y-70199500D01*
X148921158Y-70199500D01*
X148921155Y-70199500D01*
X148766510Y-70230261D01*
X148766498Y-70230264D01*
X148620827Y-70290602D01*
X148620814Y-70290609D01*
X148489711Y-70378210D01*
X148489707Y-70378213D01*
X148378213Y-70489707D01*
X148378210Y-70489711D01*
X148290609Y-70620814D01*
X148290602Y-70620827D01*
X148230264Y-70766498D01*
X148230261Y-70766510D01*
X148199500Y-70921153D01*
X148199500Y-71078846D01*
X148230261Y-71233489D01*
X148230264Y-71233501D01*
X148290602Y-71379172D01*
X148290609Y-71379185D01*
X148364461Y-71489711D01*
X148372092Y-71501132D01*
X148378602Y-71510874D01*
X148399480Y-71577551D01*
X148399500Y-71579765D01*
X148399500Y-78753208D01*
X148379815Y-78820247D01*
X148327011Y-78866002D01*
X148257853Y-78875946D01*
X148194297Y-78846921D01*
X148157569Y-78791526D01*
X148112238Y-78652011D01*
X148112237Y-78652008D01*
X148012980Y-78457208D01*
X147968191Y-78395560D01*
X147267137Y-79096614D01*
X147244333Y-79011506D01*
X147185090Y-78908894D01*
X147101306Y-78825110D01*
X146998694Y-78765867D01*
X146913583Y-78743061D01*
X147614638Y-78042007D01*
X147614638Y-78042006D01*
X147552995Y-77997221D01*
X147552993Y-77997220D01*
X147358191Y-77897962D01*
X147358188Y-77897961D01*
X147150259Y-77830402D01*
X146934316Y-77796200D01*
X146715684Y-77796200D01*
X146499740Y-77830402D01*
X146291811Y-77897961D01*
X146291808Y-77897962D01*
X146097001Y-77997223D01*
X146035360Y-78042006D01*
X146035360Y-78042007D01*
X146736414Y-78743061D01*
X146651306Y-78765867D01*
X146548694Y-78825110D01*
X146464910Y-78908894D01*
X146405667Y-79011506D01*
X146382861Y-79096614D01*
X145681807Y-78395560D01*
X145681806Y-78395560D01*
X145637023Y-78457201D01*
X145537762Y-78652008D01*
X145537761Y-78652011D01*
X145470202Y-78859940D01*
X145436000Y-79075883D01*
X145436000Y-79294516D01*
X145470202Y-79510459D01*
X145537761Y-79718388D01*
X145537762Y-79718391D01*
X145637020Y-79913193D01*
X145637021Y-79913195D01*
X145681806Y-79974838D01*
X145681807Y-79974838D01*
X146382861Y-79273784D01*
X146405667Y-79358894D01*
X146464910Y-79461506D01*
X146548694Y-79545290D01*
X146651306Y-79604533D01*
X146736414Y-79627337D01*
X146035360Y-80328391D01*
X146097008Y-80373180D01*
X146291808Y-80472437D01*
X146291811Y-80472438D01*
X146499740Y-80539997D01*
X146715684Y-80574200D01*
X146934316Y-80574200D01*
X147150259Y-80539997D01*
X147358188Y-80472438D01*
X147358191Y-80472437D01*
X147552995Y-80373178D01*
X147614638Y-80328391D01*
X147614639Y-80328391D01*
X146913585Y-79627338D01*
X146998694Y-79604533D01*
X147101306Y-79545290D01*
X147185090Y-79461506D01*
X147244333Y-79358894D01*
X147267137Y-79273785D01*
X147968191Y-79974839D01*
X147968191Y-79974838D01*
X148012978Y-79913195D01*
X148112237Y-79718391D01*
X148112238Y-79718388D01*
X148157569Y-79578873D01*
X148197006Y-79521198D01*
X148261365Y-79493999D01*
X148330211Y-79505913D01*
X148381687Y-79553157D01*
X148399500Y-79617191D01*
X148399500Y-83565434D01*
X148394171Y-83583579D01*
X148393834Y-83602488D01*
X148380333Y-83630706D01*
X148379815Y-83632473D01*
X148378602Y-83634326D01*
X148351023Y-83675600D01*
X148297410Y-83720404D01*
X148228085Y-83729111D01*
X148165058Y-83698956D01*
X148129990Y-83645026D01*
X148112702Y-83591819D01*
X148112701Y-83591816D01*
X148073231Y-83514353D01*
X148013407Y-83396943D01*
X148005147Y-83385574D01*
X147884857Y-83220006D01*
X147730193Y-83065342D01*
X147553260Y-82936795D01*
X147553259Y-82936794D01*
X147553257Y-82936793D01*
X147490825Y-82904982D01*
X147358383Y-82837498D01*
X147358380Y-82837497D01*
X147150376Y-82769914D01*
X146934361Y-82735700D01*
X146934356Y-82735700D01*
X146715644Y-82735700D01*
X146715639Y-82735700D01*
X146499623Y-82769914D01*
X146291619Y-82837497D01*
X146291616Y-82837498D01*
X146096739Y-82936795D01*
X145919806Y-83065342D01*
X145765142Y-83220006D01*
X145636595Y-83396939D01*
X145537298Y-83591816D01*
X145537297Y-83591819D01*
X145469714Y-83799823D01*
X145435500Y-84015838D01*
X145013522Y-84015838D01*
X144903592Y-83864532D01*
X144720668Y-83681608D01*
X144511382Y-83529553D01*
X144280885Y-83412109D01*
X144034854Y-83332168D01*
X144034852Y-83332167D01*
X144034850Y-83332167D01*
X143779351Y-83291700D01*
X143779346Y-83291700D01*
X143520654Y-83291700D01*
X143520649Y-83291700D01*
X143265149Y-83332167D01*
X143019112Y-83412110D01*
X142788617Y-83529553D01*
X142579329Y-83681610D01*
X142396410Y-83864529D01*
X142244353Y-84073817D01*
X142126910Y-84304312D01*
X142046967Y-84550349D01*
X142006500Y-84805848D01*
X141710500Y-84805848D01*
X141710500Y-83410096D01*
X141730185Y-83343057D01*
X141746814Y-83322419D01*
X142868713Y-82200521D01*
X142868716Y-82200520D01*
X142980520Y-82088716D01*
X143030639Y-82001904D01*
X143059577Y-81951785D01*
X143100501Y-81799057D01*
X143100501Y-81640943D01*
X143100501Y-81633348D01*
X143100500Y-81633330D01*
X143100500Y-70579765D01*
X143120185Y-70512726D01*
X143121398Y-70510874D01*
X143209390Y-70379185D01*
X143209390Y-70379184D01*
X143209394Y-70379179D01*
X143212294Y-70372179D01*
X143223067Y-70346166D01*
X143269737Y-70233497D01*
X143300500Y-70078842D01*
X143300500Y-69921158D01*
X143300500Y-69921155D01*
X143300499Y-69921153D01*
X143290824Y-69872512D01*
X143269737Y-69766503D01*
X143242398Y-69700500D01*
X143209397Y-69620827D01*
X143209390Y-69620814D01*
X143121789Y-69489711D01*
X143121786Y-69489707D01*
X143010292Y-69378213D01*
X143010288Y-69378210D01*
X142879185Y-69290609D01*
X142879172Y-69290602D01*
X142733501Y-69230264D01*
X142733489Y-69230261D01*
X142578845Y-69199500D01*
X142578842Y-69199500D01*
X142421158Y-69199500D01*
X142421155Y-69199500D01*
X142266510Y-69230261D01*
X142266498Y-69230264D01*
X142120827Y-69290602D01*
X142120814Y-69290609D01*
X141989711Y-69378210D01*
X141989707Y-69378213D01*
X141878213Y-69489707D01*
X141878210Y-69489711D01*
X141790609Y-69620814D01*
X141790602Y-69620827D01*
X141730264Y-69766498D01*
X141730261Y-69766510D01*
X141699500Y-69921153D01*
X141699500Y-70078846D01*
X141730261Y-70233489D01*
X141730264Y-70233501D01*
X141790602Y-70379172D01*
X141790609Y-70379185D01*
X141878602Y-70510874D01*
X141899480Y-70577551D01*
X141899500Y-70579765D01*
X141899500Y-73467071D01*
X141879815Y-73534110D01*
X141827011Y-73579865D01*
X141757853Y-73589809D01*
X141694297Y-73560784D01*
X141656523Y-73502006D01*
X141654609Y-73494664D01*
X141599046Y-73251228D01*
X141599042Y-73251216D01*
X141507536Y-72989707D01*
X141498868Y-72964935D01*
X141367265Y-72691659D01*
X141205892Y-72434836D01*
X141016779Y-72197696D01*
X140802304Y-71983221D01*
X140772917Y-71959786D01*
X140742078Y-71935193D01*
X140565164Y-71794108D01*
X140308341Y-71632735D01*
X140308338Y-71632733D01*
X140035068Y-71501133D01*
X139748783Y-71400957D01*
X139748771Y-71400953D01*
X139520556Y-71348864D01*
X139453063Y-71333460D01*
X139453060Y-71333459D01*
X139453048Y-71333457D01*
X139151663Y-71299500D01*
X139151657Y-71299500D01*
X138848343Y-71299500D01*
X138848336Y-71299500D01*
X138546951Y-71333457D01*
X138546937Y-71333460D01*
X138251228Y-71400953D01*
X138251216Y-71400957D01*
X137964931Y-71501133D01*
X137691661Y-71632733D01*
X137434837Y-71794107D01*
X137197696Y-71983220D01*
X136983220Y-72197696D01*
X136794107Y-72434837D01*
X136632733Y-72691661D01*
X136501133Y-72964931D01*
X136400957Y-73251216D01*
X136400953Y-73251228D01*
X136333460Y-73546937D01*
X136333457Y-73546951D01*
X136299500Y-73848336D01*
X135500500Y-73848336D01*
X135500500Y-66848336D01*
X152299500Y-66848336D01*
X152299500Y-67151663D01*
X152333457Y-67453048D01*
X152333460Y-67453062D01*
X152400953Y-67748771D01*
X152400957Y-67748783D01*
X152501133Y-68035068D01*
X152632733Y-68308338D01*
X152632735Y-68308341D01*
X152794108Y-68565164D01*
X152983221Y-68802304D01*
X153197696Y-69016779D01*
X153434836Y-69205892D01*
X153691659Y-69367265D01*
X153964935Y-69498868D01*
X154168516Y-69570104D01*
X154251216Y-69599042D01*
X154251228Y-69599046D01*
X154546937Y-69666540D01*
X154546946Y-69666541D01*
X154546951Y-69666542D01*
X154747874Y-69689180D01*
X154848337Y-69700499D01*
X154848340Y-69700500D01*
X154848343Y-69700500D01*
X155151660Y-69700500D01*
X155151661Y-69700499D01*
X155305694Y-69683144D01*
X155453048Y-69666542D01*
X155453051Y-69666541D01*
X155453063Y-69666540D01*
X155748772Y-69599046D01*
X156035065Y-69498868D01*
X156308341Y-69367265D01*
X156565164Y-69205892D01*
X156802304Y-69016779D01*
X157016779Y-68802304D01*
X157205892Y-68565164D01*
X157367265Y-68308341D01*
X157498868Y-68035065D01*
X157599046Y-67748772D01*
X157654609Y-67505334D01*
X157688718Y-67444357D01*
X157750379Y-67411499D01*
X157820016Y-67417194D01*
X157875520Y-67459634D01*
X157899268Y-67525344D01*
X157899500Y-67532928D01*
X157899500Y-69420234D01*
X157879815Y-69487273D01*
X157878602Y-69489125D01*
X157790609Y-69620814D01*
X157790602Y-69620827D01*
X157730264Y-69766498D01*
X157730261Y-69766510D01*
X157699500Y-69921153D01*
X157699500Y-70078846D01*
X157730261Y-70233489D01*
X157730264Y-70233501D01*
X157790602Y-70379172D01*
X157790609Y-70379185D01*
X157878210Y-70510288D01*
X157878213Y-70510292D01*
X157989707Y-70621786D01*
X157989711Y-70621789D01*
X158120814Y-70709390D01*
X158120827Y-70709397D01*
X158252066Y-70763757D01*
X158266503Y-70769737D01*
X158421153Y-70800499D01*
X158421156Y-70800500D01*
X158575500Y-70800500D01*
X158642539Y-70820185D01*
X158688294Y-70872989D01*
X158699500Y-70924500D01*
X158699500Y-71078846D01*
X158730261Y-71233489D01*
X158730264Y-71233501D01*
X158790602Y-71379172D01*
X158790609Y-71379185D01*
X158878210Y-71510288D01*
X158878213Y-71510292D01*
X158989707Y-71621786D01*
X158989711Y-71621789D01*
X159120814Y-71709390D01*
X159120827Y-71709397D01*
X159258683Y-71766498D01*
X159266503Y-71769737D01*
X159421153Y-71800499D01*
X159421156Y-71800500D01*
X159421158Y-71800500D01*
X159578844Y-71800500D01*
X159578845Y-71800499D01*
X159733497Y-71769737D01*
X159879179Y-71709394D01*
X160010289Y-71621789D01*
X160121789Y-71510289D01*
X160209394Y-71379179D01*
X160269737Y-71233497D01*
X160300500Y-71078842D01*
X160300500Y-70921158D01*
X160300500Y-70921155D01*
X160300499Y-70921153D01*
X160269737Y-70766503D01*
X160209794Y-70621786D01*
X160209397Y-70620827D01*
X160209390Y-70620814D01*
X160121398Y-70489125D01*
X160100520Y-70422447D01*
X160100500Y-70420234D01*
X160100500Y-69079765D01*
X160120185Y-69012726D01*
X160121398Y-69010874D01*
X160209390Y-68879185D01*
X160209390Y-68879184D01*
X160209394Y-68879179D01*
X160269737Y-68733497D01*
X160300500Y-68578842D01*
X160300500Y-68421158D01*
X160300500Y-68421155D01*
X160300499Y-68421153D01*
X160278059Y-68308341D01*
X160269737Y-68266503D01*
X160269735Y-68266498D01*
X160209397Y-68120827D01*
X160209390Y-68120814D01*
X160121789Y-67989711D01*
X160121786Y-67989707D01*
X160010292Y-67878213D01*
X160010288Y-67878210D01*
X159879185Y-67790609D01*
X159879172Y-67790602D01*
X159733501Y-67730264D01*
X159733489Y-67730261D01*
X159578845Y-67699500D01*
X159578842Y-67699500D01*
X159421158Y-67699500D01*
X159421155Y-67699500D01*
X159266510Y-67730261D01*
X159260676Y-67732031D01*
X159259873Y-67729385D01*
X159202056Y-67735396D01*
X159139687Y-67703902D01*
X159104245Y-67643689D01*
X159100500Y-67613444D01*
X159100500Y-66579765D01*
X159120185Y-66512726D01*
X159121398Y-66510874D01*
X159209390Y-66379185D01*
X159209390Y-66379184D01*
X159209394Y-66379179D01*
X159269737Y-66233497D01*
X159300500Y-66078842D01*
X159300500Y-65921158D01*
X159300500Y-65921155D01*
X159300499Y-65921153D01*
X159269738Y-65766510D01*
X159269738Y-65766508D01*
X159269737Y-65766503D01*
X159238736Y-65691659D01*
X159209397Y-65620827D01*
X159209390Y-65620814D01*
X159121789Y-65489711D01*
X159121786Y-65489707D01*
X159010292Y-65378213D01*
X159010288Y-65378210D01*
X158879185Y-65290609D01*
X158879172Y-65290602D01*
X158733501Y-65230264D01*
X158733489Y-65230261D01*
X158684031Y-65220423D01*
X158684030Y-65220423D01*
X158578844Y-65199500D01*
X158578842Y-65199500D01*
X158421158Y-65199500D01*
X158421155Y-65199500D01*
X158266510Y-65230261D01*
X158266498Y-65230264D01*
X158120827Y-65290602D01*
X158120814Y-65290609D01*
X157989711Y-65378210D01*
X157989707Y-65378213D01*
X157878213Y-65489707D01*
X157878210Y-65489711D01*
X157790609Y-65620814D01*
X157790602Y-65620827D01*
X157730264Y-65766498D01*
X157730261Y-65766508D01*
X157707065Y-65883121D01*
X157674680Y-65945032D01*
X157613964Y-65979606D01*
X157544194Y-65975865D01*
X157487523Y-65934999D01*
X157473728Y-65912731D01*
X157367266Y-65691661D01*
X157240372Y-65489711D01*
X157205892Y-65434836D01*
X157016779Y-65197696D01*
X156921218Y-65102135D01*
X160649500Y-65102135D01*
X160649500Y-66897870D01*
X160649501Y-66897876D01*
X160655908Y-66957483D01*
X160706202Y-67092328D01*
X160706206Y-67092335D01*
X160792452Y-67207544D01*
X160792455Y-67207547D01*
X160907664Y-67293793D01*
X160907671Y-67293797D01*
X161039082Y-67342810D01*
X161095016Y-67384681D01*
X161119433Y-67450145D01*
X161104582Y-67518418D01*
X161083431Y-67546673D01*
X160969889Y-67660215D01*
X160844951Y-67832179D01*
X160748444Y-68021585D01*
X160682753Y-68223760D01*
X160649500Y-68433713D01*
X160649500Y-68646286D01*
X160674210Y-68802303D01*
X160682754Y-68856243D01*
X160690208Y-68879185D01*
X160748444Y-69058414D01*
X160844951Y-69247820D01*
X160969890Y-69419786D01*
X161120213Y-69570109D01*
X161292182Y-69695050D01*
X161300946Y-69699516D01*
X161351742Y-69747491D01*
X161368536Y-69815312D01*
X161345998Y-69881447D01*
X161300946Y-69920484D01*
X161292182Y-69924949D01*
X161120213Y-70049890D01*
X160969890Y-70200213D01*
X160844951Y-70372179D01*
X160748444Y-70561585D01*
X160682753Y-70763760D01*
X160649500Y-70973713D01*
X160649500Y-71186286D01*
X160672809Y-71333457D01*
X160682754Y-71396243D01*
X160742384Y-71579765D01*
X160748444Y-71598414D01*
X160844951Y-71787820D01*
X160969890Y-71959786D01*
X161120213Y-72110109D01*
X161292182Y-72235050D01*
X161300946Y-72239516D01*
X161351742Y-72287491D01*
X161368536Y-72355312D01*
X161345998Y-72421447D01*
X161300946Y-72460484D01*
X161292182Y-72464949D01*
X161120213Y-72589890D01*
X160969890Y-72740213D01*
X160844951Y-72912179D01*
X160748444Y-73101585D01*
X160682753Y-73303760D01*
X160664160Y-73421153D01*
X160649500Y-73513713D01*
X160649500Y-73726287D01*
X160682754Y-73936243D01*
X160729387Y-74079765D01*
X160748444Y-74138414D01*
X160844951Y-74327820D01*
X160969890Y-74499786D01*
X161120213Y-74650109D01*
X161292179Y-74775048D01*
X161292181Y-74775049D01*
X161292184Y-74775051D01*
X161301493Y-74779794D01*
X161352290Y-74827766D01*
X161369087Y-74895587D01*
X161346552Y-74961722D01*
X161301502Y-75000762D01*
X161292443Y-75005378D01*
X161120540Y-75130272D01*
X161120535Y-75130276D01*
X160970276Y-75280535D01*
X160970272Y-75280540D01*
X160845379Y-75452442D01*
X160748904Y-75641782D01*
X160683242Y-75843870D01*
X160683242Y-75843873D01*
X160672769Y-75910000D01*
X161566988Y-75910000D01*
X161534075Y-75967007D01*
X161500000Y-76094174D01*
X161500000Y-76225826D01*
X161534075Y-76352993D01*
X161566988Y-76410000D01*
X160672769Y-76410000D01*
X160683242Y-76476126D01*
X160683242Y-76476129D01*
X160748904Y-76678217D01*
X160845379Y-76867557D01*
X160970272Y-77039459D01*
X160970276Y-77039464D01*
X161120535Y-77189723D01*
X161120540Y-77189727D01*
X161292442Y-77314620D01*
X161481782Y-77411095D01*
X161683871Y-77476757D01*
X161750000Y-77487231D01*
X161750000Y-76593012D01*
X161807007Y-76625925D01*
X161934174Y-76660000D01*
X162065826Y-76660000D01*
X162192993Y-76625925D01*
X162250000Y-76593012D01*
X162250000Y-77487230D01*
X162316126Y-77476757D01*
X162316129Y-77476757D01*
X162518217Y-77411095D01*
X162707557Y-77314620D01*
X162879459Y-77189727D01*
X162879464Y-77189723D01*
X163029723Y-77039464D01*
X163029727Y-77039459D01*
X163154620Y-76867557D01*
X163251095Y-76678217D01*
X163316757Y-76476129D01*
X163316757Y-76476126D01*
X163327231Y-76410000D01*
X162433012Y-76410000D01*
X162465925Y-76352993D01*
X162500000Y-76225826D01*
X162500000Y-76094174D01*
X162465925Y-75967007D01*
X162433012Y-75910000D01*
X163327231Y-75910000D01*
X163316757Y-75843873D01*
X163316757Y-75843870D01*
X163251095Y-75641782D01*
X163154620Y-75452442D01*
X163029727Y-75280540D01*
X163029723Y-75280535D01*
X162879464Y-75130276D01*
X162879459Y-75130272D01*
X162707555Y-75005377D01*
X162698500Y-75000763D01*
X162647706Y-74952788D01*
X162630912Y-74884966D01*
X162653451Y-74818832D01*
X162698508Y-74779793D01*
X162707816Y-74775051D01*
X162787007Y-74717515D01*
X162879786Y-74650109D01*
X162879788Y-74650106D01*
X162879792Y-74650104D01*
X163030104Y-74499792D01*
X163030106Y-74499788D01*
X163030109Y-74499786D01*
X163155048Y-74327820D01*
X163155047Y-74327820D01*
X163155051Y-74327816D01*
X163251557Y-74138412D01*
X163317246Y-73936243D01*
X163350500Y-73726287D01*
X163350500Y-73513713D01*
X163317246Y-73303757D01*
X163251557Y-73101588D01*
X163155051Y-72912184D01*
X163155049Y-72912181D01*
X163155048Y-72912179D01*
X163030109Y-72740213D01*
X162879786Y-72589890D01*
X162707820Y-72464951D01*
X162707115Y-72464591D01*
X162699054Y-72460485D01*
X162648259Y-72412512D01*
X162631463Y-72344692D01*
X162653999Y-72278556D01*
X162699054Y-72239515D01*
X162707816Y-72235051D01*
X162759231Y-72197696D01*
X162879786Y-72110109D01*
X162879788Y-72110106D01*
X162879792Y-72110104D01*
X163030104Y-71959792D01*
X163030106Y-71959788D01*
X163030109Y-71959786D01*
X163155048Y-71787820D01*
X163155047Y-71787820D01*
X163155051Y-71787816D01*
X163251557Y-71598412D01*
X163317246Y-71396243D01*
X163350500Y-71186287D01*
X163350500Y-70973713D01*
X163317246Y-70763757D01*
X163251557Y-70561588D01*
X163155051Y-70372184D01*
X163155049Y-70372181D01*
X163155048Y-70372179D01*
X163030109Y-70200213D01*
X162879786Y-70049890D01*
X162707820Y-69924951D01*
X162707115Y-69924591D01*
X162699054Y-69920485D01*
X162648259Y-69872512D01*
X162631463Y-69804692D01*
X162653999Y-69738556D01*
X162699054Y-69699515D01*
X162707816Y-69695051D01*
X162747060Y-69666539D01*
X162879786Y-69570109D01*
X162879788Y-69570106D01*
X162879792Y-69570104D01*
X163030104Y-69419792D01*
X163030106Y-69419788D01*
X163030109Y-69419786D01*
X163155048Y-69247820D01*
X163155047Y-69247820D01*
X163155051Y-69247816D01*
X163251557Y-69058412D01*
X163317246Y-68856243D01*
X163350500Y-68646287D01*
X163350500Y-68433713D01*
X163317246Y-68223757D01*
X163251557Y-68021588D01*
X163155051Y-67832184D01*
X163155049Y-67832181D01*
X163155048Y-67832179D01*
X163030109Y-67660213D01*
X162916569Y-67546673D01*
X162883084Y-67485350D01*
X162888068Y-67415658D01*
X162929940Y-67359725D01*
X162960915Y-67342810D01*
X163092331Y-67293796D01*
X163207546Y-67207546D01*
X163293796Y-67092331D01*
X163344091Y-66957483D01*
X163350500Y-66897873D01*
X163350499Y-65102128D01*
X163344091Y-65042517D01*
X163293796Y-64907669D01*
X163293795Y-64907668D01*
X163293793Y-64907664D01*
X163207547Y-64792455D01*
X163207544Y-64792452D01*
X163092335Y-64706206D01*
X163092328Y-64706202D01*
X162957482Y-64655908D01*
X162957483Y-64655908D01*
X162897883Y-64649501D01*
X162897881Y-64649500D01*
X162897873Y-64649500D01*
X162897864Y-64649500D01*
X161102129Y-64649500D01*
X161102123Y-64649501D01*
X161042516Y-64655908D01*
X160907671Y-64706202D01*
X160907664Y-64706206D01*
X160792455Y-64792452D01*
X160792452Y-64792455D01*
X160706206Y-64907664D01*
X160706202Y-64907671D01*
X160655908Y-65042517D01*
X160649501Y-65102116D01*
X160649501Y-65102123D01*
X160649500Y-65102135D01*
X156921218Y-65102135D01*
X156802304Y-64983221D01*
X156565164Y-64794108D01*
X156308341Y-64632735D01*
X156308338Y-64632733D01*
X156035068Y-64501133D01*
X155748783Y-64400957D01*
X155748771Y-64400953D01*
X155520556Y-64348864D01*
X155453063Y-64333460D01*
X155453060Y-64333459D01*
X155453048Y-64333457D01*
X155151663Y-64299500D01*
X155151657Y-64299500D01*
X154848343Y-64299500D01*
X154848336Y-64299500D01*
X154546951Y-64333457D01*
X154546937Y-64333460D01*
X154251228Y-64400953D01*
X154251216Y-64400957D01*
X153964931Y-64501133D01*
X153691661Y-64632733D01*
X153434837Y-64794107D01*
X153197696Y-64983220D01*
X152983220Y-65197696D01*
X152794107Y-65434837D01*
X152632733Y-65691661D01*
X152501133Y-65964931D01*
X152400957Y-66251216D01*
X152400953Y-66251228D01*
X152333460Y-66546937D01*
X152333457Y-66546951D01*
X152299500Y-66848336D01*
X135500500Y-66848336D01*
X135500500Y-64006961D01*
X135501280Y-63993077D01*
X135501280Y-63993076D01*
X135511460Y-63902729D01*
X135517635Y-63875670D01*
X135545353Y-63796456D01*
X135557396Y-63771450D01*
X135602046Y-63700389D01*
X135619351Y-63678690D01*
X135678690Y-63619351D01*
X135700389Y-63602046D01*
X135771450Y-63557396D01*
X135796456Y-63545353D01*
X135875670Y-63517635D01*
X135902733Y-63511459D01*
X135965419Y-63504396D01*
X135993079Y-63501280D01*
X136006962Y-63500500D01*
X136065892Y-63500500D01*
X163934108Y-63500500D01*
X163993038Y-63500500D01*
X164006922Y-63501280D01*
G37*
%TD.AperFunction*%
%TD*%
M02*
