%TF.GenerationSoftware,KiCad,Pcbnew,9.0.0*%
%TF.CreationDate,2025-04-04T15:09:20-04:00*%
%TF.ProjectId,left,6c656674-2e6b-4696-9361-645f70636258,rev?*%
%TF.SameCoordinates,Original*%
%TF.FileFunction,Copper,L2,Bot*%
%TF.FilePolarity,Positive*%
%FSLAX46Y46*%
G04 Gerber Fmt 4.6, Leading zero omitted, Abs format (unit mm)*
G04 Created by KiCad (PCBNEW 9.0.0) date 2025-04-04 15:09:20*
%MOMM*%
%LPD*%
G01*
G04 APERTURE LIST*
%TA.AperFunction,ComponentPad*%
%ADD10R,1.700000X1.700000*%
%TD*%
%TA.AperFunction,ComponentPad*%
%ADD11O,1.700000X1.700000*%
%TD*%
%TA.AperFunction,ComponentPad*%
%ADD12C,4.400000*%
%TD*%
%TA.AperFunction,ComponentPad*%
%ADD13C,2.286000*%
%TD*%
%TA.AperFunction,ComponentPad*%
%ADD14C,1.778000*%
%TD*%
%TA.AperFunction,ViaPad*%
%ADD15C,0.600000*%
%TD*%
%TA.AperFunction,Conductor*%
%ADD16C,0.200000*%
%TD*%
G04 APERTURE END LIST*
D10*
%TO.P,J1,1,Pin_1*%
%TO.N,VCC*%
X162000000Y-66000000D03*
D11*
%TO.P,J1,2,Pin_2*%
%TO.N,Button*%
X162000000Y-68540000D03*
%TO.P,J1,3,Pin_3*%
%TO.N,Horizontal*%
X162000000Y-71080000D03*
%TO.P,J1,4,Pin_4*%
%TO.N,Vertical*%
X162000000Y-73620000D03*
%TO.P,J1,5,Pin_5*%
%TO.N,GND*%
X162000000Y-76160000D03*
%TD*%
D12*
%TO.P,REF\u002A\u002A,*%
%TO.N,*%
X139000000Y-74000000D03*
%TD*%
%TO.P,REF\u002A\u002A,*%
%TO.N,*%
X161000000Y-106000000D03*
%TD*%
%TO.P,REF\u002A\u002A,*%
%TO.N,*%
X139000000Y-106000000D03*
%TD*%
D13*
%TO.P,U1,*%
%TO.N,*%
X143650000Y-84935200D03*
X143650000Y-95065200D03*
X156350000Y-84920000D03*
X156350000Y-95080000D03*
D14*
%TO.P,U1,1,GND*%
%TO.N,GND*%
X147475000Y-98875200D03*
%TO.P,U1,2,OUT2*%
%TO.N,Horizontal*%
X150015000Y-98895200D03*
%TO.P,U1,3,VCC*%
%TO.N,VCC*%
X152555000Y-98875200D03*
%TO.P,U1,4,VCC*%
X141110000Y-87460000D03*
%TO.P,U1,5,OUT1*%
%TO.N,Vertical*%
X141095000Y-89985200D03*
%TO.P,U1,6,GND*%
%TO.N,GND*%
X141095000Y-92525200D03*
%TO.P,U1,7,B1*%
%TO.N,Button*%
X146825000Y-84125200D03*
X153185000Y-84145200D03*
%TO.P,U1,8,B2*%
%TO.N,GND*%
X146825000Y-79185200D03*
X153175000Y-79205000D03*
%TD*%
D12*
%TO.P,REF\u002A\u002A,*%
%TO.N,*%
X155000000Y-67000000D03*
%TD*%
D15*
%TO.N,VCC*%
X152500000Y-87750000D03*
X158500000Y-70000000D03*
X142500000Y-70000000D03*
X158500000Y-66000000D03*
%TO.N,Button*%
X149000000Y-84145200D03*
X149000000Y-71000000D03*
X159500000Y-68500000D03*
X159500000Y-71000000D03*
%TO.N,Horizontal*%
X150000000Y-72000000D03*
%TO.N,Vertical*%
X151000000Y-90000000D03*
X151000000Y-73500000D03*
%TD*%
D16*
%TO.N,VCC*%
X152210000Y-87460000D02*
X152500000Y-87750000D01*
X141110000Y-87460000D02*
X152210000Y-87460000D01*
X162000000Y-66000000D02*
X158500000Y-66000000D01*
X158500000Y-70000000D02*
X142500000Y-70000000D01*
%TO.N,Button*%
X162000000Y-68540000D02*
X159540000Y-68540000D01*
X159500000Y-71000000D02*
X149000000Y-71000000D01*
X153185000Y-84145200D02*
X149000000Y-84145200D01*
X149000000Y-84145200D02*
X146845000Y-84145200D01*
X159540000Y-68540000D02*
X159500000Y-68500000D01*
X146845000Y-84145200D02*
X146825000Y-84125200D01*
%TO.N,Horizontal*%
X161080000Y-72000000D02*
X150000000Y-72000000D01*
X162000000Y-71080000D02*
X161080000Y-72000000D01*
%TO.N,Vertical*%
X151120000Y-73620000D02*
X151000000Y-73500000D01*
X162000000Y-73620000D02*
X151120000Y-73620000D01*
X150485200Y-89985200D02*
X141095000Y-89985200D01*
X151000000Y-90000000D02*
X150500000Y-90000000D01*
X150500000Y-90000000D02*
X150485200Y-89985200D01*
%TD*%
%TA.AperFunction,Conductor*%
%TO.N,GND*%
G36*
X164006922Y-63501280D02*
G01*
X164097266Y-63511459D01*
X164124331Y-63517636D01*
X164203540Y-63545352D01*
X164228553Y-63557398D01*
X164299606Y-63602043D01*
X164321313Y-63619355D01*
X164380644Y-63678686D01*
X164397957Y-63700395D01*
X164442600Y-63771444D01*
X164454648Y-63796462D01*
X164482362Y-63875666D01*
X164488540Y-63902735D01*
X164498720Y-63993076D01*
X164499500Y-64006961D01*
X164499500Y-109993038D01*
X164498720Y-110006922D01*
X164498720Y-110006923D01*
X164488540Y-110097264D01*
X164482362Y-110124333D01*
X164454648Y-110203537D01*
X164442600Y-110228555D01*
X164397957Y-110299604D01*
X164380644Y-110321313D01*
X164321313Y-110380644D01*
X164299604Y-110397957D01*
X164228555Y-110442600D01*
X164203537Y-110454648D01*
X164124333Y-110482362D01*
X164097264Y-110488540D01*
X164017075Y-110497576D01*
X164006921Y-110498720D01*
X163993038Y-110499500D01*
X136006962Y-110499500D01*
X135993078Y-110498720D01*
X135980553Y-110497308D01*
X135902735Y-110488540D01*
X135875666Y-110482362D01*
X135796462Y-110454648D01*
X135771444Y-110442600D01*
X135700395Y-110397957D01*
X135678686Y-110380644D01*
X135619355Y-110321313D01*
X135602042Y-110299604D01*
X135557399Y-110228555D01*
X135545351Y-110203537D01*
X135517637Y-110124333D01*
X135511459Y-110097263D01*
X135501280Y-110006922D01*
X135500500Y-109993038D01*
X135500500Y-105848336D01*
X136299500Y-105848336D01*
X136299500Y-106151663D01*
X136333457Y-106453048D01*
X136333460Y-106453062D01*
X136400953Y-106748771D01*
X136400957Y-106748783D01*
X136501133Y-107035068D01*
X136632733Y-107308338D01*
X136632735Y-107308341D01*
X136794108Y-107565164D01*
X136983221Y-107802304D01*
X137197696Y-108016779D01*
X137434836Y-108205892D01*
X137691659Y-108367265D01*
X137964935Y-108498868D01*
X138179951Y-108574105D01*
X138251216Y-108599042D01*
X138251228Y-108599046D01*
X138546937Y-108666540D01*
X138546946Y-108666541D01*
X138546951Y-108666542D01*
X138747874Y-108689180D01*
X138848337Y-108700499D01*
X138848340Y-108700500D01*
X138848343Y-108700500D01*
X139151660Y-108700500D01*
X139151661Y-108700499D01*
X139305694Y-108683144D01*
X139453048Y-108666542D01*
X139453051Y-108666541D01*
X139453063Y-108666540D01*
X139748772Y-108599046D01*
X140035065Y-108498868D01*
X140308341Y-108367265D01*
X140565164Y-108205892D01*
X140802304Y-108016779D01*
X141016779Y-107802304D01*
X141205892Y-107565164D01*
X141367265Y-107308341D01*
X141498868Y-107035065D01*
X141599046Y-106748772D01*
X141666540Y-106453063D01*
X141700500Y-106151657D01*
X141700500Y-105848343D01*
X141700499Y-105848336D01*
X158299500Y-105848336D01*
X158299500Y-106151663D01*
X158333457Y-106453048D01*
X158333460Y-106453062D01*
X158400953Y-106748771D01*
X158400957Y-106748783D01*
X158501133Y-107035068D01*
X158632733Y-107308338D01*
X158632735Y-107308341D01*
X158794108Y-107565164D01*
X158983221Y-107802304D01*
X159197696Y-108016779D01*
X159434836Y-108205892D01*
X159691659Y-108367265D01*
X159964935Y-108498868D01*
X160179951Y-108574105D01*
X160251216Y-108599042D01*
X160251228Y-108599046D01*
X160546937Y-108666540D01*
X160546946Y-108666541D01*
X160546951Y-108666542D01*
X160747874Y-108689180D01*
X160848337Y-108700499D01*
X160848340Y-108700500D01*
X160848343Y-108700500D01*
X161151660Y-108700500D01*
X161151661Y-108700499D01*
X161305694Y-108683144D01*
X161453048Y-108666542D01*
X161453051Y-108666541D01*
X161453063Y-108666540D01*
X161748772Y-108599046D01*
X162035065Y-108498868D01*
X162308341Y-108367265D01*
X162565164Y-108205892D01*
X162802304Y-108016779D01*
X163016779Y-107802304D01*
X163205892Y-107565164D01*
X163367265Y-107308341D01*
X163498868Y-107035065D01*
X163599046Y-106748772D01*
X163666540Y-106453063D01*
X163700500Y-106151657D01*
X163700500Y-105848343D01*
X163666540Y-105546937D01*
X163599046Y-105251228D01*
X163498868Y-104964935D01*
X163367265Y-104691659D01*
X163205892Y-104434836D01*
X163016779Y-104197696D01*
X162802304Y-103983221D01*
X162565164Y-103794108D01*
X162308341Y-103632735D01*
X162308338Y-103632733D01*
X162035068Y-103501133D01*
X161748783Y-103400957D01*
X161748771Y-103400953D01*
X161520556Y-103348864D01*
X161453063Y-103333460D01*
X161453060Y-103333459D01*
X161453048Y-103333457D01*
X161151663Y-103299500D01*
X161151657Y-103299500D01*
X160848343Y-103299500D01*
X160848336Y-103299500D01*
X160546951Y-103333457D01*
X160546937Y-103333460D01*
X160251228Y-103400953D01*
X160251216Y-103400957D01*
X159964931Y-103501133D01*
X159691661Y-103632733D01*
X159434837Y-103794107D01*
X159197696Y-103983220D01*
X158983220Y-104197696D01*
X158794107Y-104434837D01*
X158632733Y-104691661D01*
X158501133Y-104964931D01*
X158400957Y-105251216D01*
X158400953Y-105251228D01*
X158333460Y-105546937D01*
X158333457Y-105546951D01*
X158299500Y-105848336D01*
X141700499Y-105848336D01*
X141666540Y-105546937D01*
X141599046Y-105251228D01*
X141498868Y-104964935D01*
X141367265Y-104691659D01*
X141205892Y-104434836D01*
X141016779Y-104197696D01*
X140802304Y-103983221D01*
X140565164Y-103794108D01*
X140308341Y-103632735D01*
X140308338Y-103632733D01*
X140035068Y-103501133D01*
X139748783Y-103400957D01*
X139748771Y-103400953D01*
X139520556Y-103348864D01*
X139453063Y-103333460D01*
X139453060Y-103333459D01*
X139453048Y-103333457D01*
X139151663Y-103299500D01*
X139151657Y-103299500D01*
X138848343Y-103299500D01*
X138848336Y-103299500D01*
X138546951Y-103333457D01*
X138546937Y-103333460D01*
X138251228Y-103400953D01*
X138251216Y-103400957D01*
X137964931Y-103501133D01*
X137691661Y-103632733D01*
X137434837Y-103794107D01*
X137197696Y-103983220D01*
X136983220Y-104197696D01*
X136794107Y-104434837D01*
X136632733Y-104691661D01*
X136501133Y-104964931D01*
X136400957Y-105251216D01*
X136400953Y-105251228D01*
X136333460Y-105546937D01*
X136333457Y-105546951D01*
X136299500Y-105848336D01*
X135500500Y-105848336D01*
X135500500Y-98765883D01*
X146086000Y-98765883D01*
X146086000Y-98984516D01*
X146120202Y-99200459D01*
X146187761Y-99408388D01*
X146187762Y-99408391D01*
X146287020Y-99603193D01*
X146287021Y-99603195D01*
X146331806Y-99664838D01*
X146331807Y-99664838D01*
X147037352Y-98959293D01*
X147060792Y-99046771D01*
X147119311Y-99148130D01*
X147202070Y-99230889D01*
X147303429Y-99289408D01*
X147390905Y-99312847D01*
X146685360Y-100018391D01*
X146747008Y-100063180D01*
X146941808Y-100162437D01*
X146941811Y-100162438D01*
X147149740Y-100229997D01*
X147365684Y-100264200D01*
X147584316Y-100264200D01*
X147800259Y-100229997D01*
X148008188Y-100162438D01*
X148008191Y-100162437D01*
X148202995Y-100063178D01*
X148264638Y-100018391D01*
X148264639Y-100018391D01*
X147559094Y-99312847D01*
X147646571Y-99289408D01*
X147747930Y-99230889D01*
X147830689Y-99148130D01*
X147889208Y-99046771D01*
X147912647Y-98959295D01*
X148618191Y-99664839D01*
X148618192Y-99664838D01*
X148637107Y-99638805D01*
X148692437Y-99596139D01*
X148762050Y-99590160D01*
X148823845Y-99622766D01*
X148837743Y-99638805D01*
X148955142Y-99800392D01*
X148955146Y-99800397D01*
X149109806Y-99955057D01*
X149258625Y-100063178D01*
X149286743Y-100083607D01*
X149414132Y-100148515D01*
X149481616Y-100182901D01*
X149481619Y-100182902D01*
X149585621Y-100216693D01*
X149689625Y-100250486D01*
X149776212Y-100264200D01*
X149905639Y-100284700D01*
X149905644Y-100284700D01*
X150124361Y-100284700D01*
X150229082Y-100268112D01*
X150340375Y-100250486D01*
X150548383Y-100182901D01*
X150743257Y-100083607D01*
X150842601Y-100011429D01*
X150920193Y-99955057D01*
X150920195Y-99955054D01*
X150920199Y-99955052D01*
X151074852Y-99800399D01*
X151191949Y-99639227D01*
X151247276Y-99596564D01*
X151316889Y-99590585D01*
X151378684Y-99623190D01*
X151392580Y-99639225D01*
X151495144Y-99780393D01*
X151495148Y-99780399D01*
X151649806Y-99935057D01*
X151764508Y-100018391D01*
X151826743Y-100063607D01*
X151954132Y-100128515D01*
X152021616Y-100162901D01*
X152021619Y-100162902D01*
X152125621Y-100196693D01*
X152229625Y-100230486D01*
X152329672Y-100246332D01*
X152445639Y-100264700D01*
X152445644Y-100264700D01*
X152664361Y-100264700D01*
X152769082Y-100248112D01*
X152880375Y-100230486D01*
X153088383Y-100162901D01*
X153283257Y-100063607D01*
X153382601Y-99991429D01*
X153460193Y-99935057D01*
X153460195Y-99935054D01*
X153460199Y-99935052D01*
X153614852Y-99780399D01*
X153614854Y-99780395D01*
X153614857Y-99780393D01*
X153671229Y-99702801D01*
X153743407Y-99603457D01*
X153842701Y-99408583D01*
X153910286Y-99200575D01*
X153934646Y-99046771D01*
X153944500Y-98984561D01*
X153944500Y-98765838D01*
X153918592Y-98602270D01*
X153910286Y-98549825D01*
X153876493Y-98445821D01*
X153842702Y-98341819D01*
X153842701Y-98341816D01*
X153808315Y-98274332D01*
X153743407Y-98146943D01*
X153698810Y-98085560D01*
X153614857Y-97970006D01*
X153460193Y-97815342D01*
X153283260Y-97686795D01*
X153283259Y-97686794D01*
X153283257Y-97686793D01*
X153220825Y-97654982D01*
X153088383Y-97587498D01*
X153088380Y-97587497D01*
X152880376Y-97519914D01*
X152664361Y-97485700D01*
X152664356Y-97485700D01*
X152445644Y-97485700D01*
X152445639Y-97485700D01*
X152229623Y-97519914D01*
X152021619Y-97587497D01*
X152021616Y-97587498D01*
X151826739Y-97686795D01*
X151649806Y-97815342D01*
X151495146Y-97970002D01*
X151495142Y-97970007D01*
X151378052Y-98131169D01*
X151322722Y-98173835D01*
X151253109Y-98179814D01*
X151191314Y-98147208D01*
X151177420Y-98131175D01*
X151074852Y-97990001D01*
X150920199Y-97835348D01*
X150920193Y-97835342D01*
X150743260Y-97706795D01*
X150743259Y-97706794D01*
X150743257Y-97706793D01*
X150680825Y-97674982D01*
X150548383Y-97607498D01*
X150548380Y-97607497D01*
X150340376Y-97539914D01*
X150124361Y-97505700D01*
X150124356Y-97505700D01*
X149905644Y-97505700D01*
X149905639Y-97505700D01*
X149689623Y-97539914D01*
X149481619Y-97607497D01*
X149481616Y-97607498D01*
X149286739Y-97706795D01*
X149109806Y-97835342D01*
X148955146Y-97990002D01*
X148955142Y-97990007D01*
X148852273Y-98131595D01*
X148796943Y-98174261D01*
X148727330Y-98180240D01*
X148665535Y-98147634D01*
X148651636Y-98131594D01*
X148618191Y-98085560D01*
X147912647Y-98791104D01*
X147889208Y-98703629D01*
X147830689Y-98602270D01*
X147747930Y-98519511D01*
X147646571Y-98460992D01*
X147559092Y-98437552D01*
X148264638Y-97732007D01*
X148264638Y-97732006D01*
X148202995Y-97687221D01*
X148202993Y-97687220D01*
X148008191Y-97587962D01*
X148008188Y-97587961D01*
X147800259Y-97520402D01*
X147584316Y-97486200D01*
X147365684Y-97486200D01*
X147149740Y-97520402D01*
X146941811Y-97587961D01*
X146941808Y-97587962D01*
X146747001Y-97687223D01*
X146685360Y-97732006D01*
X146685360Y-97732007D01*
X147390905Y-98437552D01*
X147303429Y-98460992D01*
X147202070Y-98519511D01*
X147119311Y-98602270D01*
X147060792Y-98703629D01*
X147037352Y-98791105D01*
X146331807Y-98085560D01*
X146331806Y-98085560D01*
X146287023Y-98147201D01*
X146187762Y-98342008D01*
X146187761Y-98342011D01*
X146120202Y-98549940D01*
X146086000Y-98765883D01*
X135500500Y-98765883D01*
X135500500Y-94935848D01*
X142006500Y-94935848D01*
X142006500Y-95194551D01*
X142046967Y-95450050D01*
X142046968Y-95450054D01*
X142126909Y-95696085D01*
X142244353Y-95926582D01*
X142396408Y-96135868D01*
X142579332Y-96318792D01*
X142788618Y-96470847D01*
X143019115Y-96588291D01*
X143265146Y-96668232D01*
X143358591Y-96683032D01*
X143520649Y-96708700D01*
X143520654Y-96708700D01*
X143779351Y-96708700D01*
X143941409Y-96683032D01*
X144034854Y-96668232D01*
X144280885Y-96588291D01*
X144511382Y-96470847D01*
X144720668Y-96318792D01*
X144903592Y-96135868D01*
X145055647Y-95926582D01*
X145173091Y-95696085D01*
X145253032Y-95450054D01*
X145271017Y-95336494D01*
X145293500Y-95194551D01*
X145293500Y-94950648D01*
X154706500Y-94950648D01*
X154706500Y-95209351D01*
X154744623Y-95450050D01*
X154746968Y-95464854D01*
X154826909Y-95710885D01*
X154944353Y-95941382D01*
X155096408Y-96150668D01*
X155279332Y-96333592D01*
X155488618Y-96485647D01*
X155719115Y-96603091D01*
X155965146Y-96683032D01*
X156060961Y-96698207D01*
X156220649Y-96723500D01*
X156220654Y-96723500D01*
X156479351Y-96723500D01*
X156621294Y-96701017D01*
X156734854Y-96683032D01*
X156980885Y-96603091D01*
X157211382Y-96485647D01*
X157420668Y-96333592D01*
X157603592Y-96150668D01*
X157755647Y-95941382D01*
X157873091Y-95710885D01*
X157953032Y-95464854D01*
X157971017Y-95351294D01*
X157993500Y-95209351D01*
X157993500Y-94950648D01*
X157953032Y-94695149D01*
X157953032Y-94695146D01*
X157873091Y-94449115D01*
X157755647Y-94218618D01*
X157603592Y-94009332D01*
X157420668Y-93826408D01*
X157211382Y-93674353D01*
X156980885Y-93556909D01*
X156734854Y-93476968D01*
X156734852Y-93476967D01*
X156734850Y-93476967D01*
X156479351Y-93436500D01*
X156479346Y-93436500D01*
X156220654Y-93436500D01*
X156220649Y-93436500D01*
X155965149Y-93476967D01*
X155719112Y-93556910D01*
X155488617Y-93674353D01*
X155279329Y-93826410D01*
X155096410Y-94009329D01*
X154944353Y-94218617D01*
X154826910Y-94449112D01*
X154746967Y-94695149D01*
X154706500Y-94950648D01*
X145293500Y-94950648D01*
X145293500Y-94935848D01*
X145266521Y-94765515D01*
X145253032Y-94680346D01*
X145173091Y-94434315D01*
X145055647Y-94203818D01*
X144903592Y-93994532D01*
X144720668Y-93811608D01*
X144511382Y-93659553D01*
X144280885Y-93542109D01*
X144034854Y-93462168D01*
X144034852Y-93462167D01*
X144034850Y-93462167D01*
X143779351Y-93421700D01*
X143779346Y-93421700D01*
X143520654Y-93421700D01*
X143520649Y-93421700D01*
X143265149Y-93462167D01*
X143019112Y-93542110D01*
X142788617Y-93659553D01*
X142579329Y-93811610D01*
X142396410Y-93994529D01*
X142244353Y-94203817D01*
X142126910Y-94434312D01*
X142046967Y-94680349D01*
X142006500Y-94935848D01*
X135500500Y-94935848D01*
X135500500Y-89875838D01*
X139705500Y-89875838D01*
X139705500Y-90094561D01*
X139739714Y-90310576D01*
X139807297Y-90518580D01*
X139807298Y-90518583D01*
X139850373Y-90603120D01*
X139904524Y-90709397D01*
X139906595Y-90713460D01*
X140035142Y-90890393D01*
X140035148Y-90890399D01*
X140189801Y-91045052D01*
X140341395Y-91155191D01*
X140384060Y-91210519D01*
X140390039Y-91280132D01*
X140357434Y-91341928D01*
X140341394Y-91355826D01*
X140305360Y-91382005D01*
X140305360Y-91382007D01*
X141010905Y-92087552D01*
X140923429Y-92110992D01*
X140822070Y-92169511D01*
X140739311Y-92252270D01*
X140680792Y-92353629D01*
X140657352Y-92441105D01*
X139951807Y-91735560D01*
X139951806Y-91735560D01*
X139907023Y-91797201D01*
X139807762Y-91992008D01*
X139807761Y-91992011D01*
X139740202Y-92199940D01*
X139706000Y-92415883D01*
X139706000Y-92634516D01*
X139740202Y-92850459D01*
X139807761Y-93058388D01*
X139807762Y-93058391D01*
X139907020Y-93253193D01*
X139907021Y-93253195D01*
X139951806Y-93314838D01*
X139951807Y-93314838D01*
X140657352Y-92609293D01*
X140680792Y-92696771D01*
X140739311Y-92798130D01*
X140822070Y-92880889D01*
X140923429Y-92939408D01*
X141010905Y-92962847D01*
X140305360Y-93668391D01*
X140367008Y-93713180D01*
X140561808Y-93812437D01*
X140561811Y-93812438D01*
X140769740Y-93879997D01*
X140985684Y-93914200D01*
X141204316Y-93914200D01*
X141420259Y-93879997D01*
X141628188Y-93812438D01*
X141628191Y-93812437D01*
X141822995Y-93713178D01*
X141884638Y-93668391D01*
X141884639Y-93668391D01*
X141179094Y-92962847D01*
X141266571Y-92939408D01*
X141367930Y-92880889D01*
X141450689Y-92798130D01*
X141509208Y-92696771D01*
X141532647Y-92609294D01*
X142238191Y-93314839D01*
X142238191Y-93314838D01*
X142282978Y-93253195D01*
X142382237Y-93058391D01*
X142382238Y-93058388D01*
X142449797Y-92850459D01*
X142484000Y-92634516D01*
X142484000Y-92415883D01*
X142449797Y-92199940D01*
X142382238Y-91992011D01*
X142382237Y-91992008D01*
X142282980Y-91797208D01*
X142238191Y-91735560D01*
X141532647Y-92441104D01*
X141509208Y-92353629D01*
X141450689Y-92252270D01*
X141367930Y-92169511D01*
X141266571Y-92110992D01*
X141179092Y-92087552D01*
X141884638Y-91382007D01*
X141884638Y-91382006D01*
X141848606Y-91355828D01*
X141805939Y-91300499D01*
X141799959Y-91230885D01*
X141832565Y-91169090D01*
X141848599Y-91155194D01*
X142000199Y-91045052D01*
X142154852Y-90890399D01*
X142154854Y-90890395D01*
X142154857Y-90890393D01*
X142220168Y-90800499D01*
X142283407Y-90713457D01*
X142314005Y-90653404D01*
X142361980Y-90602609D01*
X142424490Y-90585700D01*
X150349383Y-90585700D01*
X150374738Y-90588320D01*
X150378134Y-90589029D01*
X150420942Y-90600500D01*
X150420943Y-90600500D01*
X150433046Y-90600500D01*
X150445589Y-90603120D01*
X150465550Y-90613806D01*
X150487273Y-90620185D01*
X150489125Y-90621398D01*
X150620814Y-90709390D01*
X150620827Y-90709397D01*
X150766498Y-90769735D01*
X150766503Y-90769737D01*
X150921153Y-90800499D01*
X150921156Y-90800500D01*
X150921158Y-90800500D01*
X151078844Y-90800500D01*
X151078845Y-90800499D01*
X151233497Y-90769737D01*
X151379179Y-90709394D01*
X151510289Y-90621789D01*
X151621789Y-90510289D01*
X151709394Y-90379179D01*
X151769737Y-90233497D01*
X151800500Y-90078842D01*
X151800500Y-89921158D01*
X151800500Y-89921155D01*
X151800499Y-89921153D01*
X151769738Y-89766510D01*
X151769737Y-89766503D01*
X151725549Y-89659823D01*
X151709397Y-89620827D01*
X151709390Y-89620814D01*
X151621789Y-89489711D01*
X151621786Y-89489707D01*
X151510292Y-89378213D01*
X151510288Y-89378210D01*
X151379185Y-89290609D01*
X151379172Y-89290602D01*
X151233501Y-89230264D01*
X151233489Y-89230261D01*
X151078845Y-89199500D01*
X151078842Y-89199500D01*
X150921158Y-89199500D01*
X150921155Y-89199500D01*
X150766510Y-89230261D01*
X150766498Y-89230264D01*
X150620827Y-89290602D01*
X150620814Y-89290609D01*
X150511276Y-89363801D01*
X150493231Y-89369451D01*
X150477323Y-89379675D01*
X150446359Y-89384127D01*
X150444598Y-89384679D01*
X150442388Y-89384699D01*
X150406143Y-89384699D01*
X150406139Y-89384699D01*
X150398534Y-89384700D01*
X150398533Y-89384699D01*
X150398531Y-89384700D01*
X142424490Y-89384700D01*
X142357451Y-89365015D01*
X142314005Y-89316995D01*
X142283407Y-89256943D01*
X142241673Y-89199500D01*
X142154857Y-89080006D01*
X142000193Y-88925342D01*
X141866716Y-88828367D01*
X141824050Y-88773038D01*
X141818071Y-88703424D01*
X141850676Y-88641629D01*
X141866716Y-88627731D01*
X142015193Y-88519857D01*
X142015195Y-88519854D01*
X142015199Y-88519852D01*
X142169852Y-88365199D01*
X142169854Y-88365195D01*
X142169857Y-88365193D01*
X142246074Y-88260288D01*
X142298407Y-88188257D01*
X142329005Y-88128204D01*
X142376980Y-88077409D01*
X142439490Y-88060500D01*
X151679573Y-88060500D01*
X151746612Y-88080185D01*
X151787175Y-88124144D01*
X151787221Y-88124114D01*
X151787414Y-88124403D01*
X151788931Y-88126047D01*
X151790604Y-88129177D01*
X151878210Y-88260288D01*
X151878213Y-88260292D01*
X151989707Y-88371786D01*
X151989711Y-88371789D01*
X152120814Y-88459390D01*
X152120827Y-88459397D01*
X152266498Y-88519735D01*
X152266503Y-88519737D01*
X152421153Y-88550499D01*
X152421156Y-88550500D01*
X152421158Y-88550500D01*
X152578844Y-88550500D01*
X152578845Y-88550499D01*
X152733497Y-88519737D01*
X152879179Y-88459394D01*
X153010289Y-88371789D01*
X153121789Y-88260289D01*
X153209394Y-88129179D01*
X153209798Y-88128205D01*
X153230838Y-88077409D01*
X153269737Y-87983497D01*
X153300500Y-87828842D01*
X153300500Y-87671158D01*
X153300500Y-87671155D01*
X153300499Y-87671153D01*
X153269738Y-87516510D01*
X153269737Y-87516503D01*
X153269735Y-87516498D01*
X153209397Y-87370827D01*
X153209390Y-87370814D01*
X153121789Y-87239711D01*
X153121786Y-87239707D01*
X153010292Y-87128213D01*
X153010288Y-87128210D01*
X152879185Y-87040609D01*
X152879172Y-87040602D01*
X152733501Y-86980264D01*
X152733489Y-86980261D01*
X152578845Y-86949500D01*
X152578842Y-86949500D01*
X152560013Y-86949500D01*
X152544525Y-86945350D01*
X152530779Y-86946005D01*
X152498016Y-86932888D01*
X152487154Y-86926617D01*
X152487151Y-86926615D01*
X152487150Y-86926614D01*
X152441790Y-86900425D01*
X152441789Y-86900424D01*
X152429263Y-86897067D01*
X152289057Y-86859499D01*
X152130943Y-86859499D01*
X152123347Y-86859499D01*
X152123331Y-86859500D01*
X142439490Y-86859500D01*
X142372451Y-86839815D01*
X142329005Y-86791795D01*
X142298407Y-86731743D01*
X142290147Y-86720374D01*
X142169857Y-86554806D01*
X142015193Y-86400142D01*
X141838260Y-86271595D01*
X141838259Y-86271594D01*
X141838257Y-86271593D01*
X141775825Y-86239782D01*
X141643383Y-86172298D01*
X141643380Y-86172297D01*
X141435376Y-86104714D01*
X141219361Y-86070500D01*
X141219356Y-86070500D01*
X141000644Y-86070500D01*
X141000639Y-86070500D01*
X140784623Y-86104714D01*
X140576619Y-86172297D01*
X140576616Y-86172298D01*
X140381739Y-86271595D01*
X140204806Y-86400142D01*
X140050142Y-86554806D01*
X139921595Y-86731739D01*
X139822299Y-86926616D01*
X139754714Y-87134623D01*
X139720500Y-87350638D01*
X139720500Y-87569361D01*
X139754714Y-87785376D01*
X139822297Y-87993380D01*
X139822298Y-87993383D01*
X139921595Y-88188260D01*
X140050142Y-88365193D01*
X140050148Y-88365199D01*
X140204801Y-88519852D01*
X140338284Y-88616832D01*
X140380949Y-88672161D01*
X140386928Y-88741774D01*
X140354323Y-88803570D01*
X140338284Y-88817468D01*
X140189802Y-88925346D01*
X140035142Y-89080006D01*
X139906595Y-89256939D01*
X139807298Y-89451816D01*
X139807297Y-89451819D01*
X139739714Y-89659823D01*
X139705500Y-89875838D01*
X135500500Y-89875838D01*
X135500500Y-84805848D01*
X142006500Y-84805848D01*
X142006500Y-85064551D01*
X142045946Y-85313604D01*
X142046968Y-85320054D01*
X142126909Y-85566085D01*
X142244353Y-85796582D01*
X142396408Y-86005868D01*
X142579332Y-86188792D01*
X142788618Y-86340847D01*
X143019115Y-86458291D01*
X143265146Y-86538232D01*
X143360961Y-86553407D01*
X143520649Y-86578700D01*
X143520654Y-86578700D01*
X143779351Y-86578700D01*
X143921294Y-86556217D01*
X144034854Y-86538232D01*
X144280885Y-86458291D01*
X144511382Y-86340847D01*
X144720668Y-86188792D01*
X144903592Y-86005868D01*
X145055647Y-85796582D01*
X145173091Y-85566085D01*
X145253032Y-85320054D01*
X145274414Y-85185052D01*
X145293500Y-85064551D01*
X145293500Y-84805848D01*
X145263550Y-84616755D01*
X145253032Y-84550346D01*
X145173091Y-84304315D01*
X145055647Y-84073818D01*
X145013522Y-84015838D01*
X145435500Y-84015838D01*
X145435500Y-84234561D01*
X145459195Y-84384172D01*
X145459199Y-84384189D01*
X145469714Y-84450575D01*
X145504130Y-84556498D01*
X145504135Y-84556517D01*
X145537297Y-84658580D01*
X145537298Y-84658583D01*
X145581698Y-84745720D01*
X145616185Y-84813405D01*
X145636595Y-84853460D01*
X145765142Y-85030393D01*
X145919806Y-85185057D01*
X146084690Y-85304850D01*
X146096743Y-85313607D01*
X146224132Y-85378515D01*
X146291616Y-85412901D01*
X146291619Y-85412902D01*
X146395621Y-85446693D01*
X146499625Y-85480486D01*
X146599672Y-85496332D01*
X146715639Y-85514700D01*
X146715644Y-85514700D01*
X146934361Y-85514700D01*
X147039082Y-85498112D01*
X147150375Y-85480486D01*
X147358383Y-85412901D01*
X147553257Y-85313607D01*
X147652601Y-85241429D01*
X147730193Y-85185057D01*
X147730195Y-85185054D01*
X147730199Y-85185052D01*
X147884852Y-85030399D01*
X147884854Y-85030395D01*
X147884857Y-85030393D01*
X147998876Y-84873457D01*
X148013407Y-84853457D01*
X148033814Y-84813405D01*
X148081788Y-84762610D01*
X148144299Y-84745700D01*
X148420234Y-84745700D01*
X148487273Y-84765385D01*
X148489125Y-84766598D01*
X148620814Y-84854590D01*
X148620827Y-84854597D01*
X148766498Y-84914935D01*
X148766503Y-84914937D01*
X148921153Y-84945699D01*
X148921156Y-84945700D01*
X148921158Y-84945700D01*
X149078844Y-84945700D01*
X149078845Y-84945699D01*
X149233497Y-84914937D01*
X149379179Y-84854594D01*
X149380881Y-84853457D01*
X149510875Y-84766598D01*
X149577553Y-84745720D01*
X149579766Y-84745700D01*
X151855510Y-84745700D01*
X151922549Y-84765385D01*
X151965994Y-84813404D01*
X151986983Y-84854597D01*
X151996595Y-84873460D01*
X152125142Y-85050393D01*
X152279806Y-85205057D01*
X152429211Y-85313604D01*
X152456743Y-85333607D01*
X152584132Y-85398515D01*
X152651616Y-85432901D01*
X152651619Y-85432902D01*
X152755621Y-85466693D01*
X152859625Y-85500486D01*
X152949369Y-85514700D01*
X153075639Y-85534700D01*
X153075644Y-85534700D01*
X153294361Y-85534700D01*
X153399082Y-85518112D01*
X153510375Y-85500486D01*
X153718383Y-85432901D01*
X153913257Y-85333607D01*
X154012601Y-85261429D01*
X154090193Y-85205057D01*
X154090195Y-85205054D01*
X154090199Y-85205052D01*
X154244852Y-85050399D01*
X154244854Y-85050395D01*
X154244857Y-85050393D01*
X154343270Y-84914937D01*
X154373407Y-84873457D01*
X154472701Y-84678583D01*
X154472703Y-84678577D01*
X154476609Y-84666557D01*
X154516046Y-84608881D01*
X154580404Y-84581682D01*
X154649250Y-84593596D01*
X154700727Y-84640840D01*
X154718489Y-84708414D01*
X154717013Y-84724272D01*
X154706500Y-84790648D01*
X154706500Y-85049351D01*
X154746967Y-85304850D01*
X154746968Y-85304854D01*
X154826909Y-85550885D01*
X154944353Y-85781382D01*
X155096408Y-85990668D01*
X155279332Y-86173592D01*
X155488618Y-86325647D01*
X155719115Y-86443091D01*
X155965146Y-86523032D01*
X156060961Y-86538207D01*
X156220649Y-86563500D01*
X156220654Y-86563500D01*
X156479351Y-86563500D01*
X156621294Y-86541017D01*
X156734854Y-86523032D01*
X156980885Y-86443091D01*
X157211382Y-86325647D01*
X157420668Y-86173592D01*
X157603592Y-85990668D01*
X157755647Y-85781382D01*
X157873091Y-85550885D01*
X157953032Y-85304854D01*
X157972007Y-85185052D01*
X157993500Y-85049351D01*
X157993500Y-84790648D01*
X157960402Y-84581682D01*
X157953032Y-84535146D01*
X157873091Y-84289115D01*
X157755647Y-84058618D01*
X157603592Y-83849332D01*
X157420668Y-83666408D01*
X157211382Y-83514353D01*
X156980885Y-83396909D01*
X156734854Y-83316968D01*
X156734852Y-83316967D01*
X156734850Y-83316967D01*
X156479351Y-83276500D01*
X156479346Y-83276500D01*
X156220654Y-83276500D01*
X156220649Y-83276500D01*
X155965149Y-83316967D01*
X155719112Y-83396910D01*
X155488617Y-83514353D01*
X155279329Y-83666410D01*
X155096410Y-83849329D01*
X154944353Y-84058617D01*
X154826908Y-84289114D01*
X154810642Y-84339176D01*
X154771204Y-84396851D01*
X154706845Y-84424048D01*
X154637998Y-84412132D01*
X154586523Y-84364887D01*
X154568763Y-84297313D01*
X154570237Y-84281465D01*
X154574500Y-84254556D01*
X154574500Y-84035844D01*
X154574500Y-84035838D01*
X154544959Y-83849329D01*
X154540286Y-83819825D01*
X154490439Y-83666410D01*
X154472702Y-83611819D01*
X154472701Y-83611816D01*
X154427855Y-83523802D01*
X154373407Y-83416943D01*
X154311815Y-83332168D01*
X154244857Y-83240006D01*
X154090193Y-83085342D01*
X153913260Y-82956795D01*
X153913259Y-82956794D01*
X153913257Y-82956793D01*
X153850825Y-82924982D01*
X153718383Y-82857498D01*
X153718380Y-82857497D01*
X153510376Y-82789914D01*
X153294361Y-82755700D01*
X153294356Y-82755700D01*
X153075644Y-82755700D01*
X153075639Y-82755700D01*
X152859623Y-82789914D01*
X152651619Y-82857497D01*
X152651616Y-82857498D01*
X152456739Y-82956795D01*
X152279806Y-83085342D01*
X152125142Y-83240006D01*
X151996595Y-83416939D01*
X151996593Y-83416943D01*
X151965996Y-83476994D01*
X151965995Y-83476995D01*
X151918020Y-83527791D01*
X151855510Y-83544700D01*
X149579766Y-83544700D01*
X149512727Y-83525015D01*
X149510875Y-83523802D01*
X149379185Y-83435809D01*
X149379172Y-83435802D01*
X149233501Y-83375464D01*
X149233489Y-83375461D01*
X149078845Y-83344700D01*
X149078842Y-83344700D01*
X148921158Y-83344700D01*
X148921155Y-83344700D01*
X148766510Y-83375461D01*
X148766498Y-83375464D01*
X148620827Y-83435802D01*
X148620814Y-83435809D01*
X148489125Y-83523802D01*
X148422447Y-83544680D01*
X148420234Y-83544700D01*
X148164680Y-83544700D01*
X148097641Y-83525015D01*
X148054196Y-83476995D01*
X148013407Y-83396943D01*
X148013406Y-83396941D01*
X147884857Y-83220006D01*
X147730193Y-83065342D01*
X147553260Y-82936795D01*
X147553259Y-82936794D01*
X147553257Y-82936793D01*
X147490825Y-82904982D01*
X147358383Y-82837498D01*
X147358380Y-82837497D01*
X147150376Y-82769914D01*
X146934361Y-82735700D01*
X146934356Y-82735700D01*
X146715644Y-82735700D01*
X146715639Y-82735700D01*
X146499623Y-82769914D01*
X146291619Y-82837497D01*
X146291616Y-82837498D01*
X146096739Y-82936795D01*
X145919806Y-83065342D01*
X145765142Y-83220006D01*
X145636595Y-83396939D01*
X145537298Y-83591816D01*
X145537297Y-83591819D01*
X145469714Y-83799823D01*
X145435500Y-84015838D01*
X145013522Y-84015838D01*
X144903592Y-83864532D01*
X144720668Y-83681608D01*
X144511382Y-83529553D01*
X144280885Y-83412109D01*
X144034854Y-83332168D01*
X144034852Y-83332167D01*
X144034850Y-83332167D01*
X143779351Y-83291700D01*
X143779346Y-83291700D01*
X143520654Y-83291700D01*
X143520649Y-83291700D01*
X143265149Y-83332167D01*
X143019112Y-83412110D01*
X142788617Y-83529553D01*
X142579329Y-83681610D01*
X142396410Y-83864529D01*
X142244353Y-84073817D01*
X142126910Y-84304312D01*
X142046967Y-84550349D01*
X142006500Y-84805848D01*
X135500500Y-84805848D01*
X135500500Y-79075883D01*
X145436000Y-79075883D01*
X145436000Y-79294516D01*
X145470202Y-79510459D01*
X145537761Y-79718388D01*
X145537762Y-79718391D01*
X145637020Y-79913193D01*
X145637021Y-79913195D01*
X145681806Y-79974838D01*
X145681807Y-79974838D01*
X146382861Y-79273784D01*
X146405667Y-79358894D01*
X146464910Y-79461506D01*
X146548694Y-79545290D01*
X146651306Y-79604533D01*
X146736414Y-79627337D01*
X146035360Y-80328391D01*
X146097008Y-80373180D01*
X146291808Y-80472437D01*
X146291811Y-80472438D01*
X146499740Y-80539997D01*
X146715684Y-80574200D01*
X146934316Y-80574200D01*
X147150259Y-80539997D01*
X147358188Y-80472438D01*
X147358191Y-80472437D01*
X147552995Y-80373178D01*
X147614639Y-80328391D01*
X146913585Y-79627338D01*
X146998694Y-79604533D01*
X147101306Y-79545290D01*
X147185090Y-79461506D01*
X147244333Y-79358894D01*
X147267137Y-79273785D01*
X147968191Y-79974839D01*
X147968191Y-79974838D01*
X148012978Y-79913195D01*
X148112237Y-79718391D01*
X148112238Y-79718388D01*
X148179797Y-79510459D01*
X148214000Y-79294516D01*
X148214000Y-79095683D01*
X151786000Y-79095683D01*
X151786000Y-79314316D01*
X151820202Y-79530259D01*
X151887761Y-79738188D01*
X151887762Y-79738191D01*
X151987020Y-79932993D01*
X151987021Y-79932995D01*
X152031806Y-79994638D01*
X152031807Y-79994638D01*
X152732861Y-79293584D01*
X152755667Y-79378694D01*
X152814910Y-79481306D01*
X152898694Y-79565090D01*
X153001306Y-79624333D01*
X153086414Y-79647137D01*
X152385360Y-80348191D01*
X152447008Y-80392980D01*
X152641808Y-80492237D01*
X152641811Y-80492238D01*
X152849740Y-80559797D01*
X153065684Y-80594000D01*
X153284316Y-80594000D01*
X153500259Y-80559797D01*
X153708188Y-80492238D01*
X153708191Y-80492237D01*
X153902995Y-80392978D01*
X153964638Y-80348191D01*
X153964639Y-80348191D01*
X153263585Y-79647138D01*
X153348694Y-79624333D01*
X153451306Y-79565090D01*
X153535090Y-79481306D01*
X153594333Y-79378694D01*
X153617137Y-79293585D01*
X154318191Y-79994639D01*
X154318191Y-79994638D01*
X154362978Y-79932995D01*
X154462237Y-79738191D01*
X154462238Y-79738188D01*
X154529797Y-79530259D01*
X154564000Y-79314316D01*
X154564000Y-79095683D01*
X154529797Y-78879740D01*
X154462238Y-78671811D01*
X154462237Y-78671808D01*
X154362980Y-78477008D01*
X154318191Y-78415360D01*
X153617137Y-79116414D01*
X153594333Y-79031306D01*
X153535090Y-78928694D01*
X153451306Y-78844910D01*
X153348694Y-78785667D01*
X153263583Y-78762861D01*
X153964638Y-78061807D01*
X153964638Y-78061806D01*
X153902995Y-78017021D01*
X153902993Y-78017020D01*
X153708191Y-77917762D01*
X153708188Y-77917761D01*
X153500259Y-77850202D01*
X153284316Y-77816000D01*
X153065684Y-77816000D01*
X152849740Y-77850202D01*
X152641811Y-77917761D01*
X152641808Y-77917762D01*
X152447001Y-78017023D01*
X152385360Y-78061806D01*
X152385360Y-78061807D01*
X153086414Y-78762861D01*
X153001306Y-78785667D01*
X152898694Y-78844910D01*
X152814910Y-78928694D01*
X152755667Y-79031306D01*
X152732861Y-79116414D01*
X152031807Y-78415360D01*
X152031806Y-78415360D01*
X151987023Y-78477001D01*
X151887762Y-78671808D01*
X151887761Y-78671811D01*
X151820202Y-78879740D01*
X151786000Y-79095683D01*
X148214000Y-79095683D01*
X148214000Y-79075883D01*
X148179797Y-78859940D01*
X148112238Y-78652011D01*
X148112237Y-78652008D01*
X148012980Y-78457208D01*
X147968191Y-78395560D01*
X147267137Y-79096614D01*
X147244333Y-79011506D01*
X147185090Y-78908894D01*
X147101306Y-78825110D01*
X146998694Y-78765867D01*
X146913583Y-78743061D01*
X147614638Y-78042007D01*
X147614638Y-78042006D01*
X147552995Y-77997221D01*
X147552993Y-77997220D01*
X147358191Y-77897962D01*
X147358188Y-77897961D01*
X147150259Y-77830402D01*
X146934316Y-77796200D01*
X146715684Y-77796200D01*
X146499740Y-77830402D01*
X146291811Y-77897961D01*
X146291808Y-77897962D01*
X146097001Y-77997223D01*
X146035360Y-78042006D01*
X146035360Y-78042007D01*
X146736414Y-78743061D01*
X146651306Y-78765867D01*
X146548694Y-78825110D01*
X146464910Y-78908894D01*
X146405667Y-79011506D01*
X146382861Y-79096614D01*
X145681807Y-78395560D01*
X145681806Y-78395560D01*
X145637023Y-78457201D01*
X145537762Y-78652008D01*
X145537761Y-78652011D01*
X145470202Y-78859940D01*
X145436000Y-79075883D01*
X135500500Y-79075883D01*
X135500500Y-73848336D01*
X136299500Y-73848336D01*
X136299500Y-74151663D01*
X136333457Y-74453048D01*
X136333460Y-74453062D01*
X136400953Y-74748771D01*
X136400957Y-74748783D01*
X136501133Y-75035068D01*
X136632733Y-75308338D01*
X136632735Y-75308341D01*
X136794108Y-75565164D01*
X136983221Y-75802304D01*
X137197696Y-76016779D01*
X137434836Y-76205892D01*
X137691659Y-76367265D01*
X137964935Y-76498868D01*
X138139924Y-76560099D01*
X138251216Y-76599042D01*
X138251228Y-76599046D01*
X138546937Y-76666540D01*
X138546946Y-76666541D01*
X138546951Y-76666542D01*
X138747874Y-76689180D01*
X138848337Y-76700499D01*
X138848340Y-76700500D01*
X138848343Y-76700500D01*
X139151660Y-76700500D01*
X139151661Y-76700499D01*
X139305694Y-76683144D01*
X139453048Y-76666542D01*
X139453051Y-76666541D01*
X139453063Y-76666540D01*
X139748772Y-76599046D01*
X140035065Y-76498868D01*
X140308341Y-76367265D01*
X140565164Y-76205892D01*
X140802304Y-76016779D01*
X141016779Y-75802304D01*
X141205892Y-75565164D01*
X141367265Y-75308341D01*
X141498868Y-75035065D01*
X141599046Y-74748772D01*
X141666540Y-74453063D01*
X141700500Y-74151657D01*
X141700500Y-73848343D01*
X141686748Y-73726286D01*
X141666542Y-73546951D01*
X141666541Y-73546946D01*
X141666540Y-73546937D01*
X141599046Y-73251228D01*
X141498868Y-72964935D01*
X141367265Y-72691659D01*
X141205892Y-72434836D01*
X141016779Y-72197696D01*
X140802304Y-71983221D01*
X140772917Y-71959786D01*
X140728670Y-71924500D01*
X140565164Y-71794108D01*
X140308341Y-71632735D01*
X140308338Y-71632733D01*
X140035068Y-71501133D01*
X139748783Y-71400957D01*
X139748771Y-71400953D01*
X139520556Y-71348864D01*
X139453063Y-71333460D01*
X139453060Y-71333459D01*
X139453048Y-71333457D01*
X139151663Y-71299500D01*
X139151657Y-71299500D01*
X138848343Y-71299500D01*
X138848336Y-71299500D01*
X138546951Y-71333457D01*
X138546937Y-71333460D01*
X138251228Y-71400953D01*
X138251216Y-71400957D01*
X137964931Y-71501133D01*
X137691661Y-71632733D01*
X137434837Y-71794107D01*
X137197696Y-71983220D01*
X136983220Y-72197696D01*
X136794107Y-72434837D01*
X136632733Y-72691661D01*
X136501133Y-72964931D01*
X136400957Y-73251216D01*
X136400953Y-73251228D01*
X136333460Y-73546937D01*
X136333457Y-73546951D01*
X136299500Y-73848336D01*
X135500500Y-73848336D01*
X135500500Y-69921153D01*
X141699500Y-69921153D01*
X141699500Y-70078846D01*
X141730261Y-70233489D01*
X141730264Y-70233501D01*
X141790602Y-70379172D01*
X141790609Y-70379185D01*
X141878210Y-70510288D01*
X141878213Y-70510292D01*
X141989707Y-70621786D01*
X141989711Y-70621789D01*
X142120814Y-70709390D01*
X142120827Y-70709397D01*
X142252066Y-70763757D01*
X142266503Y-70769737D01*
X142421153Y-70800499D01*
X142421156Y-70800500D01*
X142421158Y-70800500D01*
X142578844Y-70800500D01*
X142578845Y-70800499D01*
X142733497Y-70769737D01*
X142879179Y-70709394D01*
X142933663Y-70672989D01*
X143010875Y-70621398D01*
X143077553Y-70600520D01*
X143079766Y-70600500D01*
X148113445Y-70600500D01*
X148180484Y-70620185D01*
X148226239Y-70672989D01*
X148236183Y-70742147D01*
X148231159Y-70760411D01*
X148232031Y-70760676D01*
X148230261Y-70766510D01*
X148199500Y-70921153D01*
X148199500Y-71078846D01*
X148230261Y-71233489D01*
X148230264Y-71233501D01*
X148290602Y-71379172D01*
X148290609Y-71379185D01*
X148378210Y-71510288D01*
X148378213Y-71510292D01*
X148489707Y-71621786D01*
X148489711Y-71621789D01*
X148620814Y-71709390D01*
X148620827Y-71709397D01*
X148766498Y-71769735D01*
X148766503Y-71769737D01*
X148921153Y-71800499D01*
X148921156Y-71800500D01*
X149075500Y-71800500D01*
X149142539Y-71820185D01*
X149188294Y-71872989D01*
X149199500Y-71924500D01*
X149199500Y-72078846D01*
X149230261Y-72233489D01*
X149230264Y-72233501D01*
X149290602Y-72379172D01*
X149290609Y-72379185D01*
X149378210Y-72510288D01*
X149378213Y-72510292D01*
X149489707Y-72621786D01*
X149489711Y-72621789D01*
X149620814Y-72709390D01*
X149620827Y-72709397D01*
X149695225Y-72740213D01*
X149766503Y-72769737D01*
X149921153Y-72800499D01*
X149921156Y-72800500D01*
X149921158Y-72800500D01*
X150078844Y-72800500D01*
X150078845Y-72800499D01*
X150233497Y-72769737D01*
X150280121Y-72750424D01*
X150349588Y-72742956D01*
X150412067Y-72774231D01*
X150447720Y-72834319D01*
X150445227Y-72904144D01*
X150415254Y-72952666D01*
X150378214Y-72989706D01*
X150378210Y-72989711D01*
X150290609Y-73120814D01*
X150290602Y-73120827D01*
X150230264Y-73266498D01*
X150230261Y-73266510D01*
X150199500Y-73421153D01*
X150199500Y-73578846D01*
X150230261Y-73733489D01*
X150230264Y-73733501D01*
X150290602Y-73879172D01*
X150290609Y-73879185D01*
X150378210Y-74010288D01*
X150378213Y-74010292D01*
X150489707Y-74121786D01*
X150489711Y-74121789D01*
X150620814Y-74209390D01*
X150620827Y-74209397D01*
X150766498Y-74269735D01*
X150766503Y-74269737D01*
X150921153Y-74300499D01*
X150921156Y-74300500D01*
X150921158Y-74300500D01*
X151078844Y-74300500D01*
X151078845Y-74300499D01*
X151155152Y-74285320D01*
X151233488Y-74269739D01*
X151233490Y-74269738D01*
X151233497Y-74269737D01*
X151329579Y-74229939D01*
X151377031Y-74220500D01*
X160714281Y-74220500D01*
X160781320Y-74240185D01*
X160824765Y-74288205D01*
X160844947Y-74327814D01*
X160844948Y-74327815D01*
X160969890Y-74499786D01*
X161120213Y-74650109D01*
X161292179Y-74775048D01*
X161292181Y-74775049D01*
X161292184Y-74775051D01*
X161301493Y-74779794D01*
X161352290Y-74827766D01*
X161369087Y-74895587D01*
X161346552Y-74961722D01*
X161301502Y-75000762D01*
X161292443Y-75005378D01*
X161120540Y-75130272D01*
X161120535Y-75130276D01*
X160970276Y-75280535D01*
X160970272Y-75280540D01*
X160845379Y-75452442D01*
X160748904Y-75641782D01*
X160683242Y-75843870D01*
X160683242Y-75843873D01*
X160672769Y-75910000D01*
X161566988Y-75910000D01*
X161534075Y-75967007D01*
X161500000Y-76094174D01*
X161500000Y-76225826D01*
X161534075Y-76352993D01*
X161566988Y-76410000D01*
X160672769Y-76410000D01*
X160683242Y-76476126D01*
X160683242Y-76476129D01*
X160748904Y-76678217D01*
X160845379Y-76867557D01*
X160970272Y-77039459D01*
X160970276Y-77039464D01*
X161120535Y-77189723D01*
X161120540Y-77189727D01*
X161292442Y-77314620D01*
X161481782Y-77411095D01*
X161683871Y-77476757D01*
X161750000Y-77487231D01*
X161750000Y-76593012D01*
X161807007Y-76625925D01*
X161934174Y-76660000D01*
X162065826Y-76660000D01*
X162192993Y-76625925D01*
X162250000Y-76593012D01*
X162250000Y-77487230D01*
X162316126Y-77476757D01*
X162316129Y-77476757D01*
X162518217Y-77411095D01*
X162707557Y-77314620D01*
X162879459Y-77189727D01*
X162879464Y-77189723D01*
X163029723Y-77039464D01*
X163029727Y-77039459D01*
X163154620Y-76867557D01*
X163251095Y-76678217D01*
X163316757Y-76476129D01*
X163316757Y-76476126D01*
X163327231Y-76410000D01*
X162433012Y-76410000D01*
X162465925Y-76352993D01*
X162500000Y-76225826D01*
X162500000Y-76094174D01*
X162465925Y-75967007D01*
X162433012Y-75910000D01*
X163327231Y-75910000D01*
X163316757Y-75843873D01*
X163316757Y-75843870D01*
X163251095Y-75641782D01*
X163154620Y-75452442D01*
X163029727Y-75280540D01*
X163029723Y-75280535D01*
X162879464Y-75130276D01*
X162879459Y-75130272D01*
X162707555Y-75005377D01*
X162698500Y-75000763D01*
X162647706Y-74952788D01*
X162630912Y-74884966D01*
X162653451Y-74818832D01*
X162698508Y-74779793D01*
X162707816Y-74775051D01*
X162787007Y-74717515D01*
X162879786Y-74650109D01*
X162879788Y-74650106D01*
X162879792Y-74650104D01*
X163030104Y-74499792D01*
X163030106Y-74499788D01*
X163030109Y-74499786D01*
X163155048Y-74327820D01*
X163155047Y-74327820D01*
X163155051Y-74327816D01*
X163251557Y-74138412D01*
X163317246Y-73936243D01*
X163350500Y-73726287D01*
X163350500Y-73513713D01*
X163317246Y-73303757D01*
X163251557Y-73101588D01*
X163155051Y-72912184D01*
X163155049Y-72912181D01*
X163155048Y-72912179D01*
X163030109Y-72740213D01*
X162879786Y-72589890D01*
X162707820Y-72464951D01*
X162707115Y-72464591D01*
X162699054Y-72460485D01*
X162648259Y-72412512D01*
X162631463Y-72344692D01*
X162653999Y-72278556D01*
X162699054Y-72239515D01*
X162707816Y-72235051D01*
X162759231Y-72197696D01*
X162879786Y-72110109D01*
X162879788Y-72110106D01*
X162879792Y-72110104D01*
X163030104Y-71959792D01*
X163030106Y-71959788D01*
X163030109Y-71959786D01*
X163155048Y-71787820D01*
X163155047Y-71787820D01*
X163155051Y-71787816D01*
X163251557Y-71598412D01*
X163317246Y-71396243D01*
X163350500Y-71186287D01*
X163350500Y-70973713D01*
X163317246Y-70763757D01*
X163251557Y-70561588D01*
X163155051Y-70372184D01*
X163155049Y-70372181D01*
X163155048Y-70372179D01*
X163030109Y-70200213D01*
X162879786Y-70049890D01*
X162707820Y-69924951D01*
X162707115Y-69924591D01*
X162699054Y-69920485D01*
X162648259Y-69872512D01*
X162631463Y-69804692D01*
X162653999Y-69738556D01*
X162699054Y-69699515D01*
X162707816Y-69695051D01*
X162729789Y-69679086D01*
X162879786Y-69570109D01*
X162879788Y-69570106D01*
X162879792Y-69570104D01*
X163030104Y-69419792D01*
X163030106Y-69419788D01*
X163030109Y-69419786D01*
X163142044Y-69265719D01*
X163155051Y-69247816D01*
X163251557Y-69058412D01*
X163317246Y-68856243D01*
X163350500Y-68646287D01*
X163350500Y-68433713D01*
X163317246Y-68223757D01*
X163251557Y-68021588D01*
X163155051Y-67832184D01*
X163155049Y-67832181D01*
X163155048Y-67832179D01*
X163030109Y-67660213D01*
X162916569Y-67546673D01*
X162883084Y-67485350D01*
X162888068Y-67415658D01*
X162929940Y-67359725D01*
X162960915Y-67342810D01*
X163092331Y-67293796D01*
X163207546Y-67207546D01*
X163293796Y-67092331D01*
X163344091Y-66957483D01*
X163350500Y-66897873D01*
X163350499Y-65102128D01*
X163344091Y-65042517D01*
X163293796Y-64907669D01*
X163293795Y-64907668D01*
X163293793Y-64907664D01*
X163207547Y-64792455D01*
X163207544Y-64792452D01*
X163092335Y-64706206D01*
X163092328Y-64706202D01*
X162957482Y-64655908D01*
X162957483Y-64655908D01*
X162897883Y-64649501D01*
X162897881Y-64649500D01*
X162897873Y-64649500D01*
X162897864Y-64649500D01*
X161102129Y-64649500D01*
X161102123Y-64649501D01*
X161042516Y-64655908D01*
X160907671Y-64706202D01*
X160907664Y-64706206D01*
X160792455Y-64792452D01*
X160792452Y-64792455D01*
X160706206Y-64907664D01*
X160706202Y-64907671D01*
X160655908Y-65042517D01*
X160649501Y-65102116D01*
X160649501Y-65102123D01*
X160649500Y-65102135D01*
X160649500Y-65275500D01*
X160629815Y-65342539D01*
X160577011Y-65388294D01*
X160525500Y-65399500D01*
X159079766Y-65399500D01*
X159012727Y-65379815D01*
X159010875Y-65378602D01*
X158879185Y-65290609D01*
X158879172Y-65290602D01*
X158733501Y-65230264D01*
X158733489Y-65230261D01*
X158578845Y-65199500D01*
X158578842Y-65199500D01*
X158421158Y-65199500D01*
X158421155Y-65199500D01*
X158266510Y-65230261D01*
X158266498Y-65230264D01*
X158120827Y-65290602D01*
X158120814Y-65290609D01*
X157989711Y-65378210D01*
X157989707Y-65378213D01*
X157878213Y-65489707D01*
X157878210Y-65489711D01*
X157790609Y-65620814D01*
X157790602Y-65620827D01*
X157730264Y-65766498D01*
X157730261Y-65766508D01*
X157707065Y-65883121D01*
X157674680Y-65945032D01*
X157613964Y-65979606D01*
X157544194Y-65975865D01*
X157487523Y-65934999D01*
X157473728Y-65912731D01*
X157367266Y-65691661D01*
X157240372Y-65489711D01*
X157205892Y-65434836D01*
X157016779Y-65197696D01*
X156802304Y-64983221D01*
X156565164Y-64794108D01*
X156308341Y-64632735D01*
X156308338Y-64632733D01*
X156035068Y-64501133D01*
X155748783Y-64400957D01*
X155748771Y-64400953D01*
X155520556Y-64348864D01*
X155453063Y-64333460D01*
X155453060Y-64333459D01*
X155453048Y-64333457D01*
X155151663Y-64299500D01*
X155151657Y-64299500D01*
X154848343Y-64299500D01*
X154848336Y-64299500D01*
X154546951Y-64333457D01*
X154546937Y-64333460D01*
X154251228Y-64400953D01*
X154251216Y-64400957D01*
X153964931Y-64501133D01*
X153691661Y-64632733D01*
X153434837Y-64794107D01*
X153197696Y-64983220D01*
X152983220Y-65197696D01*
X152794107Y-65434837D01*
X152632733Y-65691661D01*
X152501133Y-65964931D01*
X152400957Y-66251216D01*
X152400953Y-66251228D01*
X152333460Y-66546937D01*
X152333457Y-66546951D01*
X152299500Y-66848336D01*
X152299500Y-67151663D01*
X152333457Y-67453048D01*
X152333460Y-67453062D01*
X152400953Y-67748771D01*
X152400957Y-67748783D01*
X152501133Y-68035068D01*
X152632733Y-68308338D01*
X152632735Y-68308341D01*
X152794108Y-68565164D01*
X152928343Y-68733489D01*
X152983220Y-68802303D01*
X153197696Y-69016779D01*
X153400554Y-69178553D01*
X153440694Y-69235741D01*
X153443544Y-69305553D01*
X153408199Y-69365823D01*
X153345880Y-69397416D01*
X153323241Y-69399500D01*
X143079766Y-69399500D01*
X143012727Y-69379815D01*
X143010875Y-69378602D01*
X142879185Y-69290609D01*
X142879172Y-69290602D01*
X142733501Y-69230264D01*
X142733489Y-69230261D01*
X142578845Y-69199500D01*
X142578842Y-69199500D01*
X142421158Y-69199500D01*
X142421155Y-69199500D01*
X142266510Y-69230261D01*
X142266498Y-69230264D01*
X142120827Y-69290602D01*
X142120814Y-69290609D01*
X141989711Y-69378210D01*
X141989707Y-69378213D01*
X141878213Y-69489707D01*
X141878210Y-69489711D01*
X141790609Y-69620814D01*
X141790602Y-69620827D01*
X141730264Y-69766498D01*
X141730261Y-69766510D01*
X141699500Y-69921153D01*
X135500500Y-69921153D01*
X135500500Y-64006961D01*
X135501280Y-63993077D01*
X135501280Y-63993076D01*
X135511460Y-63902729D01*
X135517635Y-63875670D01*
X135545353Y-63796456D01*
X135557396Y-63771450D01*
X135602046Y-63700389D01*
X135619351Y-63678690D01*
X135678690Y-63619351D01*
X135700389Y-63602046D01*
X135771450Y-63557396D01*
X135796456Y-63545353D01*
X135875670Y-63517635D01*
X135902733Y-63511459D01*
X135965419Y-63504396D01*
X135993079Y-63501280D01*
X136006962Y-63500500D01*
X136065892Y-63500500D01*
X163934108Y-63500500D01*
X163993038Y-63500500D01*
X164006922Y-63501280D01*
G37*
%TD.AperFunction*%
%TD*%
M02*
