M48
; DRILL file {KiCad 9.0.0} date 2025-04-04T15:09:19-0400
; FORMAT={-:-/ absolute / metric / decimal}
; #@! TF.CreationDate,2025-04-04T15:09:19-04:00
; #@! TF.GenerationSoftware,Kicad,Pcbnew,9.0.0
; #@! TF.FileFunction,Plated,1,2,PTH
FMAT,2
METRIC
; #@! TA.AperFunction,Plated,PTH,ViaDrill
T1C0.300
; #@! TA.AperFunction,Plated,PTH,ComponentDrill
T2C0.889
; #@! TA.AperFunction,Plated,PTH,ComponentDrill
T3C0.900
; #@! TA.AperFunction,Plated,PTH,ComponentDrill
T4C1.000
; #@! TA.AperFunction,Plated,PTH,ComponentDrill
T5C1.397
; #@! TA.AperFunction,Plated,PTH,ComponentDrill
T6C2.200
%
G90
G05
T1
X142.5Y-70.0
X149.0Y-71.0
X149.0Y-84.145
X150.0Y-72.0
X151.0Y-73.5
X151.0Y-90.0
X152.5Y-87.75
X158.5Y-66.0
X158.5Y-70.0
X159.5Y-68.5
X159.5Y-71.0
T2
X141.095Y-89.985
X141.095Y-92.525
X141.11Y-87.46
X147.475Y-98.875
X150.015Y-98.895
X152.555Y-98.875
T3
X146.825Y-79.185
X146.825Y-84.125
X153.175Y-79.205
X153.185Y-84.145
T4
X162.0Y-66.0
X162.0Y-68.54
X162.0Y-71.08
X162.0Y-73.62
X162.0Y-76.16
T5
X143.65Y-84.935
X143.65Y-95.065
X156.35Y-84.92
X156.35Y-95.08
T6
X139.0Y-74.0
X139.0Y-106.0
X155.0Y-67.0
X161.0Y-106.0
M30
