%TF.GenerationSoftware,KiCad,Pcbnew,9.0.0*%
%TF.CreationDate,2025-04-04T15:09:20-04:00*%
%TF.ProjectId,left,6c656674-2e6b-4696-9361-645f70636258,rev?*%
%TF.SameCoordinates,Original*%
%TF.FileFunction,Legend,Top*%
%TF.FilePolarity,Positive*%
%FSLAX46Y46*%
G04 Gerber Fmt 4.6, Leading zero omitted, Abs format (unit mm)*
G04 Created by KiCad (PCBNEW 9.0.0) date 2025-04-04 15:09:20*
%MOMM*%
%LPD*%
G01*
G04 APERTURE LIST*
%ADD10C,0.150000*%
%ADD11C,0.120000*%
%ADD12C,0.100000*%
%ADD13C,0.200000*%
G04 APERTURE END LIST*
D10*
X161666666Y-62684819D02*
X161666666Y-63399104D01*
X161666666Y-63399104D02*
X161619047Y-63541961D01*
X161619047Y-63541961D02*
X161523809Y-63637200D01*
X161523809Y-63637200D02*
X161380952Y-63684819D01*
X161380952Y-63684819D02*
X161285714Y-63684819D01*
X162666666Y-63684819D02*
X162095238Y-63684819D01*
X162380952Y-63684819D02*
X162380952Y-62684819D01*
X162380952Y-62684819D02*
X162285714Y-62827676D01*
X162285714Y-62827676D02*
X162190476Y-62922914D01*
X162190476Y-62922914D02*
X162095238Y-62970533D01*
D11*
%TO.C,J1*%
X160670000Y-67270000D02*
X160670000Y-77490000D01*
X160670000Y-67270000D02*
X163330000Y-67270000D01*
X160670000Y-77490000D02*
X163330000Y-77490000D01*
X162000000Y-64670000D02*
X163330000Y-64670000D01*
X163330000Y-64670000D02*
X163330000Y-66000000D01*
X163330000Y-67270000D02*
X163330000Y-77490000D01*
D12*
%TO.C,U1*%
X139500000Y-85500000D02*
X139500000Y-94500000D01*
X139500000Y-94500000D02*
X141500000Y-94500000D01*
X141500000Y-82500000D02*
X141500000Y-85500000D01*
X141500000Y-85500000D02*
X139500000Y-85500000D01*
X141500000Y-94500000D02*
X141500000Y-97500000D01*
X141500000Y-97500000D02*
X145500000Y-97500000D01*
X145000000Y-82500000D02*
X141500000Y-82500000D01*
X145000000Y-82500000D02*
X145000000Y-77500000D01*
X145500000Y-97500000D02*
X145500000Y-100500000D01*
X145500000Y-100500000D02*
X154500000Y-100500000D01*
X154500000Y-97500000D02*
X158500000Y-97500000D01*
X154500000Y-100500000D02*
X154500000Y-97500000D01*
X155000000Y-77500000D02*
X145000000Y-77500000D01*
X155000000Y-82500000D02*
X155000000Y-77500000D01*
X158500000Y-82500000D02*
X155000000Y-82500000D01*
X158500000Y-97500000D02*
X158500000Y-82500000D01*
D13*
X151796034Y-90000000D02*
G75*
G02*
X148203966Y-90000000I-1796034J0D01*
G01*
X148203966Y-90000000D02*
G75*
G02*
X151796034Y-90000000I1796034J0D01*
G01*
%TD*%
M02*
